<svg width="234" height="38" viewBox="0 0 234 38" fill="none" xmlns="http://www.w3.org/2000/svg">
<path d="M10.27 37.18C10.7033 37.3533 11.0283 37.44 11.245 37.44C11.5917 37.44 11.9383 37.3316 12.285 37.115C12.6317 36.855 12.9567 36.4216 13.26 35.815C13.52 35.3383 13.7367 34.6883 13.91 33.865C14.1267 32.9983 14.3 31.8933 14.43 30.55C14.6033 29.1633 14.7333 27.5383 14.82 25.675C14.9067 23.7683 14.95 21.5366 14.95 18.98C14.95 18.0266 14.9283 17.0083 14.885 15.925C14.885 14.7983 14.8633 13.6066 14.82 12.35L14.885 15.665C14.885 15.4483 14.82 15.2966 14.69 15.21C14.6033 15.1233 14.4517 15.21 14.235 15.47L8.71 23.27C8.10333 24.1366 7.8 25.155 7.8 26.325L7.67 23.465C7.71333 26.0216 7.82166 28.145 7.995 29.835C8.16833 31.525 8.36333 32.89 8.58 33.93C8.84 34.97 9.1 35.75 9.36 36.27C9.66333 36.7466 9.96666 37.05 10.27 37.18ZM11.245 0.519959C10.8117 0.519959 10.3783 0.671626 9.945 0.974961C9.51166 1.27829 9.12166 2.05829 8.775 3.31496C8.42833 4.52829 8.14666 6.36996 7.93 8.83996C7.71333 11.31 7.605 14.69 7.605 18.98V22.555C7.77833 22.815 7.97333 22.7716 8.19 22.425L13.715 14.69C14.235 13.91 14.6033 13.0216 14.82 12.025C14.7333 10.3783 14.625 8.92663 14.495 7.66996C14.365 6.36996 14.1917 5.26496 13.975 4.35496C13.7583 3.44496 13.5417 2.75163 13.325 2.27496C13.1517 1.75496 12.9567 1.36496 12.74 1.10496C12.5233 0.84496 12.285 0.693294 12.025 0.649961C11.8083 0.563293 11.5483 0.519959 11.245 0.519959ZM11.245 -4.23789e-05C12.8917 -4.23789e-05 14.3867 0.389958 15.73 1.16996C17.1167 1.90663 18.3083 3.05496 19.305 4.61496C20.3017 6.17496 21.0817 8.14663 21.645 10.53C22.2083 12.9133 22.49 15.73 22.49 18.98C22.49 22.1433 22.1867 24.9166 21.58 27.3C20.9733 29.6833 20.15 31.6766 19.11 33.28C18.1133 34.84 16.9217 36.01 15.535 36.79C14.1917 37.57 12.7617 37.96 11.245 37.96C9.685 37.96 8.21166 37.57 6.825 36.79C5.48166 36.01 4.29 34.84 3.25 33.28C2.25333 31.72 1.45166 29.7483 0.844997 27.365C0.281664 24.9816 -2.95974e-06 22.1866 -2.95974e-06 18.98C-2.95974e-06 15.73 0.259997 12.9133 0.779997 10.53C1.34333 8.14663 2.12333 6.17496 3.12 4.61496C4.11666 3.05496 5.28666 1.90663 6.63 1.16996C8.01666 0.389958 9.555 -4.23789e-05 11.245 -4.23789e-05ZM14.885 15.665V15.73V15.665ZM37.0419 37.18C37.4752 37.3533 37.8002 37.44 38.0169 37.44C38.3635 37.44 38.7102 37.3316 39.0569 37.115C39.4035 36.855 39.7285 36.4216 40.0319 35.815C40.2919 35.3383 40.5085 34.6883 40.6819 33.865C40.8985 32.9983 41.0719 31.8933 41.2019 30.55C41.3752 29.1633 41.5052 27.5383 41.5919 25.675C41.6785 23.7683 41.7219 21.5366 41.7219 18.98C41.7219 18.0266 41.7002 17.0083 41.6569 15.925C41.6569 14.7983 41.6352 13.6066 41.5919 12.35L41.6569 15.665C41.6569 15.4483 41.5919 15.2966 41.4619 15.21C41.3752 15.1233 41.2235 15.21 41.0069 15.47L35.4819 23.27C34.8752 24.1366 34.5719 25.155 34.5719 26.325L34.4419 23.465C34.4852 26.0216 34.5935 28.145 34.7669 29.835C34.9402 31.525 35.1352 32.89 35.3519 33.93C35.6119 34.97 35.8719 35.75 36.1319 36.27C36.4352 36.7466 36.7385 37.05 37.0419 37.18ZM38.0169 0.519959C37.5835 0.519959 37.1502 0.671626 36.7169 0.974961C36.2835 1.27829 35.8935 2.05829 35.5469 3.31496C35.2002 4.52829 34.9185 6.36996 34.7019 8.83996C34.4852 11.31 34.3769 14.69 34.3769 18.98V22.555C34.5502 22.815 34.7452 22.7716 34.9619 22.425L40.4869 14.69C41.0069 13.91 41.3752 13.0216 41.5919 12.025C41.5052 10.3783 41.3969 8.92663 41.2669 7.66996C41.1369 6.36996 40.9635 5.26496 40.7469 4.35496C40.5302 3.44496 40.3135 2.75163 40.0969 2.27496C39.9235 1.75496 39.7285 1.36496 39.5119 1.10496C39.2952 0.84496 39.0569 0.693294 38.7969 0.649961C38.5802 0.563293 38.3202 0.519959 38.0169 0.519959ZM38.0169 -4.23789e-05C39.6635 -4.23789e-05 41.1585 0.389958 42.5019 1.16996C43.8885 1.90663 45.0802 3.05496 46.0769 4.61496C47.0735 6.17496 47.8535 8.14663 48.4169 10.53C48.9802 12.9133 49.2619 15.73 49.2619 18.98C49.2619 22.1433 48.9585 24.9166 48.3519 27.3C47.7452 29.6833 46.9219 31.6766 45.8819 33.28C44.8852 34.84 43.6935 36.01 42.3069 36.79C40.9635 37.57 39.5335 37.96 38.0169 37.96C36.4569 37.96 34.9835 37.57 33.5969 36.79C32.2535 36.01 31.0619 34.84 30.0219 33.28C29.0252 31.72 28.2235 29.7483 27.6169 27.365C27.0535 24.9816 26.7719 22.1866 26.7719 18.98C26.7719 15.73 27.0319 12.9133 27.5519 10.53C28.1152 8.14663 28.8952 6.17496 29.8919 4.61496C30.8885 3.05496 32.0585 1.90663 33.4019 1.16996C34.7885 0.389958 36.3269 -4.23789e-05 38.0169 -4.23789e-05ZM41.6569 15.665V15.73V15.665ZM52.9984 11.765C53.735 11.0283 54.645 10.66 55.7284 10.66C56.7684 10.66 57.6567 11.0283 58.3934 11.765C59.13 12.5016 59.4984 13.39 59.4984 14.43C59.4984 15.5133 59.13 16.4233 58.3934 17.16C57.6567 17.8966 56.7684 18.265 55.7284 18.265C54.645 18.265 53.735 17.8966 52.9984 17.16C52.2617 16.4233 51.8934 15.5133 51.8934 14.43C51.8934 13.39 52.2617 12.5016 52.9984 11.765ZM52.9984 31.46C53.735 30.7233 54.645 30.355 55.7284 30.355C56.7684 30.355 57.6567 30.7233 58.3934 31.46C59.13 32.1966 59.4984 33.085 59.4984 34.125C59.4984 35.2083 59.13 36.1183 58.3934 36.855C57.6567 37.5916 56.7684 37.96 55.7284 37.96C54.645 37.96 53.735 37.5916 52.9984 36.855C52.2617 36.1183 51.8934 35.2083 51.8934 34.125C51.8934 33.085 52.2617 32.1966 52.9984 31.46ZM71.7331 37.18C72.1664 37.3533 72.4914 37.44 72.7081 37.44C73.0547 37.44 73.4014 37.3316 73.7481 37.115C74.0947 36.855 74.4197 36.4216 74.7231 35.815C74.9831 35.3383 75.1997 34.6883 75.3731 33.865C75.5897 32.9983 75.7631 31.8933 75.8931 30.55C76.0664 29.1633 76.1964 27.5383 76.2831 25.675C76.3697 23.7683 76.4131 21.5366 76.4131 18.98C76.4131 18.0266 76.3914 17.0083 76.3481 15.925C76.3481 14.7983 76.3264 13.6066 76.2831 12.35L76.3481 15.665C76.3481 15.4483 76.2831 15.2966 76.1531 15.21C76.0664 15.1233 75.9147 15.21 75.6981 15.47L70.1731 23.27C69.5664 24.1366 69.2631 25.155 69.2631 26.325L69.1331 23.465C69.1764 26.0216 69.2847 28.145 69.4581 29.835C69.6314 31.525 69.8264 32.89 70.0431 33.93C70.3031 34.97 70.5631 35.75 70.8231 36.27C71.1264 36.7466 71.4297 37.05 71.7331 37.18ZM72.7081 0.519959C72.2747 0.519959 71.8414 0.671626 71.4081 0.974961C70.9747 1.27829 70.5847 2.05829 70.2381 3.31496C69.8914 4.52829 69.6097 6.36996 69.3931 8.83996C69.1764 11.31 69.0681 14.69 69.0681 18.98V22.555C69.2414 22.815 69.4364 22.7716 69.6531 22.425L75.1781 14.69C75.6981 13.91 76.0664 13.0216 76.2831 12.025C76.1964 10.3783 76.0881 8.92663 75.9581 7.66996C75.8281 6.36996 75.6547 5.26496 75.4381 4.35496C75.2214 3.44496 75.0047 2.75163 74.7881 2.27496C74.6147 1.75496 74.4197 1.36496 74.2031 1.10496C73.9864 0.84496 73.7481 0.693294 73.4881 0.649961C73.2714 0.563293 73.0114 0.519959 72.7081 0.519959ZM72.7081 -4.23789e-05C74.3547 -4.23789e-05 75.8497 0.389958 77.1931 1.16996C78.5797 1.90663 79.7714 3.05496 80.7681 4.61496C81.7647 6.17496 82.5447 8.14663 83.1081 10.53C83.6714 12.9133 83.9531 15.73 83.9531 18.98C83.9531 22.1433 83.6498 24.9166 83.0431 27.3C82.4364 29.6833 81.6131 31.6766 80.5731 33.28C79.5764 34.84 78.3847 36.01 76.9981 36.79C75.6547 37.57 74.2247 37.96 72.7081 37.96C71.1481 37.96 69.6747 37.57 68.2881 36.79C66.9447 36.01 65.7531 34.84 64.7131 33.28C63.7164 31.72 62.9147 29.7483 62.3081 27.365C61.7447 24.9816 61.4631 22.1866 61.4631 18.98C61.4631 15.73 61.7231 12.9133 62.2431 10.53C62.8064 8.14663 63.5864 6.17496 64.5831 4.61496C65.5797 3.05496 66.7497 1.90663 68.0931 1.16996C69.4797 0.389958 71.0181 -4.23789e-05 72.7081 -4.23789e-05ZM76.3481 15.665V15.73V15.665ZM98.505 37.18C98.9383 37.3533 99.2633 37.44 99.48 37.44C99.8266 37.44 100.173 37.3316 100.52 37.115C100.867 36.855 101.192 36.4216 101.495 35.815C101.755 35.3383 101.972 34.6883 102.145 33.865C102.362 32.9983 102.535 31.8933 102.665 30.55C102.838 29.1633 102.968 27.5383 103.055 25.675C103.142 23.7683 103.185 21.5366 103.185 18.98C103.185 18.0266 103.163 17.0083 103.12 15.925C103.12 14.7983 103.098 13.6066 103.055 12.35L103.12 15.665C103.12 15.4483 103.055 15.2966 102.925 15.21C102.838 15.1233 102.687 15.21 102.47 15.47L96.945 23.27C96.3383 24.1366 96.035 25.155 96.035 26.325L95.905 23.465C95.9483 26.0216 96.0566 28.145 96.23 29.835C96.4033 31.525 96.5983 32.89 96.815 33.93C97.075 34.97 97.335 35.75 97.595 36.27C97.8983 36.7466 98.2016 37.05 98.505 37.18ZM99.48 0.519959C99.0466 0.519959 98.6133 0.671626 98.18 0.974961C97.7466 1.27829 97.3566 2.05829 97.01 3.31496C96.6633 4.52829 96.3816 6.36996 96.165 8.83996C95.9483 11.31 95.84 14.69 95.84 18.98V22.555C96.0133 22.815 96.2083 22.7716 96.425 22.425L101.95 14.69C102.47 13.91 102.838 13.0216 103.055 12.025C102.968 10.3783 102.86 8.92663 102.73 7.66996C102.6 6.36996 102.427 5.26496 102.21 4.35496C101.993 3.44496 101.777 2.75163 101.56 2.27496C101.387 1.75496 101.192 1.36496 100.975 1.10496C100.758 0.84496 100.52 0.693294 100.26 0.649961C100.043 0.563293 99.7833 0.519959 99.48 0.519959ZM99.48 -4.23789e-05C101.127 -4.23789e-05 102.622 0.389958 103.965 1.16996C105.352 1.90663 106.543 3.05496 107.54 4.61496C108.537 6.17496 109.317 8.14663 109.88 10.53C110.443 12.9133 110.725 15.73 110.725 18.98C110.725 22.1433 110.422 24.9166 109.815 27.3C109.208 29.6833 108.385 31.6766 107.345 33.28C106.348 34.84 105.157 36.01 103.77 36.79C102.427 37.57 100.997 37.96 99.48 37.96C97.92 37.96 96.4466 37.57 95.06 36.79C93.7166 36.01 92.525 34.84 91.485 33.28C90.4883 31.72 89.6866 29.7483 89.08 27.365C88.5166 24.9816 88.235 22.1866 88.235 18.98C88.235 15.73 88.495 12.9133 89.015 10.53C89.5783 8.14663 90.3583 6.17496 91.355 4.61496C92.3516 3.05496 93.5216 1.90663 94.865 1.16996C96.2516 0.389958 97.79 -4.23789e-05 99.48 -4.23789e-05ZM103.12 15.665V15.73V15.665ZM114.461 11.765C115.198 11.0283 116.108 10.66 117.191 10.66C118.231 10.66 119.12 11.0283 119.856 11.765C120.593 12.5016 120.961 13.39 120.961 14.43C120.961 15.5133 120.593 16.4233 119.856 17.16C119.12 17.8966 118.231 18.265 117.191 18.265C116.108 18.265 115.198 17.8966 114.461 17.16C113.725 16.4233 113.356 15.5133 113.356 14.43C113.356 13.39 113.725 12.5016 114.461 11.765ZM114.461 31.46C115.198 30.7233 116.108 30.355 117.191 30.355C118.231 30.355 119.12 30.7233 119.856 31.46C120.593 32.1966 120.961 33.085 120.961 34.125C120.961 35.2083 120.593 36.1183 119.856 36.855C119.12 37.5916 118.231 37.96 117.191 37.96C116.108 37.96 115.198 37.5916 114.461 36.855C113.725 36.1183 113.356 35.2083 113.356 34.125C113.356 33.085 113.725 32.1966 114.461 31.46ZM133.196 37.18C133.63 37.3533 133.955 37.44 134.171 37.44C134.518 37.44 134.865 37.3316 135.211 37.115C135.558 36.855 135.883 36.4216 136.186 35.815C136.446 35.3383 136.663 34.6883 136.836 33.865C137.053 32.9983 137.226 31.8933 137.356 30.55C137.53 29.1633 137.66 27.5383 137.746 25.675C137.833 23.7683 137.876 21.5366 137.876 18.98C137.876 18.0266 137.855 17.0083 137.811 15.925C137.811 14.7983 137.79 13.6066 137.746 12.35L137.811 15.665C137.811 15.4483 137.746 15.2966 137.616 15.21C137.53 15.1233 137.378 15.21 137.161 15.47L131.636 23.27C131.03 24.1366 130.726 25.155 130.726 26.325L130.596 23.465C130.64 26.0216 130.748 28.145 130.921 29.835C131.095 31.525 131.29 32.89 131.506 33.93C131.766 34.97 132.026 35.75 132.286 36.27C132.59 36.7466 132.893 37.05 133.196 37.18ZM134.171 0.519959C133.738 0.519959 133.305 0.671626 132.871 0.974961C132.438 1.27829 132.048 2.05829 131.701 3.31496C131.355 4.52829 131.073 6.36996 130.856 8.83996C130.64 11.31 130.531 14.69 130.531 18.98V22.555C130.705 22.815 130.9 22.7716 131.116 22.425L136.641 14.69C137.161 13.91 137.53 13.0216 137.746 12.025C137.66 10.3783 137.551 8.92663 137.421 7.66996C137.291 6.36996 137.118 5.26496 136.901 4.35496C136.685 3.44496 136.468 2.75163 136.251 2.27496C136.078 1.75496 135.883 1.36496 135.666 1.10496C135.45 0.84496 135.211 0.693294 134.951 0.649961C134.735 0.563293 134.475 0.519959 134.171 0.519959ZM134.171 -4.23789e-05C135.818 -4.23789e-05 137.313 0.389958 138.656 1.16996C140.043 1.90663 141.235 3.05496 142.231 4.61496C143.228 6.17496 144.008 8.14663 144.571 10.53C145.135 12.9133 145.416 15.73 145.416 18.98C145.416 22.1433 145.113 24.9166 144.506 27.3C143.9 29.6833 143.076 31.6766 142.036 33.28C141.04 34.84 139.848 36.01 138.461 36.79C137.118 37.57 135.688 37.96 134.171 37.96C132.611 37.96 131.138 37.57 129.751 36.79C128.408 36.01 127.216 34.84 126.176 33.28C125.18 31.72 124.378 29.7483 123.771 27.365C123.208 24.9816 122.926 22.1866 122.926 18.98C122.926 15.73 123.186 12.9133 123.706 10.53C124.27 8.14663 125.05 6.17496 126.046 4.61496C127.043 3.05496 128.213 1.90663 129.556 1.16996C130.943 0.389958 132.481 -4.23789e-05 134.171 -4.23789e-05ZM137.811 15.665V15.73V15.665ZM159.968 37.18C160.401 37.3533 160.726 37.44 160.943 37.44C161.29 37.44 161.636 37.3316 161.983 37.115C162.33 36.855 162.655 36.4216 162.958 35.815C163.218 35.3383 163.435 34.6883 163.608 33.865C163.825 32.9983 163.998 31.8933 164.128 30.55C164.301 29.1633 164.431 27.5383 164.518 25.675C164.605 23.7683 164.648 21.5366 164.648 18.98C164.648 18.0266 164.626 17.0083 164.583 15.925C164.583 14.7983 164.561 13.6066 164.518 12.35L164.583 15.665C164.583 15.4483 164.518 15.2966 164.388 15.21C164.301 15.1233 164.15 15.21 163.933 15.47L158.408 23.27C157.801 24.1366 157.498 25.155 157.498 26.325L157.368 23.465C157.411 26.0216 157.52 28.145 157.693 29.835C157.866 31.525 158.061 32.89 158.278 33.93C158.538 34.97 158.798 35.75 159.058 36.27C159.361 36.7466 159.665 37.05 159.968 37.18ZM160.943 0.519959C160.51 0.519959 160.076 0.671626 159.643 0.974961C159.21 1.27829 158.82 2.05829 158.473 3.31496C158.126 4.52829 157.845 6.36996 157.628 8.83996C157.411 11.31 157.303 14.69 157.303 18.98V22.555C157.476 22.815 157.671 22.7716 157.888 22.425L163.413 14.69C163.933 13.91 164.301 13.0216 164.518 12.025C164.431 10.3783 164.323 8.92663 164.193 7.66996C164.063 6.36996 163.89 5.26496 163.673 4.35496C163.456 3.44496 163.24 2.75163 163.023 2.27496C162.85 1.75496 162.655 1.36496 162.438 1.10496C162.221 0.84496 161.983 0.693294 161.723 0.649961C161.506 0.563293 161.246 0.519959 160.943 0.519959ZM160.943 -4.23789e-05C162.59 -4.23789e-05 164.085 0.389958 165.428 1.16996C166.815 1.90663 168.006 3.05496 169.003 4.61496C170 6.17496 170.78 8.14663 171.343 10.53C171.906 12.9133 172.188 15.73 172.188 18.98C172.188 22.1433 171.885 24.9166 171.278 27.3C170.671 29.6833 169.848 31.6766 168.808 33.28C167.811 34.84 166.62 36.01 165.233 36.79C163.89 37.57 162.46 37.96 160.943 37.96C159.383 37.96 157.91 37.57 156.523 36.79C155.18 36.01 153.988 34.84 152.948 33.28C151.951 31.72 151.15 29.7483 150.543 27.365C149.98 24.9816 149.698 22.1866 149.698 18.98C149.698 15.73 149.958 12.9133 150.478 10.53C151.041 8.14663 151.821 6.17496 152.818 4.61496C153.815 3.05496 154.985 1.90663 156.328 1.16996C157.715 0.389958 159.253 -4.23789e-05 160.943 -4.23789e-05ZM164.583 15.665V15.73V15.665ZM175.925 11.765C176.661 11.0283 177.571 10.66 178.655 10.66C179.695 10.66 180.583 11.0283 181.32 11.765C182.056 12.5016 182.425 13.39 182.425 14.43C182.425 15.5133 182.056 16.4233 181.32 17.16C180.583 17.8966 179.695 18.265 178.655 18.265C177.571 18.265 176.661 17.8966 175.925 17.16C175.188 16.4233 174.82 15.5133 174.82 14.43C174.82 13.39 175.188 12.5016 175.925 11.765ZM175.925 31.46C176.661 30.7233 177.571 30.355 178.655 30.355C179.695 30.355 180.583 30.7233 181.32 31.46C182.056 32.1966 182.425 33.085 182.425 34.125C182.425 35.2083 182.056 36.1183 181.32 36.855C180.583 37.5916 179.695 37.96 178.655 37.96C177.571 37.96 176.661 37.5916 175.925 36.855C175.188 36.1183 174.82 35.2083 174.82 34.125C174.82 33.085 175.188 32.1966 175.925 31.46ZM194.659 37.18C195.093 37.3533 195.418 37.44 195.634 37.44C195.981 37.44 196.328 37.3316 196.674 37.115C197.021 36.855 197.346 36.4216 197.649 35.815C197.909 35.3383 198.126 34.6883 198.299 33.865C198.516 32.9983 198.689 31.8933 198.819 30.55C198.993 29.1633 199.123 27.5383 199.209 25.675C199.296 23.7683 199.339 21.5366 199.339 18.98C199.339 18.0266 199.318 17.0083 199.274 15.925C199.274 14.7983 199.253 13.6066 199.209 12.35L199.274 15.665C199.274 15.4483 199.209 15.2966 199.079 15.21C198.993 15.1233 198.841 15.21 198.624 15.47L193.099 23.27C192.493 24.1366 192.189 25.155 192.189 26.325L192.059 23.465C192.103 26.0216 192.211 28.145 192.384 29.835C192.558 31.525 192.753 32.89 192.969 33.93C193.229 34.97 193.489 35.75 193.749 36.27C194.053 36.7466 194.356 37.05 194.659 37.18ZM195.634 0.519959C195.201 0.519959 194.768 0.671626 194.334 0.974961C193.901 1.27829 193.511 2.05829 193.164 3.31496C192.818 4.52829 192.536 6.36996 192.319 8.83996C192.103 11.31 191.994 14.69 191.994 18.98V22.555C192.168 22.815 192.363 22.7716 192.579 22.425L198.104 14.69C198.624 13.91 198.993 13.0216 199.209 12.025C199.123 10.3783 199.014 8.92663 198.884 7.66996C198.754 6.36996 198.581 5.26496 198.364 4.35496C198.148 3.44496 197.931 2.75163 197.714 2.27496C197.541 1.75496 197.346 1.36496 197.129 1.10496C196.913 0.84496 196.674 0.693294 196.414 0.649961C196.198 0.563293 195.938 0.519959 195.634 0.519959ZM195.634 -4.23789e-05C197.281 -4.23789e-05 198.776 0.389958 200.119 1.16996C201.506 1.90663 202.698 3.05496 203.694 4.61496C204.691 6.17496 205.471 8.14663 206.034 10.53C206.598 12.9133 206.879 15.73 206.879 18.98C206.879 22.1433 206.576 24.9166 205.969 27.3C205.363 29.6833 204.539 31.6766 203.499 33.28C202.503 34.84 201.311 36.01 199.924 36.79C198.581 37.57 197.151 37.96 195.634 37.96C194.074 37.96 192.601 37.57 191.214 36.79C189.871 36.01 188.679 34.84 187.639 33.28C186.643 31.72 185.841 29.7483 185.234 27.365C184.671 24.9816 184.389 22.1866 184.389 18.98C184.389 15.73 184.649 12.9133 185.169 10.53C185.733 8.14663 186.513 6.17496 187.509 4.61496C188.506 3.05496 189.676 1.90663 191.019 1.16996C192.406 0.389958 193.944 -4.23789e-05 195.634 -4.23789e-05ZM199.274 15.665V15.73V15.665ZM221.431 37.18C221.864 37.3533 222.189 37.44 222.406 37.44C222.753 37.44 223.099 37.3316 223.446 37.115C223.793 36.855 224.118 36.4216 224.421 35.815C224.681 35.3383 224.898 34.6883 225.071 33.865C225.288 32.9983 225.461 31.8933 225.591 30.55C225.764 29.1633 225.894 27.5383 225.981 25.675C226.068 23.7683 226.111 21.5366 226.111 18.98C226.111 18.0266 226.089 17.0083 226.046 15.925C226.046 14.7983 226.024 13.6066 225.981 12.35L226.046 15.665C226.046 15.4483 225.981 15.2966 225.851 15.21C225.764 15.1233 225.613 15.21 225.396 15.47L219.871 23.27C219.264 24.1366 218.961 25.155 218.961 26.325L218.831 23.465C218.874 26.0216 218.983 28.145 219.156 29.835C219.329 31.525 219.524 32.89 219.741 33.93C220.001 34.97 220.261 35.75 220.521 36.27C220.824 36.7466 221.128 37.05 221.431 37.18ZM222.406 0.519959C221.973 0.519959 221.539 0.671626 221.106 0.974961C220.673 1.27829 220.283 2.05829 219.936 3.31496C219.589 4.52829 219.308 6.36996 219.091 8.83996C218.874 11.31 218.766 14.69 218.766 18.98V22.555C218.939 22.815 219.134 22.7716 219.351 22.425L224.876 14.69C225.396 13.91 225.764 13.0216 225.981 12.025C225.894 10.3783 225.786 8.92663 225.656 7.66996C225.526 6.36996 225.353 5.26496 225.136 4.35496C224.919 3.44496 224.703 2.75163 224.486 2.27496C224.313 1.75496 224.118 1.36496 223.901 1.10496C223.684 0.84496 223.446 0.693294 223.186 0.649961C222.969 0.563293 222.709 0.519959 222.406 0.519959ZM222.406 -4.23789e-05C224.053 -4.23789e-05 225.548 0.389958 226.891 1.16996C228.278 1.90663 229.469 3.05496 230.466 4.61496C231.463 6.17496 232.243 8.14663 232.806 10.53C233.369 12.9133 233.651 15.73 233.651 18.98C233.651 22.1433 233.348 24.9166 232.741 27.3C232.134 29.6833 231.311 31.6766 230.271 33.28C229.274 34.84 228.083 36.01 226.696 36.79C225.353 37.57 223.923 37.96 222.406 37.96C220.846 37.96 219.373 37.57 217.986 36.79C216.643 36.01 215.451 34.84 214.411 33.28C213.414 31.72 212.613 29.7483 212.006 27.365C211.443 24.9816 211.161 22.1866 211.161 18.98C211.161 15.73 211.421 12.9133 211.941 10.53C212.504 8.14663 213.284 6.17496 214.281 4.61496C215.278 3.05496 216.448 1.90663 217.791 1.16996C219.178 0.389958 220.716 -4.23789e-05 222.406 -4.23789e-05ZM226.046 15.665V15.73V15.665Z" fill="#D20000"/>
</svg>
