<svg width="142" height="90" viewBox="0 0 142 90" fill="none" xmlns="http://www.w3.org/2000/svg">
<path d="M1.3113e-06 36.864C0.0853347 36.864 0.170668 36.864 0.256001 36.864C1.664 36.864 2.368 36.5226 2.368 35.84V6.84797C2.368 6.33598 2.15467 5.88798 1.728 5.50397C1.344 5.07731 0.960001 4.77864 0.576001 4.60798L1.3113e-06 4.35197C2.048 4.22397 4.01067 3.75464 5.888 2.94397C7.808 2.13331 9.30134 1.15197 10.368 -2.67029e-05V35.84C10.368 36.5226 11.1573 36.864 12.736 36.864V37.376H1.3113e-06V36.864ZM19.893 1.34398C20.917 0.490643 22.261 0.0639763 23.925 0.0639763C25.6743 0.0639763 27.6157 0.511976 29.749 1.40797C31.8823 2.30398 33.397 2.75198 34.293 2.75198C35.957 2.75198 37.7703 1.83464 39.733 -2.67029e-05C39.861 1.02398 39.925 2.09064 39.925 3.19997C39.925 5.16264 39.541 7.03997 38.773 8.83198C38.005 10.5813 37.0663 12.1386 35.957 13.504C34.8903 14.8266 33.8237 16.128 32.757 17.408C31.6903 18.688 30.773 20.096 30.005 21.632C29.237 23.1253 28.853 24.6613 28.853 26.24C28.853 27.3066 29.0663 28.4586 29.493 29.696C29.9197 30.8906 30.133 31.8293 30.133 32.512C30.133 32.64 30.133 32.7893 30.133 32.96C30.133 34.1973 29.749 35.2426 28.981 36.096C28.2557 36.9493 27.189 37.376 25.781 37.376C24.1597 37.376 22.8797 36.736 21.941 35.456C21.045 34.176 20.5543 32.512 20.469 30.464C20.469 30.336 20.469 30.208 20.469 30.08C20.469 28.2026 21.0663 26.0693 22.261 23.68C23.4557 21.2906 25.333 19.0933 27.893 17.088C28.4903 16.6186 29.429 15.9573 30.709 15.104C31.989 14.208 32.949 13.4826 33.589 12.928C34.2717 12.3733 35.061 11.6266 35.957 10.688C36.853 9.70664 37.557 8.59731 38.069 7.35998C38.581 6.12264 38.965 4.71464 39.221 3.13597C37.6423 5.99464 35.4237 7.42397 32.565 7.42397C31.3277 7.42397 29.557 7.03997 27.253 6.27197C24.9917 5.50398 23.5197 5.11998 22.837 5.11998C22.7943 5.11998 22.7303 5.11998 22.645 5.11998C21.365 5.11998 20.661 5.41864 20.533 6.01598C20.405 6.57064 20.341 6.95464 20.341 7.16797C20.341 7.97864 20.7463 8.78931 21.557 9.59998C19.4237 8.49064 18.357 6.84798 18.357 4.67197C18.357 3.34931 18.869 2.23997 19.893 1.34398ZM56.58 37.376V36.864C58.1587 36.864 58.948 36.5226 58.948 35.84V0.639977C58.6493 0.554642 57.9667 0.511974 56.9 0.511974V-2.67029e-05H69.7V0.511974C68.8893 0.511974 68.356 0.575975 68.1 0.703976C67.844 0.789308 67.716 0.938641 67.716 1.15197C67.716 1.19464 67.716 1.25864 67.716 1.34398L74.18 22.848L80.708 0.959976C80.5373 0.661308 79.9187 0.511974 78.852 0.511974V-2.67029e-05H91.204V0.511974C89.6253 0.511974 88.836 0.853308 88.836 1.53598V35.84C88.836 36.5226 89.6253 36.864 91.204 36.864V37.376H78.468V36.864C80.0467 36.864 80.836 36.5226 80.836 35.84V3.58398L70.596 37.376L59.844 1.85598L59.78 35.84C59.78 36.5226 60.5693 36.864 62.148 36.864V37.376H56.58ZM92.4875 36.864C93.5115 36.864 94.1728 36.8213 94.4715 36.736C94.8128 36.6506 95.0688 36.416 95.2395 36.032L105.992 -2.67029e-05H106.952L117.704 35.904C117.832 36.3733 118.088 36.6506 118.472 36.736C118.856 36.8213 119.538 36.864 120.52 36.864V37.376H107.784V36.864C109.064 36.864 109.725 36.6933 109.768 36.352L107.848 29.696H98.0555L96.1355 36.096C96.1355 36.1386 96.1355 36.1813 96.1355 36.224C96.1355 36.48 96.2422 36.6506 96.4555 36.736C96.7115 36.8213 97.2662 36.864 98.1195 36.864V37.376H92.4875V36.864ZM107.656 29.184L102.984 13.248L98.1835 29.184H107.656ZM114.41 0.511974V-2.67029e-05H127.082V0.511974C125.802 0.511974 125.141 0.682641 125.098 1.02398C125.098 1.06664 125.119 1.13064 125.162 1.21598L131.626 18.944L137.386 1.27998C137.429 1.15197 137.45 1.06664 137.45 1.02398C137.45 0.810642 137.322 0.682643 137.066 0.639977C136.853 0.554642 136.298 0.511974 135.402 0.511974V-2.67029e-05H141.034V0.511974C139.925 0.511974 139.199 0.554642 138.858 0.639977C138.559 0.725309 138.346 0.959975 138.218 1.34398L132.138 20.288V35.84C132.138 36.5226 132.927 36.864 134.506 36.864V37.376H121.77V36.864C123.349 36.864 124.138 36.5226 124.138 35.84V20.096L117.29 1.53598C117.034 0.853308 116.074 0.511974 114.41 0.511974ZM51.6128 69.856C57.9701 65.7173 61.1488 61.792 61.1488 58.08C61.1488 56.416 60.5728 55.072 59.4208 54.048C58.3114 52.9813 56.8394 52.448 55.0048 52.448H54.9408C53.5328 52.448 52.2528 52.7893 51.1008 53.472C49.9914 54.1546 49.4368 54.944 49.4368 55.84C49.4368 56.5653 49.9701 57.3973 51.0368 58.336C52.1461 59.2746 52.7221 60.1493 52.7648 60.96C52.7648 61.0026 52.7648 61.0666 52.7648 61.152C52.7648 62.1333 52.4021 62.944 51.6768 63.584C50.9514 64.1813 50.0341 64.48 48.9248 64.48C47.6874 64.48 46.7274 64.1386 46.0448 63.456C45.3621 62.7306 45.0208 61.728 45.0208 60.448C45.0208 58.4426 45.9594 56.544 47.8368 54.752C49.7141 52.9173 52.0821 52 54.9408 52H55.0048C58.0768 52 60.5728 52.896 62.4928 54.688C64.4554 56.4373 65.4368 59.232 65.4368 63.072C65.4368 64.0106 65.2874 64.992 64.9888 66.016C64.6901 67.04 64.1354 68.2133 63.3248 69.536C62.5568 70.816 61.3194 72.0533 59.6128 73.248C57.9488 74.4426 55.9008 75.424 53.4688 76.192C48.3914 77.984 45.6821 81.1413 45.3408 85.664C45.7674 84.3413 46.5141 83.2106 47.5808 82.272C48.6901 81.3333 50.0768 80.864 51.7408 80.864C52.8501 80.864 54.4501 81.2906 56.5408 82.144C58.6741 82.9973 60.1888 83.424 61.0848 83.424C63.0474 83.424 64.5408 81.9733 65.5648 79.072V79.648C65.5648 80.032 65.5434 80.4586 65.5008 80.928C65.5008 81.3973 65.4368 81.952 65.3088 82.592C65.2234 83.232 65.0954 83.8506 64.9248 84.448C64.7541 85.0453 64.4981 85.664 64.1568 86.304C63.8154 86.9013 63.4101 87.4346 62.9408 87.904C62.5141 88.3306 61.9381 88.6933 61.2128 88.992C60.5301 89.2906 59.7621 89.44 58.9088 89.44C57.4581 89.44 56.1568 89.0133 55.0048 88.16C53.8528 87.3066 52.7861 86.4533 51.8048 85.6C50.8661 84.7466 49.9274 84.32 48.9888 84.32C48.0501 84.32 47.2608 84.7466 46.6208 85.6C46.0234 86.4106 45.6608 87.2426 45.5328 88.096L45.3408 89.376C44.4021 87.1573 43.9328 84.896 43.9328 82.592C43.9328 77.3866 46.4928 73.1413 51.6128 69.856ZM78.1533 88.608C78.5799 88.7786 78.8999 88.864 79.1133 88.864C79.4546 88.864 79.7959 88.7573 80.1373 88.544C80.4786 88.288 80.7986 87.8613 81.0973 87.264C81.3533 86.7946 81.5666 86.1546 81.7373 85.344C81.9506 84.4906 82.1213 83.4026 82.2493 82.08C82.4199 80.7146 82.5479 79.1146 82.6333 77.28C82.7186 75.4026 82.7613 73.2053 82.7613 70.688C82.7613 69.7493 82.7399 68.7466 82.6973 67.68C82.6973 66.5706 82.6759 65.3973 82.6333 64.16L82.6973 67.424C82.6973 67.2106 82.6333 67.0613 82.5053 66.976C82.4199 66.8906 82.2706 66.976 82.0573 67.232L76.6173 74.912C76.0199 75.7653 75.7213 76.768 75.7213 77.92L75.5933 75.104C75.6359 77.6213 75.7426 79.712 75.9133 81.376C76.0839 83.04 76.2759 84.384 76.4893 85.408C76.7453 86.432 77.0013 87.2 77.2573 87.712C77.5559 88.1813 77.8546 88.48 78.1533 88.608ZM79.1133 52.512C78.6866 52.512 78.2599 52.6613 77.8333 52.96C77.4066 53.2586 77.0226 54.0266 76.6813 55.264C76.3399 56.4586 76.0626 58.272 75.8493 60.704C75.6359 63.136 75.5293 66.464 75.5293 70.688V74.208C75.6999 74.464 75.8919 74.4213 76.1053 74.08L81.5453 66.464C82.0573 65.696 82.4199 64.8213 82.6333 63.84C82.5479 62.2186 82.4413 60.7893 82.3133 59.552C82.1853 58.272 82.0146 57.184 81.8013 56.288C81.5879 55.392 81.3746 54.7093 81.1613 54.24C80.9906 53.728 80.7986 53.344 80.5853 53.088C80.3719 52.832 80.1373 52.6826 79.8813 52.64C79.6679 52.5546 79.4119 52.512 79.1133 52.512ZM79.1133 52C80.7346 52 82.2066 52.384 83.5293 53.152C84.8946 53.8773 86.0679 55.008 87.0493 56.544C88.0306 58.08 88.7986 60.0213 89.3533 62.368C89.9079 64.7146 90.1853 67.488 90.1853 70.688C90.1853 73.8026 89.8866 76.5333 89.2893 78.88C88.6919 81.2266 87.8813 83.1893 86.8573 84.768C85.8759 86.304 84.7026 87.456 83.3373 88.224C82.0146 88.992 80.6066 89.376 79.1133 89.376C77.5773 89.376 76.1266 88.992 74.7613 88.224C73.4386 87.456 72.2653 86.304 71.2413 84.768C70.2599 83.232 69.4706 81.2906 68.8733 78.944C68.3186 76.5973 68.0413 73.8453 68.0413 70.688C68.0413 67.488 68.2973 64.7146 68.8093 62.368C69.3639 60.0213 70.1319 58.08 71.1133 56.544C72.0946 55.008 73.2466 53.8773 74.5693 53.152C75.9346 52.384 77.4493 52 79.1133 52ZM82.6973 67.424V67.488V67.424ZM100.52 69.856C106.878 65.7173 110.056 61.792 110.056 58.08C110.056 56.416 109.48 55.072 108.328 54.048C107.219 52.9813 105.747 52.448 103.912 52.448H103.848C102.44 52.448 101.16 52.7893 100.008 53.472C98.8989 54.1546 98.3443 54.944 98.3443 55.84C98.3443 56.5653 98.8776 57.3973 99.9443 58.336C101.054 59.2746 101.63 60.1493 101.672 60.96C101.672 61.0026 101.672 61.0666 101.672 61.152C101.672 62.1333 101.31 62.944 100.584 63.584C99.8589 64.1813 98.9416 64.48 97.8323 64.48C96.5949 64.48 95.6349 64.1386 94.9523 63.456C94.2696 62.7306 93.9283 61.728 93.9283 60.448C93.9283 58.4426 94.8669 56.544 96.7443 54.752C98.6216 52.9173 100.99 52 103.848 52H103.912C106.984 52 109.48 52.896 111.4 54.688C113.363 56.4373 114.344 59.232 114.344 63.072C114.344 64.0106 114.195 64.992 113.896 66.016C113.598 67.04 113.043 68.2133 112.232 69.536C111.464 70.816 110.227 72.0533 108.52 73.248C106.856 74.4426 104.808 75.424 102.376 76.192C97.2989 77.984 94.5896 81.1413 94.2483 85.664C94.6749 84.3413 95.4216 83.2106 96.4883 82.272C97.5976 81.3333 98.9843 80.864 100.648 80.864C101.758 80.864 103.358 81.2906 105.448 82.144C107.582 82.9973 109.096 83.424 109.992 83.424C111.955 83.424 113.448 81.9733 114.472 79.072V79.648C114.472 80.032 114.451 80.4586 114.408 80.928C114.408 81.3973 114.344 81.952 114.216 82.592C114.131 83.232 114.003 83.8506 113.832 84.448C113.662 85.0453 113.406 85.664 113.064 86.304C112.723 86.9013 112.318 87.4346 111.848 87.904C111.422 88.3306 110.846 88.6933 110.12 88.992C109.438 89.2906 108.67 89.44 107.816 89.44C106.366 89.44 105.064 89.0133 103.912 88.16C102.76 87.3066 101.694 86.4533 100.712 85.6C99.7736 84.7466 98.8349 84.32 97.8963 84.32C96.9576 84.32 96.1683 84.7466 95.5283 85.6C94.9309 86.4106 94.5683 87.2426 94.4403 88.096L94.2483 89.376C93.3096 87.1573 92.8403 84.896 92.8403 82.592C92.8403 77.3866 95.4003 73.1413 100.52 69.856ZM117.141 71.648C117.141 64.864 118.271 59.8933 120.533 56.736C122.794 53.5786 125.589 52 128.917 52C131.562 52 133.695 52.832 135.317 54.496C136.938 56.1173 137.749 57.9306 137.749 59.936C137.749 61.2586 137.386 62.3466 136.661 63.2C135.978 64.0106 135.146 64.416 134.165 64.416C134.122 64.416 134.079 64.416 134.037 64.416C133.098 64.3733 132.33 64.0533 131.733 63.456C131.178 62.8586 130.901 62.0693 130.901 61.088C130.901 61.0453 130.901 60.9813 130.901 60.896C130.986 59.872 131.498 58.9973 132.437 58.272C133.375 57.504 133.845 56.7786 133.845 56.096C133.845 54.9866 133.354 54.112 132.373 53.472C131.391 52.7893 130.325 52.448 129.173 52.448C129.087 52.448 129.002 52.448 128.917 52.448C128.191 52.448 127.551 52.6613 126.997 53.088C126.485 53.5146 126.058 54.1546 125.717 55.008C125.418 55.8186 125.162 56.672 124.949 57.568C124.735 58.4213 124.586 59.488 124.501 60.768C124.415 62.0053 124.351 63.0933 124.309 64.032C124.309 64.928 124.287 66.0373 124.245 67.36C124.245 68.64 124.245 69.5573 124.245 70.112C125.525 67.5946 127.487 66.336 130.133 66.336C132.394 66.336 134.357 67.296 136.021 69.216C137.727 71.0933 138.581 73.6746 138.581 76.96C138.581 77.0453 138.581 77.1306 138.581 77.216C138.581 80.672 137.621 83.5733 135.701 85.92C133.781 88.224 131.349 89.376 128.405 89.376C128.362 89.376 128.319 89.376 128.277 89.376C120.853 89.248 117.141 83.3386 117.141 71.648ZM124.245 73.44C124.245 75.2746 124.245 76.64 124.245 77.536C124.287 78.432 124.33 79.6053 124.373 81.056C124.458 82.5066 124.565 83.5946 124.693 84.32C124.863 85.0453 125.077 85.8133 125.333 86.624C125.631 87.4346 125.994 88.0106 126.421 88.352C126.89 88.6933 127.445 88.864 128.085 88.864C129.066 88.864 129.877 88.288 130.517 87.136C131.157 85.9413 131.562 84.5973 131.733 83.104C131.946 81.6106 132.053 79.968 132.053 78.176C132.053 75.4026 131.733 72.9493 131.093 70.816C130.453 68.64 129.45 67.552 128.085 67.552C126.933 67.552 125.994 68.1493 125.269 69.344C124.586 70.5386 124.245 71.904 124.245 73.44Z" fill="#D20000"/>
</svg>
