<svg width="142" height="90" viewBox="0 0 142 90" fill="none" xmlns="http://www.w3.org/2000/svg">
<path d="M1.3113e-06 36.864C0.0853347 36.864 0.170668 36.864 0.256001 36.864C1.664 36.864 2.368 36.5226 2.368 35.84V6.84797C2.368 6.33598 2.15467 5.88798 1.728 5.50397C1.344 5.07731 0.960001 4.77864 0.576001 4.60798L1.3113e-06 4.35197C2.048 4.22397 4.01067 3.75464 5.888 2.94397C7.808 2.13331 9.30134 1.15197 10.368 -2.67029e-05V35.84C10.368 36.5226 11.1573 36.864 12.736 36.864V37.376H1.3113e-06V36.864ZM20.469 22.72C21.5783 21.0986 23.0717 19.8186 24.949 18.88C21.621 15.6373 19.9357 12.3946 19.893 9.15198C19.893 9.10931 19.893 9.04531 19.893 8.95997C19.893 6.39998 20.8317 4.26664 22.709 2.55997C24.629 0.853307 26.9757 -2.67029e-05 29.749 -2.67029e-05C32.6077 -2.67029e-05 34.869 0.831974 36.533 2.49598C38.197 4.11731 39.029 6.01597 39.029 8.19197C39.029 9.81331 38.5383 11.328 37.557 12.736C36.5757 14.144 35.2103 15.2533 33.461 16.064C36.1917 18.24 38.069 20.0533 39.093 21.504C40.1597 22.9546 40.693 24.9386 40.693 27.456C40.693 30.0586 39.7543 32.3626 37.877 34.368C35.9997 36.3733 33.2903 37.376 29.749 37.376C26.4637 37.376 23.797 36.416 21.749 34.496C19.7437 32.576 18.741 30.3786 18.741 27.904C18.741 26.0693 19.317 24.3413 20.469 22.72ZM22.453 27.072C22.5383 29.8026 23.2423 32.128 24.565 34.048C25.9303 35.968 27.6583 36.928 29.749 36.928C31.4983 36.928 32.8423 36.544 33.781 35.776C34.7197 35.008 35.189 34.0266 35.189 32.832C35.189 31.168 34.357 29.248 32.693 27.072C31.029 24.896 28.5117 22.2293 25.141 19.072C24.2877 19.84 23.6263 20.9493 23.157 22.4C22.6877 23.808 22.453 25.2373 22.453 26.688C22.453 26.816 22.453 26.944 22.453 27.072ZM24.693 5.31197C24.693 5.95197 24.757 6.57064 24.885 7.16797C25.013 7.72264 25.2477 8.29864 25.589 8.89598C25.973 9.45064 26.293 9.91998 26.549 10.304C26.8477 10.688 27.317 11.1786 27.957 11.776C28.6397 12.3733 29.1517 12.8 29.493 13.056C29.8343 13.312 30.4317 13.7813 31.285 14.464C32.181 15.1466 32.7997 15.616 33.141 15.872C35.189 13.824 36.213 11.2853 36.213 8.25598C36.213 6.07997 35.637 4.24531 34.485 2.75198C33.3757 1.21598 31.797 0.447975 29.749 0.447975C28.213 0.447975 26.9757 0.917309 26.037 1.85598C25.141 2.75197 24.693 3.90397 24.693 5.31197ZM56.955 37.376V36.864C58.5337 36.864 59.323 36.5226 59.323 35.84V0.639977C59.0243 0.554642 58.3417 0.511974 57.275 0.511974V-2.67029e-05H70.075V0.511974C69.2643 0.511974 68.731 0.575975 68.475 0.703976C68.219 0.789308 68.091 0.938641 68.091 1.15197C68.091 1.19464 68.091 1.25864 68.091 1.34398L74.555 22.848L81.083 0.959976C80.9123 0.661308 80.2937 0.511974 79.227 0.511974V-2.67029e-05H91.579V0.511974C90.0003 0.511974 89.211 0.853308 89.211 1.53598V35.84C89.211 36.5226 90.0003 36.864 91.579 36.864V37.376H78.843V36.864C80.4217 36.864 81.211 36.5226 81.211 35.84V3.58398L70.971 37.376L60.219 1.85598L60.155 35.84C60.155 36.5226 60.9443 36.864 62.523 36.864V37.376H56.955ZM92.8625 36.864C93.8865 36.864 94.5478 36.8213 94.8465 36.736C95.1878 36.6506 95.4438 36.416 95.6145 36.032L106.367 -2.67029e-05H107.327L118.079 35.904C118.207 36.3733 118.463 36.6506 118.847 36.736C119.231 36.8213 119.913 36.864 120.895 36.864V37.376H108.159V36.864C109.439 36.864 110.1 36.6933 110.143 36.352L108.223 29.696H98.4305L96.5105 36.096C96.5105 36.1386 96.5105 36.1813 96.5105 36.224C96.5105 36.48 96.6172 36.6506 96.8305 36.736C97.0865 36.8213 97.6412 36.864 98.4945 36.864V37.376H92.8625V36.864ZM108.031 29.184L103.359 13.248L98.5585 29.184H108.031ZM114.785 0.511974V-2.67029e-05H127.457V0.511974C126.177 0.511974 125.516 0.682641 125.473 1.02398C125.473 1.06664 125.494 1.13064 125.537 1.21598L132.001 18.944L137.761 1.27998C137.804 1.15197 137.825 1.06664 137.825 1.02398C137.825 0.810642 137.697 0.682643 137.441 0.639977C137.228 0.554642 136.673 0.511974 135.777 0.511974V-2.67029e-05H141.409V0.511974C140.3 0.511974 139.574 0.554642 139.233 0.639977C138.934 0.725309 138.721 0.959975 138.593 1.34398L132.513 20.288V35.84C132.513 36.5226 133.302 36.864 134.881 36.864V37.376H122.145V36.864C123.724 36.864 124.513 36.5226 124.513 35.84V20.096L117.665 1.53598C117.409 0.853308 116.449 0.511974 114.785 0.511974ZM51.8003 69.856C58.1576 65.7173 61.3363 61.792 61.3363 58.08C61.3363 56.416 60.7603 55.072 59.6083 54.048C58.4989 52.9813 57.0269 52.448 55.1923 52.448H55.1283C53.7203 52.448 52.4403 52.7893 51.2883 53.472C50.1789 54.1546 49.6243 54.944 49.6243 55.84C49.6243 56.5653 50.1576 57.3973 51.2243 58.336C52.3336 59.2746 52.9096 60.1493 52.9523 60.96C52.9523 61.0026 52.9523 61.0666 52.9523 61.152C52.9523 62.1333 52.5896 62.944 51.8643 63.584C51.1389 64.1813 50.2216 64.48 49.1123 64.48C47.8749 64.48 46.9149 64.1386 46.2323 63.456C45.5496 62.7306 45.2083 61.728 45.2083 60.448C45.2083 58.4426 46.1469 56.544 48.0243 54.752C49.9016 52.9173 52.2696 52 55.1283 52H55.1923C58.2643 52 60.7603 52.896 62.6803 54.688C64.6429 56.4373 65.6243 59.232 65.6243 63.072C65.6243 64.0106 65.4749 64.992 65.1763 66.016C64.8776 67.04 64.3229 68.2133 63.5123 69.536C62.7443 70.816 61.5069 72.0533 59.8003 73.248C58.1363 74.4426 56.0883 75.424 53.6563 76.192C48.5789 77.984 45.8696 81.1413 45.5283 85.664C45.9549 84.3413 46.7016 83.2106 47.7683 82.272C48.8776 81.3333 50.2643 80.864 51.9283 80.864C53.0376 80.864 54.6376 81.2906 56.7283 82.144C58.8616 82.9973 60.3763 83.424 61.2723 83.424C63.2349 83.424 64.7283 81.9733 65.7523 79.072V79.648C65.7523 80.032 65.7309 80.4586 65.6883 80.928C65.6883 81.3973 65.6243 81.952 65.4963 82.592C65.4109 83.232 65.2829 83.8506 65.1123 84.448C64.9416 85.0453 64.6856 85.664 64.3443 86.304C64.0029 86.9013 63.5976 87.4346 63.1283 87.904C62.7016 88.3306 62.1256 88.6933 61.4003 88.992C60.7176 89.2906 59.9496 89.44 59.0963 89.44C57.6456 89.44 56.3443 89.0133 55.1923 88.16C54.0403 87.3066 52.9736 86.4533 51.9923 85.6C51.0536 84.7466 50.1149 84.32 49.1763 84.32C48.2376 84.32 47.4483 84.7466 46.8083 85.6C46.2109 86.4106 45.8483 87.2426 45.7203 88.096L45.5283 89.376C44.5896 87.1573 44.1203 84.896 44.1203 82.592C44.1203 77.3866 46.6803 73.1413 51.8003 69.856ZM78.3408 88.608C78.7674 88.7786 79.0874 88.864 79.3008 88.864C79.6421 88.864 79.9834 88.7573 80.3248 88.544C80.6661 88.288 80.9861 87.8613 81.2848 87.264C81.5408 86.7946 81.7541 86.1546 81.9248 85.344C82.1381 84.4906 82.3088 83.4026 82.4368 82.08C82.6074 80.7146 82.7354 79.1146 82.8208 77.28C82.9061 75.4026 82.9488 73.2053 82.9488 70.688C82.9488 69.7493 82.9274 68.7466 82.8848 67.68C82.8848 66.5706 82.8634 65.3973 82.8208 64.16L82.8848 67.424C82.8848 67.2106 82.8208 67.0613 82.6928 66.976C82.6074 66.8906 82.4581 66.976 82.2448 67.232L76.8048 74.912C76.2074 75.7653 75.9088 76.768 75.9088 77.92L75.7808 75.104C75.8234 77.6213 75.9301 79.712 76.1008 81.376C76.2714 83.04 76.4634 84.384 76.6768 85.408C76.9328 86.432 77.1888 87.2 77.4448 87.712C77.7434 88.1813 78.0421 88.48 78.3408 88.608ZM79.3008 52.512C78.8741 52.512 78.4474 52.6613 78.0208 52.96C77.5941 53.2586 77.2101 54.0266 76.8688 55.264C76.5274 56.4586 76.2501 58.272 76.0368 60.704C75.8234 63.136 75.7168 66.464 75.7168 70.688V74.208C75.8874 74.464 76.0794 74.4213 76.2928 74.08L81.7328 66.464C82.2448 65.696 82.6074 64.8213 82.8208 63.84C82.7354 62.2186 82.6288 60.7893 82.5008 59.552C82.3728 58.272 82.2021 57.184 81.9888 56.288C81.7754 55.392 81.5621 54.7093 81.3488 54.24C81.1781 53.728 80.9861 53.344 80.7728 53.088C80.5594 52.832 80.3248 52.6826 80.0688 52.64C79.8554 52.5546 79.5994 52.512 79.3008 52.512ZM79.3008 52C80.9221 52 82.3941 52.384 83.7168 53.152C85.0821 53.8773 86.2554 55.008 87.2368 56.544C88.2181 58.08 88.9861 60.0213 89.5408 62.368C90.0954 64.7146 90.3728 67.488 90.3728 70.688C90.3728 73.8026 90.0741 76.5333 89.4768 78.88C88.8794 81.2266 88.0688 83.1893 87.0448 84.768C86.0634 86.304 84.8901 87.456 83.5248 88.224C82.2021 88.992 80.7941 89.376 79.3008 89.376C77.7648 89.376 76.3141 88.992 74.9488 88.224C73.6261 87.456 72.4528 86.304 71.4288 84.768C70.4474 83.232 69.6581 81.2906 69.0608 78.944C68.5061 76.5973 68.2288 73.8453 68.2288 70.688C68.2288 67.488 68.4848 64.7146 68.9968 62.368C69.5514 60.0213 70.3194 58.08 71.3008 56.544C72.2821 55.008 73.4341 53.8773 74.7568 53.152C76.1221 52.384 77.6368 52 79.3008 52ZM82.8848 67.424V67.488V67.424ZM100.708 69.856C107.065 65.7173 110.244 61.792 110.244 58.08C110.244 56.416 109.668 55.072 108.516 54.048C107.406 52.9813 105.934 52.448 104.1 52.448H104.036C102.628 52.448 101.348 52.7893 100.196 53.472C99.0864 54.1546 98.5318 54.944 98.5318 55.84C98.5318 56.5653 99.0651 57.3973 100.132 58.336C101.241 59.2746 101.817 60.1493 101.86 60.96C101.86 61.0026 101.86 61.0666 101.86 61.152C101.86 62.1333 101.497 62.944 100.772 63.584C100.046 64.1813 99.1291 64.48 98.0198 64.48C96.7824 64.48 95.8224 64.1386 95.1398 63.456C94.4571 62.7306 94.1158 61.728 94.1158 60.448C94.1158 58.4426 95.0544 56.544 96.9318 54.752C98.8091 52.9173 101.177 52 104.036 52H104.1C107.172 52 109.668 52.896 111.588 54.688C113.55 56.4373 114.532 59.232 114.532 63.072C114.532 64.0106 114.382 64.992 114.084 66.016C113.785 67.04 113.23 68.2133 112.42 69.536C111.652 70.816 110.414 72.0533 108.708 73.248C107.044 74.4426 104.996 75.424 102.564 76.192C97.4864 77.984 94.7771 81.1413 94.4358 85.664C94.8624 84.3413 95.6091 83.2106 96.6758 82.272C97.7851 81.3333 99.1718 80.864 100.836 80.864C101.945 80.864 103.545 81.2906 105.636 82.144C107.769 82.9973 109.284 83.424 110.18 83.424C112.142 83.424 113.636 81.9733 114.66 79.072V79.648C114.66 80.032 114.638 80.4586 114.596 80.928C114.596 81.3973 114.532 81.952 114.404 82.592C114.318 83.232 114.19 83.8506 114.02 84.448C113.849 85.0453 113.593 85.664 113.252 86.304C112.91 86.9013 112.505 87.4346 112.036 87.904C111.609 88.3306 111.033 88.6933 110.308 88.992C109.625 89.2906 108.857 89.44 108.004 89.44C106.553 89.44 105.252 89.0133 104.1 88.16C102.948 87.3066 101.881 86.4533 100.9 85.6C99.9611 84.7466 99.0224 84.32 98.0838 84.32C97.1451 84.32 96.3558 84.7466 95.7158 85.6C95.1184 86.4106 94.7558 87.2426 94.6278 88.096L94.4358 89.376C93.4971 87.1573 93.0278 84.896 93.0278 82.592C93.0278 77.3866 95.5878 73.1413 100.708 69.856ZM117.328 71.648C117.328 64.864 118.459 59.8933 120.72 56.736C122.982 53.5786 125.776 52 129.104 52C131.75 52 133.883 52.832 135.504 54.496C137.126 56.1173 137.936 57.9306 137.936 59.936C137.936 61.2586 137.574 62.3466 136.848 63.2C136.166 64.0106 135.334 64.416 134.352 64.416C134.31 64.416 134.267 64.416 134.224 64.416C133.286 64.3733 132.518 64.0533 131.92 63.456C131.366 62.8586 131.088 62.0693 131.088 61.088C131.088 61.0453 131.088 60.9813 131.088 60.896C131.174 59.872 131.686 58.9973 132.624 58.272C133.563 57.504 134.032 56.7786 134.032 56.096C134.032 54.9866 133.542 54.112 132.56 53.472C131.579 52.7893 130.512 52.448 129.36 52.448C129.275 52.448 129.19 52.448 129.104 52.448C128.379 52.448 127.739 52.6613 127.184 53.088C126.672 53.5146 126.246 54.1546 125.904 55.008C125.606 55.8186 125.35 56.672 125.136 57.568C124.923 58.4213 124.774 59.488 124.688 60.768C124.603 62.0053 124.539 63.0933 124.496 64.032C124.496 64.928 124.475 66.0373 124.432 67.36C124.432 68.64 124.432 69.5573 124.432 70.112C125.712 67.5946 127.675 66.336 130.32 66.336C132.582 66.336 134.544 67.296 136.208 69.216C137.915 71.0933 138.768 73.6746 138.768 76.96C138.768 77.0453 138.768 77.1306 138.768 77.216C138.768 80.672 137.808 83.5733 135.888 85.92C133.968 88.224 131.536 89.376 128.592 89.376C128.55 89.376 128.507 89.376 128.464 89.376C121.04 89.248 117.328 83.3386 117.328 71.648ZM124.432 73.44C124.432 75.2746 124.432 76.64 124.432 77.536C124.475 78.432 124.518 79.6053 124.56 81.056C124.646 82.5066 124.752 83.5946 124.88 84.32C125.051 85.0453 125.264 85.8133 125.52 86.624C125.819 87.4346 126.182 88.0106 126.608 88.352C127.078 88.6933 127.632 88.864 128.272 88.864C129.254 88.864 130.064 88.288 130.704 87.136C131.344 85.9413 131.75 84.5973 131.92 83.104C132.134 81.6106 132.24 79.968 132.24 78.176C132.24 75.4026 131.92 72.9493 131.28 70.816C130.64 68.64 129.638 67.552 128.272 67.552C127.12 67.552 126.182 68.1493 125.456 69.344C124.774 70.5386 124.432 71.904 124.432 73.44Z" fill="#D20000"/>
</svg>
