<svg width="239" height="125" viewBox="0 0 239 125" fill="none" xmlns="http://www.w3.org/2000/svg">
<path d="M19.3594 52.752V52.08C21.4314 52.08 22.4674 51.632 22.4674 50.736V5.71195C22.4674 4.81595 21.4314 4.36795 19.3594 4.36795V3.69595H32.9674C33.6954 3.69595 34.2834 3.72395 34.7314 3.77995C35.2354 3.77995 36.2434 3.86395 37.7554 4.03195C39.3234 4.19995 40.6394 4.53595 41.7034 5.03995C42.7674 5.48795 43.9154 6.10395 45.1474 6.88795C46.4354 7.67195 47.4154 8.76395 48.0874 10.164C48.7594 11.564 49.0954 13.188 49.0954 15.036C49.0954 20.468 45.9034 24.164 39.5194 26.124C40.8634 26.236 42.1794 26.516 43.4674 26.964C44.7554 27.412 46.1274 28.112 47.5834 29.064C49.0394 29.96 50.1314 31.248 50.8594 32.928C51.6434 34.608 52.0354 36.484 52.0354 38.556C52.0354 38.836 52.0354 39.116 52.0354 39.396C51.6434 48.3 45.2874 52.752 32.9674 52.752H19.3594ZM33.8074 52.08C35.8794 52.08 37.7274 51.1 39.3514 49.14C41.0314 47.124 41.8714 43.484 41.8714 38.22C41.8714 36.148 41.6474 34.384 41.1994 32.928C40.7514 31.416 40.2474 30.324 39.6874 29.652C39.1274 28.924 38.3714 28.364 37.4194 27.972C36.5234 27.58 35.8234 27.384 35.3194 27.384C34.8154 27.328 34.1714 27.3 33.3874 27.3H32.9674V50.82C32.9674 51.66 33.2474 52.08 33.8074 52.08ZM32.9674 4.87195V26.544C33.1914 26.544 33.4714 26.516 33.8074 26.46C34.1434 26.404 34.7594 26.152 35.6554 25.704C36.5514 25.256 37.3354 24.696 38.0074 24.024C38.7354 23.296 39.3794 22.148 39.9394 20.58C40.4994 19.012 40.8074 17.192 40.8634 15.12C40.8634 13.384 40.7514 11.872 40.5274 10.584C40.3034 9.23995 39.9394 8.20395 39.4354 7.47595C38.9874 6.69195 38.5394 6.07595 38.0914 5.62795C37.6994 5.17995 37.1674 4.87195 36.4954 4.70395C35.8234 4.53595 35.3474 4.45195 35.0674 4.45195C34.8434 4.39595 34.4794 4.36795 33.9754 4.36795C33.6954 4.36795 33.4714 4.42395 33.3034 4.53595C33.1354 4.64795 33.0234 4.75995 32.9674 4.87195ZM54.9413 42.504C54.9413 38.808 56.2013 36.036 58.7213 34.188C61.2973 32.34 64.7693 31.388 69.1373 31.332C70.7053 31.332 72.0493 31.192 73.1693 30.912C76.3053 29.96 77.8733 27.664 77.8733 24.024C77.8733 21.952 77.1453 20.244 75.6893 18.9C74.2333 17.5 72.3013 16.8 69.8933 16.8C67.9333 16.8 66.3373 17.08 65.1053 17.64C63.8733 18.2 63.2013 18.9 63.0893 19.74C63.0893 19.908 63.0893 20.048 63.0893 20.16C63.0893 20.328 63.0613 20.44 63.0053 20.496C63.0053 20.496 63.0053 20.524 63.0053 20.58C63.0053 20.636 63.0893 20.776 63.2573 21C63.4253 21.224 63.5373 21.364 63.5933 21.42C63.6493 21.476 63.8173 21.644 64.0973 21.924C64.4333 22.204 64.6573 22.4 64.7693 22.512C65.5533 23.296 65.9453 24.276 65.9453 25.452C65.9453 25.676 65.9453 25.9 65.9453 26.124C65.8893 27.468 65.4133 28.504 64.5173 29.232C63.6773 29.904 62.7253 30.24 61.6613 30.24C61.4373 30.24 61.2133 30.212 60.9893 30.156C59.7573 30.044 58.7773 29.54 58.0493 28.644C57.3213 27.748 56.9573 26.628 56.9573 25.284C56.9573 25.172 56.9573 25.06 56.9573 24.948C57.0133 22.204 58.3293 19.992 60.9053 18.312C63.4813 16.632 66.3933 15.792 69.6413 15.792C73.5053 15.848 76.8093 17.136 79.5533 19.656C82.3533 22.176 83.7533 26.348 83.7533 32.172V48.552C83.7533 49.672 83.9493 50.428 84.3413 50.82C84.7893 51.212 85.4893 51.408 86.4413 51.408V52.08L77.7053 52.752C77.5933 52.752 77.4533 52.752 77.2853 52.752C74.9893 52.752 73.6733 51.8 73.3373 49.896C71.6013 51.856 69.2213 52.836 66.1973 52.836C66.0853 52.836 66.0013 52.836 65.9453 52.836C63.0893 52.836 60.5413 51.94 58.3013 50.148C56.0613 48.3 54.9413 45.836 54.9413 42.756C54.9413 42.644 54.9413 42.56 54.9413 42.504ZM65.5253 48.72C66.5333 50.344 67.7373 51.156 69.1373 51.156C69.1933 51.156 69.2773 51.156 69.3893 51.156C70.3413 51.1 71.2093 50.764 71.9933 50.148C72.7773 49.476 73.1693 48.72 73.1693 47.88V32.256C73.1693 31.976 72.8893 31.836 72.3293 31.836C72.1613 31.836 71.9653 31.836 71.7413 31.836C68.7733 31.892 66.7013 32.732 65.5253 34.356C64.3493 35.98 63.7613 38.472 63.7613 41.832C63.8173 44.744 64.4053 47.04 65.5253 48.72ZM88.9645 52.08C90.8685 52.08 91.8205 51.632 91.8205 50.736V5.96395C91.8205 5.01195 90.8685 4.53595 88.9645 4.53595V3.86395C94.1725 3.86395 98.6245 2.57595 102.321 -4.86374e-05V50.736C102.321 51.632 103.245 52.08 105.093 52.08V52.752H88.9645V52.08ZM107.648 42.504C107.648 38.808 108.908 36.036 111.428 34.188C114.004 32.34 117.476 31.388 121.844 31.332C123.412 31.332 124.756 31.192 125.876 30.912C129.012 29.96 130.58 27.664 130.58 24.024C130.58 21.952 129.852 20.244 128.396 18.9C126.94 17.5 125.008 16.8 122.6 16.8C120.64 16.8 119.044 17.08 117.812 17.64C116.58 18.2 115.908 18.9 115.796 19.74C115.796 19.908 115.796 20.048 115.796 20.16C115.796 20.328 115.768 20.44 115.712 20.496C115.712 20.496 115.712 20.524 115.712 20.58C115.712 20.636 115.796 20.776 115.964 21C116.132 21.224 116.244 21.364 116.3 21.42C116.356 21.476 116.524 21.644 116.804 21.924C117.14 22.204 117.364 22.4 117.476 22.512C118.26 23.296 118.652 24.276 118.652 25.452C118.652 25.676 118.652 25.9 118.652 26.124C118.596 27.468 118.12 28.504 117.224 29.232C116.384 29.904 115.432 30.24 114.368 30.24C114.144 30.24 113.92 30.212 113.696 30.156C112.464 30.044 111.484 29.54 110.756 28.644C110.028 27.748 109.664 26.628 109.664 25.284C109.664 25.172 109.664 25.06 109.664 24.948C109.72 22.204 111.036 19.992 113.612 18.312C116.188 16.632 119.1 15.792 122.348 15.792C126.212 15.848 129.516 17.136 132.26 19.656C135.06 22.176 136.46 26.348 136.46 32.172V48.552C136.46 49.672 136.656 50.428 137.048 50.82C137.496 51.212 138.196 51.408 139.148 51.408V52.08L130.412 52.752C130.3 52.752 130.16 52.752 129.992 52.752C127.696 52.752 126.38 51.8 126.044 49.896C124.308 51.856 121.928 52.836 118.904 52.836C118.792 52.836 118.708 52.836 118.652 52.836C115.796 52.836 113.248 51.94 111.008 50.148C108.768 48.3 107.648 45.836 107.648 42.756C107.648 42.644 107.648 42.56 107.648 42.504ZM118.232 48.72C119.24 50.344 120.444 51.156 121.844 51.156C121.9 51.156 121.984 51.156 122.096 51.156C123.048 51.1 123.916 50.764 124.7 50.148C125.484 49.476 125.876 48.72 125.876 47.88V32.256C125.876 31.976 125.596 31.836 125.036 31.836C124.868 31.836 124.672 31.836 124.448 31.836C121.48 31.892 119.408 32.732 118.232 34.356C117.056 35.98 116.468 38.472 116.468 41.832C116.524 44.744 117.112 47.04 118.232 48.72ZM138.143 75.684C138.479 75.46 139.039 74.928 139.823 74.088C140.607 73.248 141.279 72.24 141.839 71.064C142.455 69.944 143.015 68.32 143.519 66.192C144.023 64.064 144.275 61.684 144.275 59.052V22.092C144.275 21.14 143.323 20.664 141.419 20.664V19.992C146.739 19.992 151.191 18.704 154.775 16.128V61.32C154.775 62.384 154.691 63.42 154.523 64.428C154.411 65.436 153.991 66.696 153.263 68.208C152.591 69.72 151.667 71.008 150.491 72.072C149.371 73.136 147.663 74.06 145.367 74.844C143.127 75.628 140.495 76.02 137.471 76.02C137.639 75.964 137.863 75.852 138.143 75.684ZM145.955 6.29995C146.851 5.40395 147.943 4.95595 149.231 4.95595C150.463 4.95595 151.527 5.40395 152.423 6.29995C153.319 7.19595 153.767 8.25995 153.767 9.49195C153.767 10.78 153.319 11.9 152.423 12.852C151.527 13.748 150.463 14.196 149.231 14.196C147.943 14.196 146.823 13.748 145.871 12.852C144.975 11.9 144.527 10.78 144.527 9.49195C144.527 8.25995 145.003 7.19595 145.955 6.29995ZM161.98 50.736V22.092C161.98 21.14 161.028 20.664 159.124 20.664V19.992C164.388 19.992 168.84 18.704 172.48 16.128V50.736C172.48 51.632 173.404 52.08 175.252 52.08V52.752H159.124V52.08C161.028 52.08 161.98 51.632 161.98 50.736ZM163.912 6.13195C164.808 5.23595 165.9 4.78795 167.188 4.78795C168.42 4.78795 169.484 5.26395 170.38 6.21595C171.276 7.11195 171.724 8.17595 171.724 9.40795C171.724 10.696 171.276 11.788 170.38 12.684C169.484 13.58 168.42 14.028 167.188 14.028C165.9 14.028 164.78 13.58 163.828 12.684C162.932 11.788 162.484 10.696 162.484 9.40795C162.484 8.11995 162.96 7.02795 163.912 6.13195ZM195.907 41.748C195.907 38.612 196.803 35.896 198.595 33.6C200.443 31.248 203.075 28.784 206.491 26.208C202.515 21.84 200.527 17.752 200.527 13.944C200.527 10.696 201.759 8.17595 204.223 6.38395C206.743 4.59195 209.515 3.69595 212.539 3.69595C215.507 3.69595 218.083 4.81595 220.267 7.05595C222.451 9.23995 223.543 12.18 223.543 15.876C223.543 20.58 220.771 25.76 215.227 31.416C215.899 32.2 216.431 32.788 216.823 33.18L222.871 39.732C224.159 36.82 224.803 34.132 224.803 31.668C224.803 31.388 224.747 30.492 224.635 28.98C224.579 27.468 223.571 26.712 221.611 26.712V25.788H237.487V26.712C236.367 26.712 235.247 27.44 234.127 28.896C233.007 30.352 231.607 32.592 229.927 35.616C228.303 38.64 226.875 40.992 225.643 42.672C231.803 48.944 235.947 52.08 238.075 52.08V52.752H220.855V52.08C223.543 52.08 224.887 51.1 224.887 49.14C224.887 48.132 224.495 46.816 223.711 45.192C219.399 50.176 214.527 52.668 209.095 52.668C208.143 52.668 207.079 52.556 205.903 52.332C204.783 52.108 203.383 51.688 201.703 51.072C200.023 50.4 198.623 49.28 197.503 47.712C196.439 46.088 195.907 44.1 195.907 41.748ZM202.459 47.796C202.459 50.652 204.643 52.08 209.011 52.08C209.067 52.08 209.151 52.08 209.263 52.08C211.671 52.08 213.967 51.156 216.151 49.308C218.335 47.404 220.211 44.968 221.779 42C220.155 39.816 218.111 37.52 215.647 35.112C215.143 34.664 214.443 33.992 213.547 33.096C213.099 33.544 212.343 34.272 211.279 35.28C210.215 36.288 209.431 37.044 208.927 37.548C208.423 37.996 207.751 38.668 206.911 39.564C206.071 40.404 205.455 41.132 205.063 41.748C204.671 42.308 204.223 42.952 203.719 43.68C203.271 44.408 202.935 45.108 202.711 45.78C202.543 46.452 202.459 47.124 202.459 47.796ZM209.515 23.94C212.595 21.588 214.947 19.432 216.571 17.472C218.195 15.512 219.007 13.272 219.007 10.752C219.007 8.95995 218.503 7.41995 217.495 6.13195C216.487 4.84395 214.947 4.19995 212.875 4.19995C211.139 4.19995 209.599 4.89995 208.255 6.29995C206.967 7.69995 206.323 9.93995 206.323 13.02C206.323 16.828 207.387 20.468 209.515 23.94ZM3.72157e-06 111.816C3.72157e-06 109.576 0.644004 107.728 1.932 106.272C3.276 104.816 4.844 104.088 6.636 104.088C8.26 104.088 9.548 104.62 10.5 105.684C11.452 106.692 11.928 107.896 11.928 109.296C11.928 109.408 11.928 109.492 11.928 109.548C11.872 111.284 11.284 112.544 10.164 113.328C9.1 114.056 8.064 114.42 7.056 114.42C6.944 114.42 6.86 114.42 6.804 114.42C6.468 114.42 6.132 114.392 5.796 114.336C5.516 114.392 5.18 114.448 4.788 114.504C4.452 114.504 4.144 114.728 3.864 115.176C3.584 115.568 3.444 116.016 3.444 116.52C3.444 116.856 3.5 117.248 3.612 117.696C3.948 119.432 5.208 120.944 7.392 122.232C9.576 123.464 11.956 124.08 14.532 124.08C17.276 124.08 19.46 123.436 21.084 122.148C22.708 120.804 23.52 119.264 23.52 117.528C23.52 113.272 20.048 108.736 13.104 103.92C8.68 100.84 5.628 98.04 3.948 95.52C2.268 93 1.428 90.396 1.428 87.708C1.428 87.652 1.428 87.568 1.428 87.456C1.484 83.872 2.94 81.016 5.796 78.888C8.652 76.76 11.872 75.6959 15.456 75.6959C19.096 75.6959 22.148 76.7879 24.612 78.972C27.132 81.1 28.392 83.452 28.392 86.028C28.392 87.54 27.916 88.772 26.964 89.724C26.012 90.62 24.864 91.068 23.52 91.068C22.064 91.068 20.888 90.676 19.992 89.892C19.096 89.108 18.648 88.1 18.648 86.868C18.648 86.756 18.648 86.672 18.648 86.616C18.648 85.664 18.872 84.852 19.32 84.18C19.824 83.452 20.356 82.92 20.916 82.584C21.476 82.248 21.868 81.884 22.092 81.4919C22.316 81.1 22.428 80.736 22.428 80.4C22.428 80.064 22.372 79.728 22.26 79.392C21.868 78.328 21.056 77.572 19.824 77.124C18.592 76.62 17.388 76.368 16.212 76.368C15.988 76.368 15.736 76.368 15.456 76.368C13.384 76.48 11.592 77.32 10.08 78.888C8.568 80.4 7.812 82.1359 7.812 84.096C7.812 84.208 7.812 84.292 7.812 84.348C7.868 86.14 8.652 87.848 10.164 89.472C11.676 91.096 13.496 92.608 15.624 94.008C17.752 95.352 19.88 96.78 22.008 98.292C24.192 99.804 26.04 101.68 27.552 103.92C29.064 106.104 29.848 108.512 29.904 111.144C29.904 111.2 29.904 111.284 29.904 111.396C29.904 115.036 28.616 118.172 26.04 120.804C23.464 123.436 19.628 124.752 14.532 124.752C10.276 124.752 6.776 123.52 4.032 121.056C1.344 118.592 3.72157e-06 115.512 3.72157e-06 111.816ZM31.582 124.752V124.08C33.486 124.08 34.438 123.632 34.438 122.736V77.796C34.438 76.844 33.486 76.368 31.582 76.368V75.6959C37.014 75.6959 41.438 74.436 44.854 71.916V95.1C44.966 94.708 45.162 94.26 45.442 93.756C45.722 93.196 46.198 92.44 46.87 91.488C47.542 90.536 48.466 89.752 49.642 89.136C50.874 88.464 52.218 88.128 53.674 88.128C56.81 88.128 59.022 89.164 60.31 91.236C61.598 93.308 62.242 96.388 62.242 100.476V122.736C62.242 123.632 63.25 124.08 65.266 124.08V124.752H49.978V124.08C51.154 124.08 51.77 123.66 51.826 122.82V95.268C51.826 92.804 51.154 91.572 49.81 91.572C49.754 91.572 49.67 91.572 49.558 91.572C48.326 91.628 47.29 92.356 46.45 93.756C45.61 95.156 45.078 96.556 44.854 97.956V122.82C44.91 123.66 45.526 124.08 46.702 124.08V124.752H31.582ZM70.6762 122.736V94.092C70.6762 93.14 69.7242 92.664 67.8202 92.664V91.992C73.0842 91.992 77.5362 90.704 81.1762 88.128V122.736C81.1762 123.632 82.1002 124.08 83.9482 124.08V124.752H67.8202V124.08C69.7242 124.08 70.6762 123.632 70.6762 122.736ZM72.6082 78.132C73.5042 77.236 74.5962 76.7879 75.8842 76.7879C77.1162 76.7879 78.1802 77.264 79.0762 78.216C79.9722 79.1119 80.4202 80.1759 80.4202 81.408C80.4202 82.696 79.9722 83.788 79.0762 84.684C78.1802 85.58 77.1162 86.028 75.8842 86.028C74.5962 86.028 73.4762 85.58 72.5242 84.684C71.6282 83.788 71.1802 82.696 71.1802 81.408C71.1802 80.12 71.6562 79.028 72.6082 78.132ZM83.9836 88.8V88.128H100.532V88.8H99.4396C99.2156 88.8 98.9916 88.856 98.7676 88.968C98.5436 89.024 98.4316 89.108 98.4316 89.22C98.4316 89.22 98.4316 89.248 98.4316 89.304C98.4316 89.36 98.4596 89.416 98.5156 89.472C98.4596 89.584 98.4316 89.696 98.4316 89.808L103.304 107.868C103.696 109.436 103.892 110.556 103.892 111.228C103.892 111.34 103.892 111.48 103.892 111.648C103.892 113.328 103.248 115.008 101.96 116.688C100.672 118.312 100.028 119.712 100.028 120.888C100.028 120.944 100.028 121 100.028 121.056C100.308 122.96 101.288 123.912 102.968 123.912C105.04 123.912 106.468 122.512 107.252 119.712L115.4 89.388C115.4 89.332 115.4 89.304 115.4 89.304C115.4 89.08 115.26 88.94 114.98 88.884C114.7 88.828 114 88.8 112.88 88.8V88.128H119.18V88.8C118.396 88.8 117.864 88.828 117.584 88.884C117.304 88.884 117.052 88.968 116.828 89.136C116.604 89.248 116.464 89.472 116.408 89.808L108.344 119.88C107.28 123.128 105.488 124.752 102.968 124.752C99.1036 124.752 96.4716 122.316 95.0716 117.444L87.7636 90.228C87.5396 89.276 86.2796 88.8 83.9836 88.8ZM118.23 114.504C118.23 110.808 119.49 108.036 122.01 106.188C124.586 104.34 128.058 103.388 132.426 103.332C133.994 103.332 135.338 103.192 136.458 102.912C139.594 101.96 141.162 99.664 141.162 96.024C141.162 93.952 140.434 92.244 138.978 90.9C137.522 89.5 135.59 88.8 133.182 88.8C131.222 88.8 129.626 89.08 128.394 89.64C127.162 90.2 126.49 90.9 126.378 91.74C126.378 91.908 126.378 92.048 126.378 92.16C126.378 92.328 126.35 92.44 126.294 92.496C126.294 92.496 126.294 92.524 126.294 92.58C126.294 92.636 126.378 92.776 126.546 93C126.714 93.224 126.826 93.364 126.882 93.42C126.938 93.476 127.106 93.644 127.386 93.924C127.722 94.204 127.946 94.4 128.058 94.512C128.842 95.296 129.234 96.276 129.234 97.452C129.234 97.676 129.234 97.9 129.234 98.124C129.178 99.468 128.702 100.504 127.806 101.232C126.966 101.904 126.014 102.24 124.95 102.24C124.726 102.24 124.502 102.212 124.278 102.156C123.046 102.044 122.066 101.54 121.338 100.644C120.61 99.748 120.246 98.628 120.246 97.284C120.246 97.172 120.246 97.06 120.246 96.948C120.302 94.204 121.618 91.992 124.194 90.312C126.77 88.632 129.682 87.792 132.93 87.792C136.794 87.848 140.098 89.136 142.842 91.656C145.642 94.176 147.042 98.348 147.042 104.172V120.552C147.042 121.672 147.238 122.428 147.63 122.82C148.078 123.212 148.778 123.408 149.73 123.408V124.08L140.994 124.752C140.882 124.752 140.742 124.752 140.574 124.752C138.278 124.752 136.962 123.8 136.626 121.896C134.89 123.856 132.51 124.836 129.486 124.836C129.374 124.836 129.29 124.836 129.234 124.836C126.378 124.836 123.83 123.94 121.59 122.148C119.35 120.3 118.23 117.836 118.23 114.756C118.23 114.644 118.23 114.56 118.23 114.504ZM128.814 120.72C129.822 122.344 131.026 123.156 132.426 123.156C132.482 123.156 132.566 123.156 132.678 123.156C133.63 123.1 134.498 122.764 135.282 122.148C136.066 121.476 136.458 120.72 136.458 119.88V104.256C136.458 103.976 136.178 103.836 135.618 103.836C135.45 103.836 135.254 103.836 135.03 103.836C132.062 103.892 129.99 104.732 128.814 106.356C127.638 107.98 127.05 110.472 127.05 113.832C127.106 116.744 127.694 119.04 128.814 120.72ZM152.253 114.504C152.253 110.808 153.513 108.036 156.033 106.188C158.609 104.34 162.081 103.388 166.449 103.332C168.017 103.332 169.361 103.192 170.481 102.912C173.617 101.96 175.185 99.664 175.185 96.024C175.185 93.952 174.457 92.244 173.001 90.9C171.545 89.5 169.613 88.8 167.205 88.8C165.245 88.8 163.649 89.08 162.417 89.64C161.185 90.2 160.513 90.9 160.401 91.74C160.401 91.908 160.401 92.048 160.401 92.16C160.401 92.328 160.373 92.44 160.317 92.496C160.317 92.496 160.317 92.524 160.317 92.58C160.317 92.636 160.401 92.776 160.569 93C160.737 93.224 160.849 93.364 160.905 93.42C160.961 93.476 161.129 93.644 161.409 93.924C161.745 94.204 161.969 94.4 162.081 94.512C162.865 95.296 163.257 96.276 163.257 97.452C163.257 97.676 163.257 97.9 163.257 98.124C163.201 99.468 162.725 100.504 161.829 101.232C160.989 101.904 160.037 102.24 158.973 102.24C158.749 102.24 158.525 102.212 158.301 102.156C157.069 102.044 156.089 101.54 155.361 100.644C154.633 99.748 154.269 98.628 154.269 97.284C154.269 97.172 154.269 97.06 154.269 96.948C154.325 94.204 155.641 91.992 158.217 90.312C160.793 88.632 163.705 87.792 166.953 87.792C170.817 87.848 174.121 89.136 176.865 91.656C179.665 94.176 181.065 98.348 181.065 104.172V120.552C181.065 121.672 181.261 122.428 181.653 122.82C182.101 123.212 182.801 123.408 183.753 123.408V124.08L175.017 124.752C174.905 124.752 174.765 124.752 174.597 124.752C172.301 124.752 170.985 123.8 170.649 121.896C168.913 123.856 166.533 124.836 163.509 124.836C163.397 124.836 163.313 124.836 163.257 124.836C160.401 124.836 157.853 123.94 155.613 122.148C153.373 120.3 152.253 117.836 152.253 114.756C152.253 114.644 152.253 114.56 152.253 114.504ZM162.837 120.72C163.845 122.344 165.049 123.156 166.449 123.156C166.505 123.156 166.589 123.156 166.701 123.156C167.653 123.1 168.521 122.764 169.305 122.148C170.089 121.476 170.481 120.72 170.481 119.88V104.256C170.481 103.976 170.201 103.836 169.641 103.836C169.473 103.836 169.277 103.836 169.053 103.836C166.085 103.892 164.013 104.732 162.837 106.356C161.661 107.98 161.073 110.472 161.073 113.832C161.129 116.744 161.717 119.04 162.837 120.72ZM199.633 88.128V95.1C199.801 94.54 200.025 93.98 200.305 93.42C200.641 92.86 201.145 92.132 201.817 91.236C202.545 90.34 203.469 89.612 204.589 89.052C205.765 88.436 207.053 88.128 208.453 88.128C214.109 88.128 216.937 91.936 216.937 99.552V122.736C216.937 123.632 217.889 124.08 219.793 124.08V124.752H204.673V124.08C205.849 124.08 206.465 123.66 206.521 122.82V96.108C206.521 94.428 206.353 93.252 206.017 92.58C205.681 91.908 205.177 91.572 204.505 91.572C204.449 91.572 204.393 91.572 204.337 91.572C203.105 91.628 202.041 92.384 201.145 93.84C200.305 95.24 199.801 96.612 199.633 97.956V122.82C199.633 123.66 200.249 124.08 201.481 124.08V124.752H186.277V124.08C188.181 124.08 189.133 123.632 189.133 122.736V94.092C189.133 93.14 188.181 92.664 186.277 92.664V91.992C191.597 91.992 196.049 90.704 199.633 88.128ZM225.207 122.736V94.092C225.207 93.14 224.255 92.664 222.351 92.664V91.992C227.615 91.992 232.067 90.704 235.707 88.128V122.736C235.707 123.632 236.631 124.08 238.479 124.08V124.752H222.351V124.08C224.255 124.08 225.207 123.632 225.207 122.736ZM227.139 78.132C228.035 77.236 229.127 76.7879 230.415 76.7879C231.647 76.7879 232.711 77.264 233.607 78.216C234.503 79.1119 234.951 80.1759 234.951 81.408C234.951 82.696 234.503 83.788 233.607 84.684C232.711 85.58 231.647 86.028 230.415 86.028C229.127 86.028 228.007 85.58 227.055 84.684C226.159 83.788 225.711 82.696 225.711 81.408C225.711 80.12 226.187 79.028 227.139 78.132Z" fill="#D20000"/>
</svg>
