<svg width="238" height="32" viewBox="0 0 238 32" fill="none" xmlns="http://www.w3.org/2000/svg">
<path d="M2.84 4.95995C4.73334 2.87995 6.82667 1.83995 9.12 1.83995C10.9333 1.83995 12.36 2.41328 13.4 3.55995C14.4667 4.70662 15 6.02662 15 7.51995C15 8.63995 14.6667 9.58662 14 10.36C13.36 11.1333 12.6 11.52 11.72 11.52C11 11.52 10.4133 11.2666 9.96 10.7599C9.50667 10.2266 9.28 9.66662 9.28 9.07995C9.28 8.99995 9.28 8.93328 9.28 8.87995C9.30667 7.97328 9.58667 7.34662 10.12 6.99995C10.68 6.65328 11.16 6.47995 11.56 6.47995C11.72 6.47995 11.88 6.50662 12.04 6.55995C12.0933 6.58662 12.1467 6.59995 12.2 6.59995C12.3333 6.59995 12.44 6.50662 12.52 6.31995C12.6 6.10662 12.64 5.85328 12.64 5.55995C12.64 5.50662 12.64 5.43995 12.64 5.35995C12.6133 4.63995 12.36 3.94662 11.88 3.27995C11.4267 2.61328 10.8133 2.27995 10.04 2.27995C9.58667 2.27995 9.10667 2.47995 8.6 2.87995C8.12 3.27995 7.62667 3.87995 7.12 4.67995C6.64 5.47995 6.22667 6.63995 5.88 8.15995C5.56 9.67995 5.38667 11.4266 5.36 13.4C5.36 16.04 5.76 18.24 6.56 20C7.36 21.7333 8.56 22.6 10.16 22.6C10.2133 22.6 10.2533 22.6 10.28 22.6C11.1333 22.6 11.8533 22.36 12.44 21.88C13.0533 21.3733 13.68 20.68 14.32 19.8C14.4 19.64 14.4667 19.5333 14.52 19.48C13.16 23.1866 11.16 25.0933 8.52 25.2C6.36 25.2 4.4 24.16 2.64 22.08C0.880002 20 1.54972e-06 17.0933 1.54972e-06 13.36C1.54972e-06 9.83995 0.946668 7.03995 2.84 4.95995ZM15.5813 24.88C16.4879 24.88 16.9413 24.6666 16.9413 24.24V2.91995C16.9413 2.46662 16.4879 2.23995 15.5813 2.23995V1.91995C18.0613 1.91995 20.1813 1.30662 21.9413 0.0799503V24.24C21.9413 24.6666 22.3813 24.88 23.2613 24.88V25.2H15.5813V24.88ZM25.8381 24.24V10.6C25.8381 10.1466 25.3848 9.91995 24.4781 9.91995V9.59995C26.9848 9.59995 29.1048 8.98662 30.8381 7.75995V24.24C30.8381 24.6666 31.2781 24.88 32.1581 24.88V25.2H24.4781V24.88C25.3848 24.88 25.8381 24.6666 25.8381 24.24ZM26.7581 2.99995C27.1848 2.57328 27.7048 2.35995 28.3181 2.35995C28.9048 2.35995 29.4115 2.58662 29.8381 3.03995C30.2648 3.46662 30.4781 3.97328 30.4781 4.55995C30.4781 5.17328 30.2648 5.69328 29.8381 6.11995C29.4115 6.54662 28.9048 6.75995 28.3181 6.75995C27.7048 6.75995 27.1715 6.54662 26.7181 6.11995C26.2915 5.69328 26.0781 5.17328 26.0781 4.55995C26.0781 3.94662 26.3048 3.42662 26.7581 2.99995ZM35.455 10.1999C36.895 8.57328 38.935 7.75995 41.575 7.75995C43.0683 7.75995 44.2683 8.14662 45.175 8.91995C46.3483 9.93328 46.935 11.0933 46.935 12.4C46.935 13.2266 46.655 13.9066 46.095 14.44C45.5617 14.9733 44.9217 15.24 44.175 15.24C43.535 15.24 42.975 15.0133 42.495 14.56C42.0417 14.08 41.815 13.5333 41.815 12.92C41.815 12.3066 41.9883 11.8266 42.335 11.48C42.7083 11.1333 43.135 10.9466 43.615 10.92C43.6683 10.92 43.735 10.92 43.815 10.92C43.975 10.92 44.1617 10.9466 44.375 11C44.615 11.0266 44.7617 11.04 44.815 11.04C45.055 11.04 45.175 10.8666 45.175 10.52C45.175 10.4666 45.175 10.4 45.175 10.32C45.1483 9.83995 44.8683 9.38662 44.335 8.95995C43.8283 8.53328 43.215 8.30662 42.495 8.27995C42.4683 8.27995 42.4417 8.27995 42.415 8.27995C41.375 8.27995 40.375 8.95995 39.415 10.32C38.4817 11.68 38.0017 13.6933 37.975 16.36C37.975 16.4933 37.975 16.6133 37.975 16.72C37.975 18.56 38.375 20.08 39.175 21.28C39.975 22.48 41.0683 23.0933 42.455 23.12C42.615 23.0933 42.7483 23.08 42.855 23.08C42.9883 23.08 43.0817 23.0933 43.135 23.12C43.1883 23.1466 43.2417 23.16 43.295 23.16C43.4283 23.16 43.6017 23.1066 43.815 23C44.055 22.8933 44.2283 22.84 44.335 22.84C44.335 22.84 44.335 22.8533 44.335 22.88C44.3617 22.88 44.375 22.88 44.375 22.88C44.4817 22.88 44.6417 22.8 44.855 22.64C45.095 22.48 45.2417 22.3866 45.295 22.36C45.375 22.3333 45.5083 22.2266 45.695 22.04C45.9083 21.8533 46.0417 21.7333 46.095 21.68L46.735 21.04C45.455 23.8133 43.5483 25.2 41.015 25.2C38.7217 25.2 36.8417 24.36 35.375 22.68C33.9083 21 33.175 18.9333 33.175 16.48C33.2283 13.9466 33.9883 11.8533 35.455 10.1999ZM47.9359 24.88C48.8426 24.88 49.2959 24.6666 49.2959 24.24V2.83995C49.2959 2.38662 48.8426 2.15995 47.9359 2.15995V1.83995C50.3359 1.83995 52.4559 1.22662 54.2959 -5.10216e-05V14.68C54.9359 14.12 55.7226 13.4266 56.6559 12.6C57.8559 11.5333 58.5759 10.88 58.8159 10.64C59.0826 10.4 59.2159 10.2133 59.2159 10.08C59.2159 10.0533 59.2159 10.04 59.2159 10.04C59.2159 9.82662 58.8693 9.51995 58.1759 9.11995C57.5093 8.71995 57.1759 8.26662 57.1759 7.75995H63.8159V8.07995C62.9093 8.07995 62.2159 8.29328 61.7359 8.71995L58.3359 11.76L63.0559 24.16L63.1759 24.4C63.2293 24.5066 63.3226 24.6266 63.4559 24.76C63.6159 24.8666 63.7626 24.92 63.8959 24.92H64.2559V25.2H57.2959V24.92H57.6159C57.8026 24.92 57.8959 24.8133 57.8959 24.6C57.8959 24.4666 57.7626 24.08 57.4959 23.44C57.2559 22.8 56.8293 21.72 56.2159 20.2C55.6293 18.6533 55.0426 17.0933 54.4559 15.52L54.2959 15.48V24.2C54.2959 24.6533 54.5893 24.88 55.1759 24.88V25.2H47.9359V24.88ZM75.2844 7.71995C77.5777 6.67995 78.871 4.71995 79.1644 1.83995H80.2844V7.71995H83.0844V8.07995H80.2844V18.08C80.2844 20.3466 80.471 21.9866 80.8444 23C81.2177 23.9866 81.9644 24.72 83.0844 25.2C80.1777 25.2 78.151 24.7466 77.0044 23.84C75.8577 22.9066 75.2844 21.4 75.2844 19.32V7.71995ZM84.9431 9.91995C86.2765 8.47995 88.0098 7.75995 90.1431 7.75995C92.2498 7.75995 93.9698 8.49328 95.3031 9.95995C96.6365 11.4 97.3031 13.5866 97.3031 16.52C97.3031 19.1333 96.6098 21.24 95.2231 22.84C93.8631 24.4133 92.1698 25.2 90.1431 25.2C88.0631 25.2 86.3298 24.44 84.9431 22.92C83.5831 21.3733 82.9031 19.24 82.9031 16.52C82.9031 13.5866 83.5831 11.3866 84.9431 9.91995ZM87.9831 20.48C88.0898 21.5733 88.2098 22.4 88.3431 22.96C88.4765 23.52 88.6498 23.96 88.8631 24.28C89.1031 24.5733 89.3031 24.7466 89.4631 24.8C89.6498 24.8533 89.8765 24.88 90.1431 24.88C90.4098 24.88 90.6231 24.8533 90.7831 24.8C90.9431 24.7466 91.1298 24.5733 91.3431 24.28C91.5831 23.96 91.7698 23.52 91.9031 22.96C92.0365 22.4 92.1431 21.5733 92.2231 20.48C92.3298 19.3866 92.3831 18.0666 92.3831 16.52C92.3831 14.9733 92.3298 13.6533 92.2231 12.56C92.1431 11.44 92.0365 10.6 91.9031 10.04C91.7698 9.47995 91.5831 9.05328 91.3431 8.75995C91.1298 8.43995 90.9431 8.25328 90.7831 8.19995C90.6231 8.14662 90.4098 8.11995 90.1431 8.11995C89.8765 8.11995 89.6498 8.14662 89.4631 8.19995C89.3031 8.25328 89.1031 8.43995 88.8631 8.75995C88.6498 9.05328 88.4765 9.47995 88.3431 10.04C88.2098 10.6 88.0898 11.4266 87.9831 12.52C87.8765 13.64 87.8231 14.9733 87.8231 16.52C87.8231 18.0666 87.8765 19.3866 87.9831 20.48ZM108.948 9.91995C110.281 8.47995 112.014 7.75995 114.148 7.75995C116.254 7.75995 117.974 8.49328 119.308 9.95995C120.641 11.4 121.308 13.5866 121.308 16.52C121.308 19.1333 120.614 21.24 119.228 22.84C117.868 24.4133 116.174 25.2 114.148 25.2C112.068 25.2 110.334 24.44 108.948 22.92C107.588 21.3733 106.908 19.24 106.908 16.52C106.908 13.5866 107.588 11.3866 108.948 9.91995ZM111.988 20.48C112.094 21.5733 112.214 22.4 112.348 22.96C112.481 23.52 112.654 23.96 112.868 24.28C113.108 24.5733 113.308 24.7466 113.468 24.8C113.654 24.8533 113.881 24.88 114.148 24.88C114.414 24.88 114.628 24.8533 114.788 24.8C114.948 24.7466 115.134 24.5733 115.348 24.28C115.588 23.96 115.774 23.52 115.908 22.96C116.041 22.4 116.148 21.5733 116.228 20.48C116.334 19.3866 116.388 18.0666 116.388 16.52C116.388 14.9733 116.334 13.6533 116.228 12.56C116.148 11.44 116.041 10.6 115.908 10.04C115.774 9.47995 115.588 9.05328 115.348 8.75995C115.134 8.43995 114.948 8.25328 114.788 8.19995C114.628 8.14662 114.414 8.11995 114.148 8.11995C113.881 8.11995 113.654 8.14662 113.468 8.19995C113.308 8.25328 113.108 8.43995 112.868 8.75995C112.654 9.05328 112.481 9.47995 112.348 10.04C112.214 10.6 112.094 11.4266 111.988 12.52C111.881 13.64 111.828 14.9733 111.828 16.52C111.828 18.0666 111.881 19.3866 111.988 20.48ZM122.294 9.91995V9.59995C124.72 9.59995 126.84 8.98662 128.654 7.75995V10.96C129.054 10.08 129.694 9.31995 130.574 8.67995C131.454 8.03995 132.347 7.71995 133.254 7.71995C134.64 7.71995 135.734 8.45328 136.534 9.91995C137.334 11.3866 137.734 13.5066 137.734 16.28C137.734 16.3866 137.734 16.48 137.734 16.56C137.707 19.3333 137.04 21.48 135.734 23C134.454 24.4933 133.014 25.24 131.414 25.24C130.08 25.24 129.16 24.8266 128.654 24V30.48C128.654 30.9066 129.094 31.12 129.974 31.12V31.44H122.294V31.12C123.2 31.12 123.654 30.9066 123.654 30.48V10.6C123.654 10.1466 123.2 9.91995 122.294 9.91995ZM128.974 23.72C129.187 24.1733 129.614 24.4 130.254 24.4C130.654 24.4 131.04 24.2 131.414 23.8C131.787 23.4 132.12 22.6533 132.414 21.56C132.734 20.44 132.894 19.0533 132.894 17.4C132.894 17.16 132.894 16.92 132.894 16.68C132.894 15.1866 132.814 13.8666 132.654 12.72C132.494 11.5733 132.267 10.7466 131.974 10.24C131.68 9.70662 131.334 9.43995 130.934 9.43995C130.294 9.43995 129.747 9.77328 129.294 10.44C128.867 11.08 128.654 11.76 128.654 12.48V21.72C128.654 22.6266 128.76 23.2933 128.974 23.72ZM140.696 12.48C141.176 11.3333 141.789 10.4266 142.536 9.75995C143.309 9.09328 144.096 8.59995 144.896 8.27995C145.723 7.93328 146.509 7.75995 147.256 7.75995C149.363 7.75995 151.003 8.47995 152.176 9.91995C153.349 11.36 153.976 13.3333 154.056 15.84L144.696 15.88C144.696 17.96 145.069 19.6666 145.816 21C146.589 22.3333 147.763 23.0266 149.336 23.08C149.709 23.08 150.056 23.0533 150.376 23C150.723 22.92 150.989 22.8533 151.176 22.8C151.389 22.72 151.643 22.5733 151.936 22.36C152.229 22.1466 152.416 22.0133 152.496 21.96C152.576 21.88 152.749 21.7066 153.016 21.44C153.283 21.1466 153.429 20.9866 153.456 20.96C152.123 23.7866 150.203 25.2 147.696 25.2C145.403 25.2 143.536 24.3733 142.096 22.72C140.656 21.04 139.936 18.9333 139.936 16.4C139.936 14.96 140.189 13.6533 140.696 12.48ZM150.016 15.4C150.016 10.52 149.203 8.07995 147.576 8.07995C147.363 8.07995 147.149 8.11995 146.936 8.19995C146.749 8.25328 146.509 8.43995 146.216 8.75995C145.923 9.05328 145.669 9.45328 145.456 9.95995C145.243 10.44 145.056 11.16 144.896 12.12C144.763 13.0533 144.696 14.1466 144.696 15.4H150.016ZM161.408 7.75995V11.08C161.488 10.8133 161.595 10.5466 161.728 10.28C161.888 10.0133 162.128 9.66662 162.448 9.23995C162.795 8.81328 163.235 8.46662 163.768 8.19995C164.328 7.90662 164.942 7.75995 165.608 7.75995C168.302 7.75995 169.648 9.57328 169.648 13.2V24.24C169.648 24.6666 170.102 24.88 171.008 24.88V25.2H163.808V24.88C164.368 24.88 164.662 24.68 164.688 24.28V11.56C164.688 10.76 164.608 10.2 164.448 9.87995C164.288 9.55995 164.048 9.39995 163.728 9.39995C163.702 9.39995 163.675 9.39995 163.648 9.39995C163.062 9.42662 162.555 9.78662 162.128 10.4799C161.728 11.1466 161.488 11.8 161.408 12.44V24.28C161.408 24.68 161.702 24.88 162.288 24.88V25.2H155.048V24.88C155.955 24.88 156.408 24.6666 156.408 24.24V10.6C156.408 10.1466 155.955 9.91995 155.048 9.91995V9.59995C157.582 9.59995 159.702 8.98662 161.408 7.75995ZM181.045 9.91995V9.59995C183.392 9.59995 185.512 8.98662 187.405 7.75995V10.96C188.259 8.82662 189.592 7.75995 191.405 7.75995C193.485 7.75995 194.765 8.87995 195.245 11.12C195.405 10.7466 195.605 10.36 195.845 9.95995C196.085 9.53328 196.539 9.06662 197.205 8.55995C197.899 8.02662 198.659 7.75995 199.485 7.75995C200.952 7.75995 201.992 8.25328 202.605 9.23995C203.219 10.2266 203.525 11.6933 203.525 13.64V24.24C203.525 24.6666 203.965 24.88 204.845 24.88V25.2H197.685V24.88C198.245 24.88 198.539 24.68 198.565 24.28V11.56C198.565 10.1733 198.232 9.47995 197.565 9.47995C196.952 9.47995 196.445 9.83995 196.045 10.56C195.672 11.28 195.472 12.12 195.445 13.08V24.28C195.472 24.68 195.765 24.88 196.325 24.88V25.2H189.605V24.88C190.165 24.88 190.459 24.68 190.485 24.28V11.56C190.485 10.1466 190.152 9.43995 189.485 9.43995C188.925 9.43995 188.459 9.77328 188.085 10.44C187.712 11.08 187.485 11.7066 187.405 12.32V24.28C187.405 24.68 187.699 24.88 188.285 24.88V25.2H181.045V24.88C181.952 24.88 182.405 24.6666 182.405 24.24V10.6C182.405 10.1466 181.952 9.91995 181.045 9.91995ZM206.036 20.32C206.036 18.56 206.636 17.24 207.836 16.36C209.063 15.48 210.716 15.0266 212.796 15C213.543 15 214.183 14.9333 214.716 14.8C216.209 14.3466 216.956 13.2533 216.956 11.52C216.956 10.5333 216.609 9.71995 215.916 9.07995C215.223 8.41328 214.303 8.07995 213.156 8.07995C212.223 8.07995 211.463 8.21328 210.876 8.47995C210.289 8.74662 209.969 9.07995 209.916 9.47995C209.916 9.55995 209.916 9.62662 209.916 9.67995C209.916 9.75995 209.903 9.81328 209.876 9.83995C209.876 9.83995 209.876 9.85328 209.876 9.87995C209.876 9.90662 209.916 9.97328 209.996 10.08C210.076 10.1866 210.129 10.2533 210.156 10.28C210.183 10.3066 210.263 10.3866 210.396 10.52C210.556 10.6533 210.663 10.7466 210.716 10.8C211.089 11.1733 211.276 11.64 211.276 12.2C211.276 12.3066 211.276 12.4133 211.276 12.52C211.249 13.16 211.023 13.6533 210.596 14C210.196 14.32 209.743 14.48 209.236 14.48C209.129 14.48 209.023 14.4666 208.916 14.44C208.329 14.3866 207.863 14.1466 207.516 13.72C207.169 13.2933 206.996 12.76 206.996 12.12C206.996 12.0666 206.996 12.0133 206.996 11.9599C207.023 10.6533 207.649 9.59995 208.876 8.79995C210.103 7.99995 211.489 7.59995 213.036 7.59995C214.876 7.62662 216.449 8.23995 217.756 9.43995C219.089 10.64 219.756 12.6266 219.756 15.4V23.2C219.756 23.7333 219.849 24.0933 220.036 24.28C220.249 24.4666 220.583 24.56 221.036 24.56V24.88L216.876 25.2C216.823 25.2 216.756 25.2 216.676 25.2C215.583 25.2 214.956 24.7466 214.796 23.84C213.969 24.7733 212.836 25.24 211.396 25.24C211.343 25.24 211.303 25.24 211.276 25.24C209.916 25.24 208.703 24.8133 207.636 23.96C206.569 23.08 206.036 21.9066 206.036 20.44C206.036 20.3866 206.036 20.3466 206.036 20.32ZM211.076 23.28C211.556 24.0533 212.129 24.44 212.796 24.44C212.823 24.44 212.863 24.44 212.916 24.44C213.369 24.4133 213.783 24.2533 214.156 23.96C214.529 23.64 214.716 23.28 214.716 22.88V15.44C214.716 15.3066 214.583 15.24 214.316 15.24C214.236 15.24 214.143 15.24 214.036 15.24C212.623 15.2666 211.636 15.6666 211.076 16.44C210.516 17.2133 210.236 18.4 210.236 20C210.263 21.3866 210.543 22.48 211.076 23.28ZM222.238 9.91995V9.59995C224.664 9.59995 226.784 8.98662 228.598 7.75995V10.96C228.998 10.08 229.638 9.31995 230.518 8.67995C231.398 8.03995 232.291 7.71995 233.198 7.71995C234.584 7.71995 235.678 8.45328 236.478 9.91995C237.278 11.3866 237.678 13.5066 237.678 16.28C237.678 16.3866 237.678 16.48 237.678 16.56C237.651 19.3333 236.984 21.48 235.678 23C234.398 24.4933 232.958 25.24 231.358 25.24C230.024 25.24 229.104 24.8266 228.598 24V30.48C228.598 30.9066 229.038 31.12 229.918 31.12V31.44H222.238V31.12C223.144 31.12 223.598 30.9066 223.598 30.48V10.6C223.598 10.1466 223.144 9.91995 222.238 9.91995ZM228.918 23.72C229.131 24.1733 229.558 24.4 230.198 24.4C230.598 24.4 230.984 24.2 231.358 23.8C231.731 23.4 232.064 22.6533 232.358 21.56C232.678 20.44 232.838 19.0533 232.838 17.4C232.838 17.16 232.838 16.92 232.838 16.68C232.838 15.1866 232.758 13.8666 232.598 12.72C232.438 11.5733 232.211 10.7466 231.918 10.24C231.624 9.70662 231.278 9.43995 230.878 9.43995C230.238 9.43995 229.691 9.77328 229.238 10.44C228.811 11.08 228.598 11.76 228.598 12.48V21.72C228.598 22.6266 228.704 23.2933 228.918 23.72Z" fill="#D20000"/>
</svg>
