<svg width="88" height="90" viewBox="0 0 88 90" fill="none" xmlns="http://www.w3.org/2000/svg">
<path d="M1.3113e-06 37.376V36.864C1.57867 36.864 2.368 36.5226 2.368 35.84V0.639977C2.06933 0.554642 1.38667 0.511974 0.320001 0.511974V-2.67029e-05H13.12V0.511974C12.3093 0.511974 11.776 0.575975 11.52 0.703976C11.264 0.789308 11.136 0.938641 11.136 1.15197C11.136 1.19464 11.136 1.25864 11.136 1.34398L17.6 22.848L24.128 0.959976C23.9573 0.661308 23.3387 0.511974 22.272 0.511974V-2.67029e-05H34.624V0.511974C33.0453 0.511974 32.256 0.853308 32.256 1.53598V35.84C32.256 36.5226 33.0453 36.864 34.624 36.864V37.376H21.888V36.864C23.4667 36.864 24.256 36.5226 24.256 35.84V3.58398L14.016 37.376L3.264 1.85598L3.2 35.84C3.2 36.5226 3.98933 36.864 5.568 36.864V37.376H1.3113e-06ZM36.8675 10.048C37.2515 7.70131 37.7422 5.88798 38.3395 4.60798C38.9795 3.28531 39.8542 2.28264 40.9635 1.59998C42.0728 0.874641 43.0968 0.426641 44.0355 0.255974C45.0168 0.0853068 46.2542 -2.67029e-05 47.7475 -2.67029e-05C49.2408 -2.67029e-05 50.4568 0.0853068 51.3955 0.255974C52.3768 0.426641 53.4008 0.874641 54.4675 1.59998C55.5768 2.28264 56.4302 3.28531 57.0275 4.60798C57.6675 5.88798 58.2008 7.72264 58.6275 10.112C59.0542 12.4586 59.2675 15.3173 59.2675 18.688C59.2675 22.0586 59.0542 24.9386 58.6275 27.328C58.2008 29.6746 57.6675 31.5093 57.0275 32.832C56.4302 34.112 55.5768 35.1146 54.4675 35.84C53.4008 36.5226 52.3982 36.9493 51.4595 37.12C50.4782 37.2906 49.2408 37.376 47.7475 37.376C46.2542 37.376 45.0168 37.2906 44.0355 37.12C43.0968 36.9493 42.0728 36.5226 40.9635 35.84C39.8542 35.1146 38.9795 34.112 38.3395 32.832C37.7422 31.5093 37.2302 29.6746 36.8035 27.328C36.4195 24.9386 36.2275 22.0586 36.2275 18.688C36.2275 15.3173 36.4408 12.4373 36.8675 10.048ZM43.9715 27.392C44.1422 29.824 44.3555 31.6373 44.6115 32.832C44.8675 34.0266 45.1875 34.9653 45.5715 35.648C45.9982 36.288 46.3608 36.6506 46.6595 36.736C46.9582 36.864 47.3208 36.928 47.7475 36.928C48.1742 36.928 48.5368 36.8853 48.8355 36.8C49.1342 36.672 49.4755 36.288 49.8595 35.648C50.2862 34.9653 50.6275 34.0266 50.8835 32.832C51.1395 31.6373 51.3528 29.8453 51.5235 27.456C51.7368 25.024 51.8435 22.1013 51.8435 18.688C51.8435 15.2746 51.7368 12.3733 51.5235 9.98397C51.3528 7.55198 51.1395 5.73864 50.8835 4.54398C50.6275 3.34931 50.2862 2.43198 49.8595 1.79197C49.4755 1.10931 49.1342 0.725309 48.8355 0.639977C48.5368 0.511976 48.1742 0.447975 47.7475 0.447975C47.3208 0.447975 46.9582 0.511976 46.6595 0.639977C46.3608 0.725309 45.9982 1.10931 45.5715 1.79197C45.1875 2.43198 44.8675 3.34931 44.6115 4.54398C44.3555 5.73864 44.1208 7.55198 43.9075 9.98397C43.7368 12.3733 43.6515 15.2746 43.6515 18.688C43.6515 22.1013 43.7582 25.0026 43.9715 27.392ZM60.845 36.864C62.4237 36.864 63.213 36.5226 63.213 35.84V0.575974C62.9997 0.533307 62.3597 0.511974 61.293 0.511974V-2.67029e-05H73.965V0.511974C73.1117 0.511974 72.5783 0.575975 72.365 0.703976C72.1517 0.789308 72.045 0.938641 72.045 1.15197C72.045 1.23731 72.0663 1.34398 72.109 1.47197L84.525 35.136L84.589 1.47197C84.589 0.831974 83.7997 0.511974 82.221 0.511974V-2.67029e-05H87.789V0.511974C86.2103 0.511974 85.421 0.853308 85.421 1.53598V36.16C85.421 36.5013 85.5703 36.7146 85.869 36.8C86.2103 36.8426 86.8503 36.864 87.789 36.864V37.376H83.373C81.9223 37.376 80.7277 37.2693 79.789 37.056C78.893 36.8 78.1463 36.352 77.549 35.712C76.9517 35.072 76.5037 34.4746 76.205 33.92C75.9063 33.3653 75.5223 32.4693 75.053 31.232L64.109 1.53598L64.045 35.904C64.0877 36.544 64.877 36.864 66.413 36.864V37.376H60.845V36.864ZM0.971751 63.968C0.971751 60.5546 1.93175 57.7173 3.85175 55.456C5.77175 53.1946 8.18242 52.064 11.0838 52.064C11.1691 52.064 11.2331 52.064 11.2758 52.064C18.6998 52.1066 22.4118 58.016 22.4118 69.792C22.4118 76.5333 21.2811 81.504 19.0198 84.704C16.7584 87.8613 13.9638 89.44 10.6358 89.44C7.99042 89.44 5.85709 88.608 4.23575 86.944C2.61442 85.28 1.80375 83.4453 1.80375 81.44C1.80375 80.16 2.14508 79.1146 2.82775 78.304C3.55308 77.4506 4.40642 77.024 5.38775 77.024C5.43042 77.024 5.47308 77.024 5.51575 77.024C6.45442 77.0666 7.20108 77.3866 7.75575 77.984C8.35308 78.5813 8.65175 79.3706 8.65175 80.352C8.65175 80.3946 8.65175 80.4586 8.65175 80.544C8.56642 81.568 8.05442 82.464 7.11575 83.232C6.17708 83.9573 5.70775 84.6613 5.70775 85.344C5.70775 86.4533 6.19842 87.3493 7.17975 88.032C8.16108 88.672 9.22775 88.992 10.3798 88.992C10.4651 88.992 10.5504 88.992 10.6358 88.992C11.3611 88.992 11.9798 88.7786 12.4918 88.352C13.0464 87.9253 13.4731 87.3066 13.7718 86.496C14.1131 85.6426 14.3904 84.7893 14.6038 83.936C14.8171 83.04 14.9664 81.952 15.0518 80.672C15.1371 79.392 15.1798 78.304 15.1798 77.408C15.2224 76.4693 15.2438 75.36 15.2438 74.08C15.2864 72.7573 15.3078 71.8186 15.3078 71.264C14.1131 73.7386 12.1504 74.976 9.41975 74.976C7.20109 74.976 5.23842 74.016 3.53175 72.096C1.82508 70.1333 0.971751 67.5093 0.971751 64.224C0.971751 64.1386 0.971751 64.0533 0.971751 63.968ZM8.45975 70.496C9.09975 72.7146 10.1024 73.824 11.4678 73.824C12.6198 73.824 13.5371 73.2266 14.2198 72.032C14.9451 70.8373 15.3078 69.4933 15.3078 68C15.3078 66.1653 15.2864 64.8 15.2438 63.904C15.2438 63.008 15.2011 61.8346 15.1158 60.384C15.0731 58.9333 14.9664 57.8453 14.7958 57.12C14.6678 56.3946 14.4544 55.6266 14.1558 54.816C13.8998 54.0053 13.5371 53.4293 13.0678 53.088C12.6411 52.7466 12.1078 52.576 11.4678 52.576C11.4251 52.576 11.4038 52.576 11.4038 52.576C9.99575 52.576 8.99309 53.6 8.39575 55.648C7.79842 57.696 7.49975 60.1493 7.49975 63.008C7.49975 65.7813 7.81975 68.2773 8.45975 70.496ZM23.0013 88.864C24.0253 88.864 24.6866 88.8213 24.9853 88.736C25.3266 88.6506 25.5826 88.416 25.7533 88.032L36.5053 52H37.4653L48.2173 87.904C48.3453 88.3733 48.6013 88.6506 48.9853 88.736C49.3693 88.8213 50.0519 88.864 51.0333 88.864V89.376H38.2973V88.864C39.5773 88.864 40.2386 88.6933 40.2813 88.352L38.3613 81.696H28.5693L26.6493 88.096C26.6493 88.1386 26.6493 88.1813 26.6493 88.224C26.6493 88.48 26.7559 88.6506 26.9693 88.736C27.2253 88.8213 27.7799 88.864 28.6333 88.864V89.376H23.0013V88.864ZM38.1693 81.184L33.4973 65.248L28.6973 81.184H38.1693ZM52.3138 89.376V88.864C53.8924 88.864 54.6818 88.5226 54.6818 87.84V52.64C54.3831 52.5546 53.7004 52.512 52.6338 52.512V52H65.4338V52.512C64.6231 52.512 64.0898 52.576 63.8338 52.704C63.5778 52.7893 63.4498 52.9386 63.4498 53.152C63.4498 53.1946 63.4498 53.2586 63.4498 53.344L69.9138 74.848L76.4418 52.96C76.2711 52.6613 75.6524 52.512 74.5858 52.512V52H86.9378V52.512C85.3591 52.512 84.5698 52.8533 84.5698 53.536V87.84C84.5698 88.5226 85.3591 88.864 86.9378 88.864V89.376H74.2018V88.864C75.7804 88.864 76.5698 88.5226 76.5698 87.84V55.584L66.3298 89.376L55.5778 53.856L55.5138 87.84C55.5138 88.5226 56.3031 88.864 57.8818 88.864V89.376H52.3138Z" fill="#D20000"/>
</svg>
