<svg width="129" height="30" viewBox="0 0 129 30" fill="none" xmlns="http://www.w3.org/2000/svg">
<path d="M4.63426e-06 23.04C0.986671 23.04 1.48 22.8267 1.48 22.4V0.959985C1.48 0.533318 0.986671 0.319984 4.63426e-06 0.319984V-1.66893e-05H6.48001C7.06667 -1.66893e-05 7.53334 0.0133173 7.88 0.0399852C8.25334 0.0399852 8.78667 0.0933178 9.48 0.199983C10.2 0.279984 10.8 0.399984 11.28 0.559983C11.76 0.719984 12.2933 0.973318 12.88 1.31999C13.4667 1.66665 13.9333 2.07998 14.28 2.55998C14.6533 3.03998 14.96 3.66665 15.2 4.43998C15.4667 5.18665 15.6 6.03998 15.6 6.99998C15.6 10.7867 13.76 13.04 10.08 13.76C12.5333 13.7867 13.9333 15.0933 14.28 17.68C14.3067 17.9467 14.3467 18.3067 14.4 18.76C14.48 19.2133 14.5333 19.5467 14.56 19.76C14.6133 19.9467 14.6667 20.2133 14.72 20.56C14.7733 20.9067 14.8267 21.16 14.88 21.32C14.96 21.4533 15.04 21.64 15.12 21.88C15.2267 22.12 15.3333 22.2933 15.44 22.4C15.5733 22.48 15.72 22.5733 15.88 22.68C16.04 22.7867 16.2133 22.8667 16.4 22.92C16.6133 22.9467 16.8533 22.96 17.12 22.96V23.36H10.8V23.04H11.4C11.64 23.04 11.76 22.9867 11.76 22.88C11.76 22.8267 11.6933 22.7867 11.56 22.76C11.4267 22.7067 11.2667 22.64 11.08 22.56C10.92 22.4533 10.7467 22.1733 10.56 21.72C10.4 21.24 10.2933 20.6133 10.24 19.84C10.2133 19.6 10.1733 19.24 10.12 18.76C10.0933 18.2533 10.0667 17.9067 10.04 17.72C10.04 17.5067 10.0133 17.2133 9.96001 16.84C9.90667 16.44 9.84001 16.16 9.76 16C9.70667 15.8133 9.62667 15.5867 9.52001 15.32C9.41334 15.0533 9.28 14.8667 9.12001 14.76C8.98667 14.6267 8.81334 14.4933 8.60001 14.36C8.41334 14.2267 8.18667 14.1333 7.92 14.08C7.65334 14.0267 7.36 14 7.04 14C6.90667 14 6.80001 14.0133 6.72 14.04C6.66667 14.0667 6.61334 14.1333 6.56001 14.24C6.50667 14.3467 6.48001 14.52 6.48001 14.76V22.4C6.48001 22.8267 6.97334 23.04 7.96001 23.04V23.36H4.63426e-06V23.04ZM6.56001 13.56C6.61334 13.6133 6.69334 13.64 6.80001 13.64C7.09334 13.64 7.33334 13.6267 7.52 13.6C7.73334 13.5733 8.05334 13.4533 8.48 13.24C8.90667 13 9.25334 12.6667 9.52001 12.24C9.78667 11.8133 10.0267 11.16 10.24 10.28C10.48 9.37332 10.6 8.27998 10.6 6.99998C10.6 5.45332 10.4667 4.18665 10.2 3.19999C9.93334 2.21332 9.56001 1.53332 9.08 1.15999C8.62667 0.786652 8.24 0.559985 7.92 0.479984C7.62667 0.373317 7.28001 0.319984 6.88 0.319984C6.64 0.319984 6.50667 0.426651 6.48001 0.639985V13.4L6.56001 13.56ZM17.2694 10.64C17.7494 9.49332 18.3627 8.58665 19.1094 7.91999C19.8827 7.25332 20.6694 6.75998 21.4694 6.43999C22.296 6.09332 23.0827 5.91998 23.8294 5.91998C25.936 5.91998 27.576 6.63998 28.7494 8.07998C29.9227 9.51998 30.5494 11.4933 30.6294 14L21.2694 14.04C21.2694 16.12 21.6427 17.8267 22.3894 19.16C23.1627 20.4933 24.336 21.1867 25.9094 21.24C26.2827 21.24 26.6294 21.2133 26.9494 21.16C27.296 21.08 27.5627 21.0133 27.7494 20.96C27.9627 20.88 28.216 20.7333 28.5094 20.52C28.8027 20.3067 28.9894 20.1733 29.0694 20.12C29.1494 20.04 29.3227 19.8667 29.5894 19.6C29.856 19.3067 30.0027 19.1467 30.0294 19.12C28.696 21.9467 26.776 23.36 24.2694 23.36C21.976 23.36 20.1094 22.5333 18.6694 20.88C17.2294 19.2 16.5094 17.0933 16.5094 14.56C16.5094 13.12 16.7627 11.8133 17.2694 10.64ZM26.5894 13.56C26.5894 8.67998 25.776 6.23998 24.1494 6.23998C23.936 6.23998 23.7227 6.27998 23.5094 6.35998C23.3227 6.41332 23.0827 6.59998 22.7894 6.91998C22.496 7.21332 22.2427 7.61332 22.0294 8.11998C21.816 8.59999 21.6294 9.31998 21.4694 10.28C21.336 11.2133 21.2694 12.3067 21.2694 13.56H26.5894ZM34.7175 8.35998C36.1575 6.73332 38.1975 5.91998 40.8375 5.91998C42.3308 5.91998 43.5308 6.30665 44.4375 7.07999C45.6108 8.09332 46.1975 9.25332 46.1975 10.56C46.1975 11.3867 45.9175 12.0667 45.3575 12.6C44.8242 13.1333 44.1842 13.4 43.4375 13.4C42.7975 13.4 42.2375 13.1733 41.7575 12.72C41.3042 12.24 41.0775 11.6933 41.0775 11.08C41.0775 10.4667 41.2508 9.98665 41.5975 9.63998C41.9708 9.29332 42.3975 9.10665 42.8775 9.07998C42.9308 9.07998 42.9975 9.07998 43.0775 9.07998C43.2375 9.07998 43.4242 9.10665 43.6375 9.15998C43.8775 9.18665 44.0242 9.19999 44.0775 9.19999C44.3175 9.19999 44.4375 9.02665 44.4375 8.67998C44.4375 8.62665 44.4375 8.55998 44.4375 8.47998C44.4108 7.99998 44.1308 7.54665 43.5975 7.11998C43.0908 6.69332 42.4775 6.46665 41.7575 6.43999C41.7308 6.43999 41.7042 6.43999 41.6775 6.43999C40.6375 6.43999 39.6375 7.11999 38.6775 8.47998C37.7442 9.83998 37.2642 11.8533 37.2375 14.52C37.2375 14.6533 37.2375 14.7733 37.2375 14.88C37.2375 16.72 37.6375 18.24 38.4375 19.44C39.2375 20.64 40.3308 21.2533 41.7175 21.28C41.8775 21.2533 42.0108 21.24 42.1175 21.24C42.2508 21.24 42.3442 21.2533 42.3975 21.28C42.4508 21.3067 42.5042 21.32 42.5575 21.32C42.6908 21.32 42.8642 21.2667 43.0775 21.16C43.3175 21.0533 43.4908 21 43.5975 21C43.5975 21 43.5975 21.0133 43.5975 21.04C43.6242 21.04 43.6375 21.04 43.6375 21.04C43.7442 21.04 43.9042 20.96 44.1175 20.8C44.3575 20.64 44.5042 20.5467 44.5575 20.52C44.6375 20.4933 44.7708 20.3867 44.9575 20.2C45.1708 20.0133 45.3042 19.8933 45.3575 19.84L45.9975 19.2C44.7175 21.9733 42.8108 23.36 40.2775 23.36C37.9842 23.36 36.1042 22.52 34.6375 20.84C33.1708 19.16 32.4375 17.0933 32.4375 14.64C32.4908 12.1067 33.2508 10.0133 34.7175 8.35998ZM48.7741 10.64C49.2541 9.49332 49.8674 8.58665 50.6141 7.91999C51.3874 7.25332 52.1741 6.75998 52.9741 6.43999C53.8007 6.09332 54.5874 5.91998 55.3341 5.91998C57.4407 5.91998 59.0807 6.63998 60.2541 8.07998C61.4274 9.51998 62.0541 11.4933 62.1341 14L52.7741 14.04C52.7741 16.12 53.1474 17.8267 53.8941 19.16C54.6674 20.4933 55.8407 21.1867 57.4141 21.24C57.7874 21.24 58.1341 21.2133 58.4541 21.16C58.8007 21.08 59.0674 21.0133 59.2541 20.96C59.4674 20.88 59.7207 20.7333 60.0141 20.52C60.3074 20.3067 60.4941 20.1733 60.5741 20.12C60.6541 20.04 60.8274 19.8667 61.0941 19.6C61.3607 19.3067 61.5074 19.1467 61.5341 19.12C60.2007 21.9467 58.2807 23.36 55.7741 23.36C53.4807 23.36 51.6141 22.5333 50.1741 20.88C48.7341 19.2 48.0141 17.0933 48.0141 14.56C48.0141 13.12 48.2674 11.8133 48.7741 10.64ZM58.0941 13.56C58.0941 8.67998 57.2807 6.23998 55.6541 6.23998C55.4407 6.23998 55.2274 6.27998 55.0141 6.35998C54.8274 6.41332 54.5874 6.59998 54.2941 6.91998C54.0007 7.21332 53.7474 7.61332 53.5341 8.11998C53.3207 8.59999 53.1341 9.31998 52.9741 10.28C52.8407 11.2133 52.7741 12.3067 52.7741 13.56H58.0941ZM63.1266 8.07998V7.75998C65.5532 7.75998 67.6732 7.14665 69.4866 5.91998V9.11999C69.8866 8.23998 70.5266 7.47998 71.4066 6.83998C72.2866 6.19998 73.1799 5.87999 74.0866 5.87999C75.4732 5.87999 76.5666 6.61332 77.3666 8.07998C78.1666 9.54665 78.5666 11.6667 78.5666 14.44C78.5666 14.5467 78.5666 14.64 78.5666 14.72C78.5399 17.4933 77.8732 19.64 76.5666 21.16C75.2866 22.6533 73.8466 23.4 72.2466 23.4C70.9132 23.4 69.9932 22.9867 69.4866 22.16V28.64C69.4866 29.0667 69.9266 29.28 70.8066 29.28V29.6H63.1266V29.28C64.0332 29.28 64.4866 29.0667 64.4866 28.64V8.75998C64.4866 8.30665 64.0332 8.07998 63.1266 8.07998ZM69.8066 21.88C70.0199 22.3333 70.4466 22.56 71.0866 22.56C71.4866 22.56 71.8732 22.36 72.2466 21.96C72.6199 21.56 72.9532 20.8133 73.2466 19.72C73.5666 18.6 73.7266 17.2133 73.7266 15.56C73.7266 15.32 73.7266 15.08 73.7266 14.84C73.7266 13.3467 73.6466 12.0267 73.4866 10.88C73.3266 9.73332 73.0999 8.90665 72.8066 8.39998C72.5132 7.86665 72.1666 7.59998 71.7666 7.59998C71.1266 7.59998 70.5799 7.93332 70.1266 8.59998C69.6999 9.23998 69.4866 9.91998 69.4866 10.64V19.88C69.4866 20.7867 69.5932 21.4533 69.8066 21.88ZM80.5625 5.87999C82.8558 4.83998 84.1492 2.87998 84.4425 -1.66893e-05H85.5625V5.87999H88.3625V6.23998H85.5625V16.24C85.5625 18.5067 85.7492 20.1467 86.1225 21.16C86.4958 22.1467 87.2425 22.88 88.3625 23.36C85.4558 23.36 83.4292 22.9067 82.2825 22C81.1358 21.0667 80.5625 19.56 80.5625 17.48V5.87999ZM89.7413 22.4V8.75998C89.7413 8.30665 89.2879 8.07998 88.3813 8.07998V7.75998C90.8879 7.75998 93.0079 7.14665 94.7413 5.91998V22.4C94.7413 22.8267 95.1813 23.04 96.0613 23.04V23.36H88.3813V23.04C89.2879 23.04 89.7413 22.8267 89.7413 22.4ZM90.6613 1.15999C91.0879 0.733318 91.6079 0.519984 92.2213 0.519984C92.8079 0.519984 93.3146 0.746651 93.7413 1.19998C94.1679 1.62665 94.3813 2.13332 94.3813 2.71998C94.3813 3.33332 94.1679 3.85332 93.7413 4.27998C93.3146 4.70665 92.8079 4.91998 92.2213 4.91998C91.6079 4.91998 91.0746 4.70665 90.6213 4.27998C90.1946 3.85332 89.9813 3.33332 89.9813 2.71998C89.9813 2.10665 90.2079 1.58665 90.6613 1.15999ZM99.1181 8.07998C100.451 6.63998 102.185 5.91998 104.318 5.91998C106.425 5.91998 108.145 6.65332 109.478 8.11998C110.811 9.55998 111.478 11.7467 111.478 14.68C111.478 17.2933 110.785 19.4 109.398 21C108.038 22.5733 106.345 23.36 104.318 23.36C102.238 23.36 100.505 22.6 99.1181 21.08C97.7581 19.5333 97.0781 17.4 97.0781 14.68C97.0781 11.7467 97.7581 9.54665 99.1181 8.07998ZM102.158 18.64C102.265 19.7333 102.385 20.56 102.518 21.12C102.651 21.68 102.825 22.12 103.038 22.44C103.278 22.7333 103.478 22.9067 103.638 22.96C103.825 23.0133 104.051 23.04 104.318 23.04C104.585 23.04 104.798 23.0133 104.958 22.96C105.118 22.9067 105.305 22.7333 105.518 22.44C105.758 22.12 105.945 21.68 106.078 21.12C106.211 20.56 106.318 19.7333 106.398 18.64C106.505 17.5467 106.558 16.2267 106.558 14.68C106.558 13.1333 106.505 11.8133 106.398 10.72C106.318 9.59998 106.211 8.75998 106.078 8.19999C105.945 7.63999 105.758 7.21332 105.518 6.91998C105.305 6.59998 105.118 6.41332 104.958 6.35998C104.798 6.30665 104.585 6.27998 104.318 6.27998C104.051 6.27998 103.825 6.30665 103.638 6.35998C103.478 6.41332 103.278 6.59998 103.038 6.91998C102.825 7.21332 102.651 7.63999 102.518 8.19999C102.385 8.75998 102.265 9.58665 102.158 10.68C102.051 11.8 101.998 13.1333 101.998 14.68C101.998 16.2267 102.051 17.5467 102.158 18.64ZM118.824 5.91998V9.23998C118.904 8.97332 119.011 8.70665 119.144 8.43998C119.304 8.17332 119.544 7.82665 119.864 7.39998C120.211 6.97332 120.651 6.62665 121.184 6.35998C121.744 6.06665 122.357 5.91998 123.024 5.91998C125.717 5.91998 127.064 7.73332 127.064 11.36V22.4C127.064 22.8267 127.517 23.04 128.424 23.04V23.36H121.224V23.04C121.784 23.04 122.077 22.84 122.104 22.44V9.71998C122.104 8.91998 122.024 8.35998 121.864 8.03998C121.704 7.71998 121.464 7.55998 121.144 7.55998C121.117 7.55998 121.091 7.55998 121.064 7.55998C120.477 7.58665 119.971 7.94665 119.544 8.63998C119.144 9.30665 118.904 9.95998 118.824 10.6V22.44C118.824 22.84 119.117 23.04 119.704 23.04V23.36H112.464V23.04C113.371 23.04 113.824 22.8267 113.824 22.4V8.75998C113.824 8.30665 113.371 8.07998 112.464 8.07998V7.75998C114.997 7.75998 117.117 7.14665 118.824 5.91998Z" fill="#005594"/>
</svg>
