<svg width="262" height="145" viewBox="0 0 262 145" fill="none" xmlns="http://www.w3.org/2000/svg">
<path d="M1.60374e-06 52.2499C1.60374e-06 49.3166 0.843335 46.8966 2.53 44.9899C4.29 43.0833 6.34334 42.1299 8.69 42.1299C10.8167 42.1299 12.5033 42.8266 13.75 44.2199C14.9967 45.5399 15.62 47.1166 15.62 48.9499C15.62 49.0966 15.62 49.2066 15.62 49.2799C15.5467 51.5533 14.7767 53.2033 13.31 54.2299C11.9167 55.1833 10.56 55.6599 9.24 55.6599C9.09334 55.6599 8.98334 55.6599 8.91 55.6599C8.47 55.6599 8.03 55.6233 7.59 55.5499C7.22334 55.6233 6.78333 55.6966 6.27 55.7699C5.83 55.7699 5.42667 56.0633 5.06 56.6499C4.69334 57.1633 4.51 57.7499 4.51 58.4099C4.51 58.8499 4.58334 59.3633 4.73 59.9499C5.17 62.2233 6.82 64.2033 9.68 65.8899C12.54 67.5033 15.6567 68.3099 19.03 68.3099C22.6233 68.3099 25.4833 67.4666 27.61 65.7799C29.7367 64.0199 30.8 62.0033 30.8 59.7299C30.8 54.1566 26.2533 48.2166 17.16 41.9099C11.3667 37.8766 7.37 34.2099 5.17 30.9099C2.97 27.6099 1.87 24.1999 1.87 20.6799C1.87 20.6066 1.87 20.4966 1.87 20.3499C1.94333 15.6566 3.85 11.9166 7.59 9.12994C11.33 6.34327 15.5467 4.94994 20.24 4.94994C25.0067 4.94994 29.0033 6.37994 32.23 9.23994C35.53 12.0266 37.18 15.1066 37.18 18.4799C37.18 20.4599 36.5567 22.0733 35.31 23.3199C34.0633 24.4933 32.56 25.0799 30.8 25.0799C28.8933 25.0799 27.3533 24.5666 26.18 23.5399C25.0067 22.5133 24.42 21.1933 24.42 19.5799C24.42 19.4333 24.42 19.3233 24.42 19.2499C24.42 18.0033 24.7133 16.9399 25.3 16.0599C25.96 15.1066 26.6567 14.4099 27.39 13.9699C28.1233 13.5299 28.6367 13.0533 28.93 12.5399C29.2233 12.0266 29.37 11.5499 29.37 11.1099C29.37 10.6699 29.2967 10.2299 29.15 9.78994C28.6367 8.39661 27.5733 7.40661 25.96 6.81994C24.3467 6.15994 22.77 5.82994 21.23 5.82994C20.9367 5.82994 20.6067 5.82994 20.24 5.82994C17.5267 5.97661 15.18 7.07661 13.2 9.12994C11.22 11.1099 10.23 13.3833 10.23 15.9499C10.23 16.0966 10.23 16.2066 10.23 16.2799C10.3033 18.6266 11.33 20.8633 13.31 22.9899C15.29 25.1166 17.6733 27.0966 20.46 28.9299C23.2467 30.6899 26.0333 32.5599 28.82 34.5399C31.68 36.5199 34.1 38.9766 36.08 41.9099C38.06 44.7699 39.0867 47.9233 39.16 51.3699C39.16 51.4433 39.16 51.5533 39.16 51.6999C39.16 56.4666 37.4733 60.5733 34.1 64.0199C30.7267 67.4666 25.7033 69.1899 19.03 69.1899C13.4567 69.1899 8.87334 67.5766 5.28 64.3499C1.76 61.1233 1.60374e-06 57.0899 1.60374e-06 52.2499ZM43.9716 34.2099C45.2916 31.0566 46.9783 28.5633 49.0316 26.7299C51.1583 24.8966 53.3216 23.5399 55.5216 22.6599C57.795 21.7066 59.9583 21.2299 62.0116 21.2299C67.805 21.2299 72.315 23.2099 75.5416 27.1699C78.7683 31.1299 80.4916 36.5566 80.7116 43.4499L54.9716 43.5599C54.9716 49.2799 55.9983 53.9733 58.0516 57.6399C60.1783 61.3066 63.405 63.2133 67.7316 63.3599C68.7583 63.3599 69.7116 63.2866 70.5916 63.1399C71.545 62.9199 72.2783 62.7366 72.7916 62.5899C73.3783 62.3699 74.075 61.9666 74.8816 61.3799C75.6883 60.7933 76.2016 60.4266 76.4216 60.2799C76.6416 60.0599 77.1183 59.5833 77.8516 58.8499C78.585 58.0433 78.9883 57.6033 79.0616 57.5299C75.395 65.3033 70.115 69.1899 63.2216 69.1899C56.915 69.1899 51.7816 66.9166 47.8216 62.3699C43.8616 57.7499 41.8816 51.9566 41.8816 44.9899C41.8816 41.0299 42.5783 37.4366 43.9716 34.2099ZM69.6016 42.2399C69.6016 28.8199 67.365 22.1099 62.8916 22.1099C62.305 22.1099 61.7183 22.2199 61.1316 22.4399C60.6183 22.5866 59.9583 23.0999 59.1516 23.9799C58.345 24.7866 57.6483 25.8866 57.0616 27.2799C56.475 28.5999 55.9616 30.5799 55.5216 33.2199C55.155 35.7866 54.9716 38.7933 54.9716 42.2399H69.6016ZM87.774 34.2099C89.094 31.0566 90.7807 28.5633 92.834 26.7299C94.9607 24.8966 97.124 23.5399 99.324 22.6599C101.597 21.7066 103.761 21.2299 105.814 21.2299C111.607 21.2299 116.117 23.2099 119.344 27.1699C122.571 31.1299 124.294 36.5566 124.514 43.4499L98.774 43.5599C98.774 49.2799 99.8007 53.9733 101.854 57.6399C103.981 61.3066 107.207 63.2133 111.534 63.3599C112.561 63.3599 113.514 63.2866 114.394 63.1399C115.347 62.9199 116.081 62.7366 116.594 62.5899C117.181 62.3699 117.877 61.9666 118.684 61.3799C119.491 60.7933 120.004 60.4266 120.224 60.2799C120.444 60.0599 120.921 59.5833 121.654 58.8499C122.387 58.0433 122.791 57.6033 122.864 57.5299C119.197 65.3033 113.917 69.1899 107.024 69.1899C100.717 69.1899 95.584 66.9166 91.624 62.3699C87.664 57.7499 85.684 51.9566 85.684 44.9899C85.684 41.0299 86.3807 37.4366 87.774 34.2099ZM113.404 42.2399C113.404 28.8199 111.167 22.1099 106.694 22.1099C106.107 22.1099 105.521 22.2199 104.934 22.4399C104.421 22.5866 103.761 23.0999 102.954 23.9799C102.147 24.7866 101.451 25.8866 100.864 27.2799C100.277 28.5999 99.764 30.5799 99.324 33.2199C98.9573 35.7866 98.774 38.7933 98.774 42.2399H113.404ZM154.245 21.1199C160.552 18.2599 164.108 12.8699 164.915 4.94994H167.995V21.1199H175.695V22.1099H167.995V49.6099C167.995 55.8433 168.508 60.3533 169.535 63.1399C170.562 65.8533 172.615 67.8699 175.695 69.1899C167.702 69.1899 162.128 67.9433 158.975 65.4499C155.822 62.8833 154.245 58.7399 154.245 53.0199V21.1199ZM175.746 69.1899V68.3099C178.24 68.3099 179.486 67.7233 179.486 66.5499V7.69994C179.486 6.45327 178.24 5.82994 175.746 5.82994V4.94994C182.86 4.94994 188.653 3.29994 193.126 -5.94854e-05V30.3599C193.273 29.8466 193.53 29.2599 193.896 28.5999C194.263 27.8666 194.886 26.8766 195.766 25.6299C196.646 24.3833 197.856 23.3566 199.396 22.5499C201.01 21.6699 202.77 21.2299 204.676 21.2299C208.783 21.2299 211.68 22.5866 213.366 25.2999C215.053 28.0133 215.896 32.0466 215.896 37.3999V66.5499C215.896 67.7233 217.216 68.3099 219.856 68.3099V69.1899H199.836V68.3099C201.376 68.3099 202.183 67.7599 202.256 66.6599V30.5799C202.256 27.3533 201.376 25.7399 199.616 25.7399C199.543 25.7399 199.433 25.7399 199.286 25.7399C197.673 25.8133 196.316 26.7666 195.216 28.5999C194.116 30.4333 193.42 32.2666 193.126 34.0999V66.6599C193.2 67.7599 194.006 68.3099 195.546 68.3099V69.1899H175.746ZM224.741 34.2099C226.061 31.0566 227.748 28.5633 229.801 26.7299C231.928 24.8966 234.091 23.5399 236.291 22.6599C238.565 21.7066 240.728 21.2299 242.781 21.2299C248.575 21.2299 253.085 23.2099 256.311 27.1699C259.538 31.1299 261.261 36.5566 261.481 43.4499L235.741 43.5599C235.741 49.2799 236.768 53.9733 238.821 57.6399C240.948 61.3066 244.175 63.2133 248.501 63.3599C249.528 63.3599 250.481 63.2866 251.361 63.1399C252.315 62.9199 253.048 62.7366 253.561 62.5899C254.148 62.3699 254.845 61.9666 255.651 61.3799C256.458 60.7933 256.971 60.4266 257.191 60.2799C257.411 60.0599 257.888 59.5833 258.621 58.8499C259.355 58.0433 259.758 57.6033 259.831 57.5299C256.165 65.3033 250.885 69.1899 243.991 69.1899C237.685 69.1899 232.551 66.9166 228.591 62.3699C224.631 57.7499 222.651 51.9566 222.651 44.9899C222.651 41.0299 223.348 37.4366 224.741 34.2099ZM250.371 42.2399C250.371 28.8199 248.135 22.1099 243.661 22.1099C243.075 22.1099 242.488 22.2199 241.901 22.4399C241.388 22.5866 240.728 23.0999 239.921 23.9799C239.115 24.7866 238.418 25.8866 237.831 27.2799C237.245 28.5999 236.731 30.5799 236.291 33.2199C235.925 35.7866 235.741 38.7933 235.741 42.2399H250.371ZM35.9863 102.17V101.29C42.6597 101.29 48.453 99.6033 53.3663 96.2299V104.7C55.4197 99.9333 58.903 97.5499 63.8163 97.5499C66.823 97.5499 69.2797 98.3199 71.1863 99.8599C73.093 101.4 74.0463 103.527 74.0463 106.24C74.0463 106.387 74.0463 106.497 74.0463 106.57C74.0463 108.623 73.423 110.237 72.1763 111.41C71.003 112.51 69.6097 113.06 67.9963 113.06C66.383 113.06 64.953 112.583 63.7063 111.63C62.4597 110.603 61.7997 109.137 61.7263 107.23C61.7263 106.203 62.0563 105.03 62.7163 103.71C63.3763 102.39 63.7063 101.547 63.7063 101.18C63.7063 100.667 63.413 100.3 62.8263 100.08C62.2397 99.8599 61.6897 99.7499 61.1763 99.7499C61.0297 99.7499 60.883 99.7499 60.7363 99.7499C59.1963 99.8966 57.7297 100.667 56.3363 102.06C55.0163 103.38 54.0263 105.36 53.3663 108V141.55C53.3663 142.723 54.613 143.31 57.1063 143.31V144.19H35.9863V143.31C38.4797 143.31 39.7263 142.723 39.7263 141.55V104.04C39.7263 102.793 38.4797 102.17 35.9863 102.17ZM80.2295 102.17C83.8962 98.2099 88.6629 96.2299 94.5295 96.2299C100.323 96.2299 105.053 98.2466 108.72 102.28C112.386 106.24 114.22 112.253 114.22 120.32C114.22 127.507 112.313 133.3 108.5 137.7C104.76 142.027 100.103 144.19 94.5295 144.19C88.8095 144.19 84.0429 142.1 80.2295 137.92C76.4895 133.667 74.6195 127.8 74.6195 120.32C74.6195 112.253 76.4895 106.203 80.2295 102.17ZM88.5895 131.21C88.8829 134.217 89.2129 136.49 89.5795 138.03C89.9462 139.57 90.4229 140.78 91.0095 141.66C91.6695 142.467 92.2195 142.943 92.6595 143.09C93.1729 143.237 93.7962 143.31 94.5295 143.31C95.2629 143.31 95.8495 143.237 96.2895 143.09C96.7295 142.943 97.2429 142.467 97.8295 141.66C98.4895 140.78 99.0029 139.57 99.3695 138.03C99.7362 136.49 100.03 134.217 100.25 131.21C100.543 128.203 100.69 124.573 100.69 120.32C100.69 116.067 100.543 112.437 100.25 109.43C100.03 106.35 99.7362 104.04 99.3695 102.5C99.0029 100.96 98.4895 99.7866 97.8295 98.9799C97.2429 98.0999 96.7295 97.5866 96.2895 97.4399C95.8495 97.2933 95.2629 97.2199 94.5295 97.2199C93.7962 97.2199 93.1729 97.2933 92.6595 97.4399C92.2195 97.5866 91.6695 98.0999 91.0095 98.9799C90.4229 99.7866 89.9462 100.96 89.5795 102.5C89.2129 104.04 88.8829 106.313 88.5895 109.32C88.2962 112.4 88.1495 116.067 88.1495 120.32C88.1495 124.573 88.2962 128.203 88.5895 131.21ZM116.931 102.17V101.29C123.678 101.29 129.471 99.6033 134.311 96.2299V134.95C134.311 138.25 135.301 139.9 137.281 139.9C137.354 139.9 137.464 139.9 137.611 139.9C139.151 139.827 140.434 138.873 141.461 137.04C142.488 135.133 143.111 133.19 143.331 131.21V104.04C143.331 102.793 142.121 102.17 139.701 102.17V101.29C146.594 101.29 152.388 99.6033 157.081 96.2299V138.8C157.081 141.293 158.034 142.54 159.941 142.54H160.711V143.42C158.144 143.64 155.908 143.823 154.001 143.97C152.168 144.117 150.958 144.19 150.371 144.19C149.858 144.263 149.454 144.3 149.161 144.3C145.274 144.3 143.331 142.467 143.331 138.8V135.61C143.258 135.83 143.111 136.233 142.891 136.82C142.671 137.333 142.268 138.03 141.681 138.91C141.094 139.79 140.398 140.633 139.591 141.44C138.858 142.173 137.831 142.833 136.511 143.42C135.191 143.933 133.761 144.19 132.221 144.19C124.521 144.19 120.671 139.13 120.671 129.01V104.04C120.671 102.793 119.424 102.17 116.931 102.17ZM166.813 96.1199C173.12 93.2599 176.677 87.8699 177.483 79.9499H180.563V96.1199H188.263V97.1099H180.563V124.61C180.563 130.843 181.077 135.353 182.103 138.14C183.13 140.853 185.183 142.87 188.263 144.19C180.27 144.19 174.697 142.943 171.543 140.45C168.39 137.883 166.813 133.74 166.813 128.02V96.1199ZM189.855 109.21C191.175 106.057 192.862 103.563 194.915 101.73C197.042 99.8966 199.205 98.5399 201.405 97.6599C203.678 96.7066 205.842 96.2299 207.895 96.2299C213.688 96.2299 218.198 98.2099 221.425 102.17C224.652 106.13 226.375 111.557 226.595 118.45L200.855 118.56C200.855 124.28 201.882 128.973 203.935 132.64C206.062 136.307 209.288 138.213 213.615 138.36C214.642 138.36 215.595 138.287 216.475 138.14C217.428 137.92 218.162 137.737 218.675 137.59C219.262 137.37 219.958 136.967 220.765 136.38C221.572 135.793 222.085 135.427 222.305 135.28C222.525 135.06 223.002 134.583 223.735 133.85C224.468 133.043 224.872 132.603 224.945 132.53C221.278 140.303 215.998 144.19 209.105 144.19C202.798 144.19 197.665 141.917 193.705 137.37C189.745 132.75 187.765 126.957 187.765 119.99C187.765 116.03 188.462 112.437 189.855 109.21ZM215.485 117.24C215.485 103.82 213.248 97.1099 208.775 97.1099C208.188 97.1099 207.602 97.2199 207.015 97.4399C206.502 97.5866 205.842 98.0999 205.035 98.9799C204.228 99.7866 203.532 100.887 202.945 102.28C202.358 103.6 201.845 105.58 201.405 108.22C201.038 110.787 200.855 113.793 200.855 117.24H215.485Z" fill="#005594"/>
</svg>
