<svg width="85" height="90" viewBox="0 0 85 90" fill="none" xmlns="http://www.w3.org/2000/svg">
<path d="M3.95676 27.52C3.95676 25.8133 4.44742 24.4053 5.42876 23.296C6.45276 22.1866 7.64742 21.632 9.01276 21.632C10.2501 21.632 11.2314 22.0373 11.9568 22.848C12.6821 23.616 13.0448 24.5333 13.0448 25.6C13.0448 25.6853 13.0448 25.7493 13.0448 25.792C13.0021 27.1146 12.5541 28.0746 11.7008 28.672C10.8901 29.2266 10.1008 29.504 9.33276 29.504C9.24742 29.504 9.18342 29.504 9.14076 29.504C8.88476 29.504 8.62876 29.4826 8.37276 29.44C8.15942 29.4826 7.90342 29.5253 7.60476 29.568C7.34876 29.568 7.11409 29.7386 6.90076 30.08C6.68742 30.3786 6.58076 30.72 6.58076 31.104C6.58076 31.36 6.62342 31.6586 6.70876 32C6.96476 33.3226 7.92476 34.4746 9.58876 35.456C11.2528 36.3946 13.0661 36.864 15.0288 36.864C17.1194 36.864 18.7834 36.3733 20.0208 35.392C21.2581 34.368 21.8768 33.1946 21.8768 31.872C21.8768 28.6293 19.2314 25.1733 13.9408 21.504C10.5701 19.1573 8.24476 17.024 6.96476 15.104C5.68476 13.184 5.04476 11.2 5.04476 9.15198C5.04476 9.10931 5.04476 9.04531 5.04476 8.95997C5.08742 6.22931 6.19676 4.05331 8.37276 2.43198C10.5488 0.810641 13.0021 -2.67029e-05 15.7328 -2.67029e-05C18.5061 -2.67029e-05 20.8314 0.831974 22.7088 2.49598C24.6288 4.11731 25.5888 5.90931 25.5888 7.87197C25.5888 9.02398 25.2261 9.96264 24.5008 10.688C23.7754 11.3706 22.9008 11.712 21.8768 11.712C20.7674 11.712 19.8714 11.4133 19.1888 10.816C18.5061 10.2186 18.1648 9.45064 18.1648 8.51197C18.1648 8.42664 18.1648 8.36264 18.1648 8.31997C18.1648 7.59464 18.3354 6.97598 18.6768 6.46398C19.0608 5.90931 19.4661 5.50397 19.8928 5.24797C20.3194 4.99198 20.6181 4.71464 20.7888 4.41597C20.9594 4.11731 21.0448 3.83998 21.0448 3.58398C21.0448 3.32797 21.0021 3.07197 20.9168 2.81598C20.6181 2.00531 19.9994 1.42931 19.0608 1.08797C18.1221 0.703974 17.2048 0.511974 16.3088 0.511974C16.1381 0.511974 15.9461 0.511974 15.7328 0.511974C14.1541 0.597309 12.7888 1.23731 11.6368 2.43198C10.4848 3.58397 9.90876 4.90664 9.90876 6.39997C9.90876 6.48531 9.90876 6.54931 9.90876 6.59197C9.95142 7.95731 10.5488 9.25864 11.7008 10.496C12.8528 11.7333 14.2394 12.8853 15.8608 13.952C17.4821 14.976 19.1034 16.064 20.7248 17.216C22.3888 18.368 23.7968 19.7973 24.9488 21.504C26.1008 23.168 26.6981 25.0026 26.7408 27.008C26.7408 27.0506 26.7408 27.1146 26.7408 27.2C26.7408 29.9733 25.7594 32.3626 23.7968 34.368C21.8341 36.3733 18.9114 37.376 15.0288 37.376C11.7861 37.376 9.11942 36.4373 7.02876 34.56C4.98076 32.6826 3.95676 30.336 3.95676 27.52ZM38.9828 -2.67029e-05V0.511974C37.4041 0.511974 36.6148 0.853308 36.6148 1.53598V24.96C36.6148 26.1546 36.2094 27.456 35.3988 28.864C34.5881 30.2293 34.1828 31.424 34.1828 32.448C34.1828 32.6613 34.2041 32.8533 34.2468 33.024C34.3748 34.048 34.9721 34.9013 36.0388 35.584C37.1481 36.2666 38.3641 36.608 39.6868 36.608C43.0148 36.608 45.5108 35.52 47.1748 33.344C48.8388 31.168 49.6708 28.6506 49.6708 25.792L49.7348 1.53598C49.7348 0.853308 48.9454 0.511974 47.3668 0.511974V-2.67029e-05H52.9348V0.511974C51.3561 0.511974 50.5668 0.853308 50.5668 1.53598V25.856C50.5668 29.056 49.5854 31.7866 47.6228 34.048C45.7028 36.2666 43.0574 37.376 39.6868 37.376C36.5294 37.376 33.8841 36.2666 31.7508 34.048C29.6601 31.7866 28.6148 29.056 28.6148 25.856V1.53598C28.6148 0.853308 27.8254 0.511974 26.2468 0.511974V-2.67029e-05H38.9828ZM53.5668 36.864C55.1454 36.864 55.9348 36.5226 55.9348 35.84V0.575974C55.7214 0.533307 55.0814 0.511974 54.0148 0.511974V-2.67029e-05H66.6868V0.511974C65.8334 0.511974 65.3001 0.575975 65.0868 0.703976C64.8734 0.789308 64.7668 0.938641 64.7668 1.15197C64.7668 1.23731 64.7881 1.34398 64.8308 1.47197L77.2468 35.136L77.3108 1.47197C77.3108 0.831974 76.5214 0.511974 74.9428 0.511974V-2.67029e-05H80.5108V0.511974C78.9321 0.511974 78.1428 0.853308 78.1428 1.53598V36.16C78.1428 36.5013 78.2921 36.7146 78.5908 36.8C78.9321 36.8426 79.5721 36.864 80.5108 36.864V37.376H76.0948C74.6441 37.376 73.4494 37.2693 72.5108 37.056C71.6148 36.8 70.8681 36.352 70.2708 35.712C69.6734 35.072 69.2254 34.4746 68.9268 33.92C68.6281 33.3653 68.2441 32.4693 67.7748 31.232L56.8308 1.53598L56.7668 35.904C56.8094 36.544 57.5988 36.864 59.1348 36.864V37.376H53.5668V36.864ZM1.53601 53.344C2.56001 52.4906 3.90401 52.064 5.56801 52.064C7.31734 52.064 9.25867 52.512 11.392 53.408C13.5253 54.304 15.04 54.752 15.936 54.752C17.6 54.752 19.4133 53.8346 21.376 52C21.504 53.024 21.568 54.0906 21.568 55.2C21.568 57.1626 21.184 59.04 20.416 60.832C19.648 62.5813 18.7093 64.1386 17.6 65.504C16.5333 66.8266 15.4667 68.128 14.4 69.408C13.3333 70.688 12.416 72.096 11.648 73.632C10.88 75.1253 10.496 76.6613 10.496 78.24C10.496 79.3066 10.7093 80.4586 11.136 81.696C11.5627 82.8906 11.776 83.8293 11.776 84.512C11.776 84.64 11.776 84.7893 11.776 84.96C11.776 86.1973 11.392 87.2426 10.624 88.096C9.89867 88.9493 8.83201 89.376 7.42401 89.376C5.80267 89.376 4.52267 88.736 3.58401 87.456C2.68801 86.176 2.19734 84.512 2.11201 82.464C2.11201 82.336 2.11201 82.208 2.11201 82.08C2.11201 80.2026 2.70934 78.0693 3.90401 75.68C5.09867 73.2906 6.97601 71.0933 9.53601 69.088C10.1333 68.6186 11.072 67.9573 12.352 67.104C13.632 66.208 14.592 65.4826 15.232 64.928C15.9147 64.3733 16.704 63.6266 17.6 62.688C18.496 61.7066 19.2 60.5973 19.712 59.36C20.224 58.1226 20.608 56.7146 20.864 55.136C19.2853 57.9946 17.0667 59.424 14.208 59.424C12.9707 59.424 11.2 59.04 8.89601 58.272C6.63467 57.504 5.16267 57.12 4.48001 57.12C4.43734 57.12 4.37334 57.12 4.28801 57.12C3.00801 57.12 2.30401 57.4186 2.17601 58.016C2.04801 58.5706 1.98401 58.9546 1.98401 59.168C1.98401 59.9786 2.38934 60.7893 3.20001 61.6C1.06667 60.4906 7.27177e-06 58.848 7.27177e-06 56.672C7.27177e-06 55.3493 0.512007 54.24 1.53601 53.344ZM24.113 89.376V88.864C25.6917 88.864 26.481 88.5226 26.481 87.84V53.536C26.481 52.8533 25.6917 52.512 24.113 52.512V52H34.481C35.4197 52 36.1663 52.0213 36.721 52.064C37.3183 52.064 38.1717 52.128 39.281 52.256C40.433 52.384 41.3717 52.5973 42.097 52.896C42.865 53.152 43.7183 53.5573 44.657 54.112C45.6383 54.624 46.4063 55.264 46.961 56.032C47.5583 56.8 48.049 57.8026 48.433 59.04C48.8597 60.2346 49.073 61.6 49.073 63.136C49.073 65.2266 48.7103 67.0186 47.985 68.512C47.2597 70.0053 46.4277 71.1146 45.489 71.84C44.5503 72.5653 43.3557 73.1413 41.905 73.568C40.497 73.9946 39.345 74.2506 38.449 74.336C37.553 74.3786 36.5077 74.4 35.313 74.4C34.9717 74.4 34.737 74.464 34.609 74.592C34.5237 74.72 34.481 75.0613 34.481 75.616V87.84C34.481 88.5226 35.2703 88.864 36.849 88.864V89.376H24.113ZM34.481 73.504C34.481 73.5466 34.5237 73.6106 34.609 73.696C34.6943 73.7813 34.8223 73.824 34.993 73.824C35.5903 73.824 36.081 73.8026 36.465 73.76C36.8917 73.6746 37.425 73.44 38.065 73.056C38.705 72.672 39.217 72.1386 39.601 71.456C39.985 70.7306 40.3263 69.664 40.625 68.256C40.9237 66.848 41.073 65.1413 41.073 63.136C41.073 60.704 40.8597 58.6986 40.433 57.12C40.049 55.5413 39.4943 54.4533 38.769 53.856C38.0437 53.2586 37.425 52.896 36.913 52.768C36.4437 52.5973 35.8677 52.512 35.185 52.512C34.9717 52.512 34.801 52.5546 34.673 52.64C34.5877 52.7253 34.5237 52.8106 34.481 52.896V73.504ZM50.348 89.376V88.864C51.9267 88.864 52.716 88.5226 52.716 87.84V52.64C52.4173 52.5546 51.7347 52.512 50.668 52.512V52H63.468V52.512C62.6573 52.512 62.124 52.576 61.868 52.704C61.612 52.7893 61.484 52.9386 61.484 53.152C61.484 53.1946 61.484 53.2586 61.484 53.344L67.948 74.848L74.476 52.96C74.3053 52.6613 73.6867 52.512 72.62 52.512V52H84.972V52.512C83.3933 52.512 82.604 52.8533 82.604 53.536V87.84C82.604 88.5226 83.3933 88.864 84.972 88.864V89.376H72.236V88.864C73.8147 88.864 74.604 88.5226 74.604 87.84V55.584L64.364 89.376L53.612 53.856L53.548 87.84C53.548 88.5226 54.3373 88.864 55.916 88.864V89.376H50.348Z" fill="#D20000"/>
</svg>
