<svg width="332" height="116" viewBox="0 0 332 116" fill="none" xmlns="http://www.w3.org/2000/svg">
<path d="M-1.47987e-06 2.98995H27.17V9.87995C25.2633 9.87995 23.8983 9.66328 23.075 9.22995C22.2517 8.79662 21.645 7.84328 21.255 6.36995C21.0383 5.50328 20.6267 4.83162 20.02 4.35495C19.4133 3.87828 18.8717 3.61828 18.395 3.57495L17.68 3.50995V39.39C17.68 40.0833 18.4817 40.43 20.085 40.43V40.95H7.15V40.43C8.75333 40.43 9.555 40.0833 9.555 39.39V3.50995C9.33833 3.50995 9.05667 3.53162 8.71 3.57495C8.40667 3.61828 7.93 3.87828 7.28 4.35495C6.63 4.83162 6.175 5.50328 5.915 6.36995C5.525 7.84328 4.91833 8.79662 4.095 9.22995C3.27167 9.66328 1.90667 9.87995 -1.47987e-06 9.87995V2.98995ZM28.501 40.95V40.43C29.9743 40.43 30.711 40.0833 30.711 39.39V4.61495C30.711 3.87828 29.9743 3.50995 28.501 3.50995V2.98995C32.7043 2.98995 36.1276 2.01495 38.771 0.0649506V18.005C38.8576 17.7016 39.0093 17.355 39.226 16.965C39.4426 16.5316 39.811 15.9466 40.331 15.2099C40.851 14.4733 41.566 13.8666 42.476 13.3899C43.4293 12.8699 44.4693 12.6099 45.596 12.6099C48.0226 12.6099 49.7343 13.4116 50.731 15.0149C51.7276 16.6183 52.226 19.0016 52.226 22.165V39.39C52.226 40.0833 53.006 40.43 54.566 40.43V40.95H42.736V40.43C43.646 40.43 44.1226 40.105 44.166 39.455V18.135C44.166 16.2283 43.646 15.275 42.606 15.275C42.5626 15.275 42.4976 15.275 42.411 15.275C41.4576 15.3183 40.656 15.8816 40.006 16.965C39.356 18.0483 38.9443 19.1316 38.771 20.215V39.455C38.8143 40.105 39.291 40.43 40.201 40.43V40.95H28.501ZM57.4524 20.2799C58.2324 18.4166 59.229 16.9433 60.4424 15.86C61.699 14.7766 62.9774 13.975 64.2774 13.455C65.6207 12.8916 66.899 12.6099 68.1124 12.6099C71.5357 12.6099 74.2007 13.7799 76.1074 16.1199C78.014 18.46 79.0324 21.6666 79.1624 25.74L63.9524 25.805C63.9524 29.185 64.559 31.9583 65.7724 34.125C67.029 36.2916 68.9357 37.4183 71.4924 37.505C72.099 37.505 72.6624 37.4616 73.1824 37.375C73.7457 37.245 74.179 37.1366 74.4824 37.05C74.829 36.92 75.2407 36.6816 75.7174 36.335C76.194 35.9883 76.4974 35.7716 76.6274 35.685C76.7574 35.555 77.039 35.2733 77.4724 34.84C77.9057 34.3633 78.1441 34.1033 78.1874 34.06C76.0207 38.6533 72.9007 40.95 68.8274 40.95C65.1007 40.95 62.0674 39.6066 59.7274 36.92C57.3874 34.19 56.2174 30.7666 56.2174 26.65C56.2174 24.31 56.629 22.1866 57.4524 20.2799ZM72.5974 25.025C72.5974 17.0949 71.2757 13.1299 68.6324 13.1299C68.2857 13.1299 67.939 13.1949 67.5924 13.325C67.289 13.4116 66.899 13.715 66.4224 14.235C65.9457 14.7116 65.534 15.3616 65.1874 16.185C64.8407 16.965 64.5374 18.135 64.2774 19.6949C64.0607 21.2116 63.9524 22.9883 63.9524 25.025H72.5974ZM98.4857 16.5749C100.826 13.9316 104.141 12.6099 108.431 12.6099C110.857 12.6099 112.807 13.2383 114.281 14.495C116.187 16.1416 117.141 18.0266 117.141 20.1499C117.141 21.4933 116.686 22.5983 115.776 23.4649C114.909 24.3316 113.869 24.765 112.656 24.765C111.616 24.765 110.706 24.3966 109.926 23.66C109.189 22.88 108.821 21.9916 108.821 20.995C108.821 19.9983 109.102 19.2183 109.666 18.6549C110.272 18.0916 110.966 17.7883 111.746 17.7449C111.832 17.7449 111.941 17.7449 112.071 17.7449C112.331 17.7449 112.634 17.7883 112.981 17.8749C113.371 17.9183 113.609 17.94 113.696 17.94C114.086 17.94 114.281 17.6583 114.281 17.095C114.281 17.0083 114.281 16.9 114.281 16.77C114.237 15.99 113.782 15.2533 112.916 14.5599C112.092 13.8666 111.096 13.4983 109.926 13.455C109.882 13.455 109.839 13.455 109.796 13.455C108.106 13.455 106.481 14.56 104.921 16.77C103.404 18.98 102.624 22.2516 102.581 26.585C102.581 26.8016 102.581 26.9966 102.581 27.17C102.581 30.16 103.231 32.63 104.531 34.58C105.831 36.53 107.607 37.5266 109.861 37.57C110.121 37.5266 110.337 37.505 110.511 37.505C110.727 37.505 110.879 37.5266 110.966 37.57C111.052 37.6133 111.139 37.635 111.226 37.635C111.442 37.635 111.724 37.5483 112.071 37.375C112.461 37.2016 112.742 37.115 112.916 37.115C112.916 37.115 112.916 37.1366 112.916 37.18C112.959 37.18 112.981 37.18 112.981 37.18C113.154 37.18 113.414 37.05 113.761 36.79C114.151 36.53 114.389 36.3783 114.476 36.335C114.606 36.2916 114.822 36.1183 115.126 35.815C115.472 35.5116 115.689 35.3166 115.776 35.23L116.816 34.19C114.736 38.6966 111.637 40.95 107.521 40.95C103.794 40.95 100.739 39.585 98.3557 36.855C95.9723 34.125 94.7807 30.7666 94.7807 26.78C94.8673 22.6633 96.1023 19.2616 98.4857 16.5749ZM123.408 16.1199C125.574 13.7799 128.391 12.6099 131.858 12.6099C135.281 12.6099 138.076 13.8016 140.243 16.185C142.409 18.5249 143.493 22.0783 143.493 26.845C143.493 31.0916 142.366 34.515 140.113 37.115C137.903 39.6716 135.151 40.95 131.858 40.95C128.478 40.95 125.661 39.715 123.408 37.245C121.198 34.7316 120.093 31.265 120.093 26.845C120.093 22.0783 121.198 18.5033 123.408 16.1199ZM128.348 33.28C128.521 35.0566 128.716 36.4 128.933 37.31C129.149 38.22 129.431 38.935 129.778 39.455C130.168 39.9316 130.493 40.2133 130.753 40.3C131.056 40.3866 131.424 40.43 131.858 40.43C132.291 40.43 132.638 40.3866 132.898 40.3C133.158 40.2133 133.461 39.9316 133.808 39.455C134.198 38.935 134.501 38.22 134.718 37.31C134.934 36.4 135.108 35.0566 135.238 33.28C135.411 31.5033 135.498 29.3583 135.498 26.845C135.498 24.3316 135.411 22.1866 135.238 20.41C135.108 18.59 134.934 17.225 134.718 16.315C134.501 15.405 134.198 14.7116 133.808 14.235C133.461 13.715 133.158 13.4116 132.898 13.325C132.638 13.2383 132.291 13.195 131.858 13.195C131.424 13.195 131.056 13.2383 130.753 13.325C130.493 13.4116 130.168 13.715 129.778 14.235C129.431 14.7116 129.149 15.405 128.933 16.315C128.716 17.225 128.521 18.5683 128.348 20.345C128.174 22.165 128.088 24.3316 128.088 26.845C128.088 29.3583 128.174 31.5033 128.348 33.28ZM145.095 16.1199V15.6C149.081 15.6 152.505 14.6033 155.365 12.6099V35.49C155.365 37.44 155.95 38.415 157.12 38.415C157.163 38.415 157.228 38.415 157.315 38.415C158.225 38.3716 158.983 37.8083 159.59 36.725C160.196 35.5983 160.565 34.45 160.695 33.28V17.225C160.695 16.4883 159.98 16.1199 158.55 16.1199V15.6C162.623 15.6 166.046 14.6033 168.82 12.6099V37.765C168.82 39.2383 169.383 39.975 170.51 39.975H170.965V40.495C169.448 40.625 168.126 40.7333 167 40.82C165.916 40.9066 165.201 40.95 164.855 40.95C164.551 40.9933 164.313 41.015 164.14 41.015C161.843 41.015 160.695 39.9316 160.695 37.765V35.88C160.651 36.01 160.565 36.2483 160.435 36.595C160.305 36.8983 160.066 37.31 159.72 37.83C159.373 38.35 158.961 38.8483 158.485 39.325C158.051 39.7583 157.445 40.1483 156.665 40.495C155.885 40.7983 155.04 40.95 154.13 40.95C149.58 40.95 147.305 37.96 147.305 31.98V17.225C147.305 16.4883 146.568 16.1199 145.095 16.1199ZM183.281 12.6099V18.005C183.411 17.5716 183.584 17.1383 183.801 16.7049C184.061 16.2716 184.451 15.7083 184.971 15.0149C185.534 14.3216 186.249 13.7583 187.116 13.325C188.026 12.8483 189.022 12.6099 190.106 12.6099C194.482 12.6099 196.671 15.5566 196.671 21.45V39.39C196.671 40.0833 197.407 40.43 198.881 40.43V40.95H187.181V40.43C188.091 40.43 188.567 40.105 188.611 39.455V18.7849C188.611 17.4849 188.481 16.5749 188.221 16.055C187.961 15.535 187.571 15.275 187.051 15.275C187.007 15.275 186.964 15.275 186.921 15.275C185.967 15.3183 185.144 15.9033 184.451 17.0299C183.801 18.1133 183.411 19.1749 183.281 20.215V39.455C183.281 40.105 183.757 40.43 184.711 40.43V40.95H172.946V40.43C174.419 40.43 175.156 40.0833 175.156 39.39V17.225C175.156 16.4883 174.419 16.1199 172.946 16.1199V15.6C177.062 15.6 180.507 14.6033 183.281 12.6099ZM202.485 12.545C206.212 10.855 208.313 7.66995 208.79 2.98995H210.61V12.545H215.16V13.1299H210.61V29.38C210.61 33.0633 210.913 35.7283 211.52 37.375C212.127 38.9783 213.34 40.17 215.16 40.95C210.437 40.95 207.143 40.2133 205.28 38.74C203.417 37.2233 202.485 34.775 202.485 31.395V12.545ZM214.866 26.585C214.909 22.3383 215.884 18.9583 217.791 16.445C219.741 13.9316 221.907 12.6533 224.291 12.6099C226.977 12.6099 228.776 14.1483 229.686 17.225V4.61495C229.686 3.87828 228.971 3.50995 227.541 3.50995V2.98995C231.614 2.98995 235.037 1.99328 237.811 -5.23925e-05V37.765C237.811 39.2383 238.374 39.975 239.501 39.975H239.956V40.495L234.171 40.95C233.911 40.95 233.672 40.95 233.456 40.95C232.329 40.95 231.419 40.755 230.726 40.365C230.032 39.975 229.686 39.1083 229.686 37.765V37.18C229.209 38.3066 228.429 39.2166 227.346 39.91C226.262 40.6033 225.071 40.95 223.771 40.95C221.344 40.95 219.242 39.8016 217.466 37.505C215.732 35.165 214.866 31.6333 214.866 26.91C214.866 26.8233 214.866 26.715 214.866 26.585ZM223.836 35.685C224.616 37.9383 225.591 39.065 226.761 39.065C227.627 39.065 228.321 38.675 228.841 37.895C229.361 37.115 229.642 36.2483 229.686 35.295V22.035C229.556 19.8683 229.252 18.1566 228.776 16.9C228.342 15.6433 227.541 15.0149 226.371 15.0149C225.331 15.0149 224.442 15.8816 223.706 17.6149C222.969 19.3049 222.601 21.9916 222.601 25.675C222.601 30.095 223.012 33.4316 223.836 35.685ZM244.889 16.1199C247.056 13.7799 249.872 12.6099 253.339 12.6099C256.762 12.6099 259.557 13.8016 261.724 16.185C263.891 18.5249 264.974 22.0783 264.974 26.845C264.974 31.0916 263.847 34.515 261.594 37.115C259.384 39.6716 256.632 40.95 253.339 40.95C249.959 40.95 247.142 39.715 244.889 37.245C242.679 34.7316 241.574 31.265 241.574 26.845C241.574 22.0783 242.679 18.5033 244.889 16.1199ZM249.829 33.28C250.002 35.0566 250.197 36.4 250.414 37.31C250.631 38.22 250.912 38.935 251.259 39.455C251.649 39.9316 251.974 40.2133 252.234 40.3C252.537 40.3866 252.906 40.43 253.339 40.43C253.772 40.43 254.119 40.3866 254.379 40.3C254.639 40.2133 254.942 39.9316 255.289 39.455C255.679 38.935 255.982 38.22 256.199 37.31C256.416 36.4 256.589 35.0566 256.719 33.28C256.892 31.5033 256.979 29.3583 256.979 26.845C256.979 24.3316 256.892 22.1866 256.719 20.41C256.589 18.59 256.416 17.225 256.199 16.315C255.982 15.405 255.679 14.7116 255.289 14.235C254.942 13.715 254.639 13.4116 254.379 13.325C254.119 13.2383 253.772 13.195 253.339 13.195C252.906 13.195 252.537 13.2383 252.234 13.325C251.974 13.4116 251.649 13.715 251.259 14.235C250.912 14.7116 250.631 15.405 250.414 16.315C250.197 17.225 250.002 18.5683 249.829 20.345C249.656 22.165 249.569 24.3316 249.569 26.845C249.569 29.3583 249.656 31.5033 249.829 33.28ZM263.991 12.6099H276.991V13.1299H276.081C275.865 13.1299 275.67 13.1733 275.496 13.2599C275.323 13.3033 275.215 13.3683 275.171 13.455C275.171 13.5416 275.171 13.6066 275.171 13.65C275.171 13.7366 275.171 13.8233 275.171 13.91L278.941 27.885C279.245 29.0983 279.396 29.965 279.396 30.485C279.396 30.5716 279.396 30.68 279.396 30.81C279.396 32.11 278.898 33.41 277.901 34.71C276.905 35.9666 276.406 37.05 276.406 37.96C276.406 38.0033 276.406 38.0466 276.406 38.09C276.623 39.5633 277.381 40.3 278.681 40.3C280.285 40.3 281.39 39.2166 281.996 37.05L285.376 24.3749L282.646 14.235C282.473 13.4983 281.953 13.1299 281.086 13.1299V12.6099H292.331V13.1299C291.421 13.1299 290.966 13.3249 290.966 13.7149C290.966 13.8016 290.966 13.8666 290.966 13.91L294.736 27.885C294.953 28.795 295.105 29.6616 295.191 30.485C295.191 30.5283 295.191 30.5933 295.191 30.68C295.191 32.0233 294.671 33.345 293.631 34.645C292.635 35.945 292.136 37.05 292.136 37.96C292.136 38.0033 292.136 38.0466 292.136 38.09C292.353 39.5633 293.111 40.3 294.411 40.3C296.015 40.3 297.12 39.2166 297.726 37.05L304.031 13.5849C304.031 13.5416 304.031 13.5199 304.031 13.5199C304.031 13.3466 303.923 13.2383 303.706 13.195C303.49 13.1516 302.97 13.1299 302.146 13.1299V12.6099H306.956V13.1299C306.393 13.1299 306.003 13.1516 305.786 13.195C305.57 13.195 305.353 13.2599 305.136 13.3899C304.963 13.4766 304.855 13.65 304.811 13.91L298.571 37.18C297.835 39.6933 296.448 40.95 294.411 40.95C293.415 40.95 292.526 40.7766 291.746 40.43C291.01 40.04 290.403 39.52 289.926 38.87C289.493 38.1766 289.168 37.5916 288.951 37.115C288.778 36.595 288.583 35.9883 288.366 35.295L285.831 26L282.841 37.18C282.018 39.6933 280.631 40.95 278.681 40.95C275.691 40.95 273.655 39.065 272.571 35.295L266.916 14.235C266.743 13.4983 265.768 13.1299 263.991 13.1299V12.6099ZM316.378 12.6099V18.005C316.508 17.5716 316.682 17.1383 316.898 16.7049C317.158 16.2716 317.548 15.7083 318.068 15.0149C318.632 14.3216 319.347 13.7583 320.213 13.325C321.123 12.8483 322.12 12.6099 323.203 12.6099C327.58 12.6099 329.768 15.5566 329.768 21.45V39.39C329.768 40.0833 330.505 40.43 331.978 40.43V40.95H320.278V40.43C321.188 40.43 321.665 40.105 321.708 39.455V18.7849C321.708 17.4849 321.578 16.5749 321.318 16.055C321.058 15.535 320.668 15.275 320.148 15.275C320.105 15.275 320.062 15.275 320.018 15.275C319.065 15.3183 318.242 15.9033 317.548 17.0299C316.898 18.1133 316.508 19.1749 316.378 20.215V39.455C316.378 40.105 316.855 40.43 317.808 40.43V40.95H306.043V40.43C307.517 40.43 308.253 40.0833 308.253 39.39V17.225C308.253 16.4883 307.517 16.1199 306.043 16.1199V15.6C310.16 15.6 313.605 14.6033 316.378 12.6099ZM93.7485 60.5099V59.9899C97.5619 59.9899 101.007 58.9933 104.084 56.9999V74.81C104.734 73.3799 105.774 72.1449 107.204 71.105C108.634 70.065 110.085 69.545 111.559 69.545C113.812 69.545 115.589 70.7366 116.889 73.1199C118.189 75.5033 118.839 78.9483 118.839 83.455C118.839 83.6283 118.839 83.78 118.839 83.91C118.795 88.4166 117.712 91.905 115.589 94.375C113.509 96.8016 111.169 98.015 108.569 98.015C106.402 98.015 104.907 97.3433 104.084 96V95.87C104.084 96.8233 103.477 97.4516 102.264 97.755C101.614 97.885 99.5119 97.95 95.9585 97.95V61.615C95.9585 60.8783 95.2219 60.5099 93.7485 60.5099ZM104.084 77.2799V92.295C104.084 93.8983 104.257 95.025 104.604 95.675C104.95 96.325 105.644 96.65 106.684 96.65C107.334 96.65 107.962 96.325 108.569 95.675C109.175 95.025 109.717 93.8116 110.194 92.035C110.714 90.215 110.974 87.9616 110.974 85.275C110.974 84.885 110.974 84.495 110.974 84.105C110.974 81.6783 110.844 79.5333 110.584 77.67C110.324 75.8066 109.955 74.4633 109.479 73.64C109.002 72.7733 108.439 72.3399 107.789 72.3399C106.835 72.3399 105.969 72.8383 105.189 73.8349C104.452 74.7883 104.084 75.9366 104.084 77.2799ZM123.652 77.2799C124.432 75.4166 125.429 73.9433 126.642 72.86C127.899 71.7766 129.177 70.975 130.477 70.455C131.82 69.8916 133.099 69.6099 134.312 69.6099C137.735 69.6099 140.4 70.7799 142.307 73.1199C144.214 75.46 145.232 78.6666 145.362 82.74L130.152 82.805C130.152 86.185 130.759 88.9583 131.972 91.125C133.229 93.2916 135.135 94.4183 137.692 94.505C138.299 94.505 138.862 94.4616 139.382 94.375C139.945 94.245 140.379 94.1366 140.682 94.05C141.029 93.92 141.44 93.6816 141.917 93.335C142.394 92.9883 142.697 92.7716 142.827 92.685C142.957 92.555 143.239 92.2733 143.672 91.84C144.105 91.3633 144.344 91.1033 144.387 91.06C142.22 95.6533 139.1 97.95 135.027 97.95C131.3 97.95 128.267 96.6066 125.927 93.92C123.587 91.19 122.417 87.7666 122.417 83.65C122.417 81.31 122.829 79.1866 123.652 77.2799ZM138.797 82.025C138.797 74.0949 137.475 70.1299 134.832 70.1299C134.485 70.1299 134.139 70.1949 133.792 70.325C133.489 70.4116 133.099 70.715 132.622 71.235C132.145 71.7116 131.734 72.3616 131.387 73.185C131.04 73.965 130.737 75.135 130.477 76.6949C130.26 78.2116 130.152 79.9883 130.152 82.025H138.797ZM148.535 90.215C148.708 90.0416 148.947 89.825 149.25 89.565C149.597 89.2616 149.835 89.045 149.965 88.915C150.095 88.7416 150.203 88.5683 150.29 88.395C150.42 88.1783 150.485 88.0266 150.485 87.94C150.485 87.7666 150.42 87.6366 150.29 87.55C149.207 85.73 148.665 83.4983 148.665 80.855C148.708 77.215 149.748 74.4416 151.785 72.5349C153.822 70.5849 156.508 69.6099 159.845 69.6099C161.275 69.6099 162.532 69.7833 163.615 70.1299C163.225 69.2199 163.03 68.2233 163.03 67.1399C163.03 65.4933 163.593 64.1066 164.72 62.9799C165.89 61.81 167.233 61.225 168.75 61.225C170.137 61.225 171.263 61.615 172.13 62.3949C173.04 63.1749 173.495 64.1716 173.495 65.3849C173.495 65.4283 173.495 65.4933 173.495 65.5799C173.495 66.6199 173.105 67.5083 172.325 68.245C171.545 68.9383 170.678 69.285 169.725 69.285C169.638 69.285 169.573 69.285 169.53 69.285C168.577 69.2416 167.667 68.7866 166.8 67.92C166.713 67.7899 166.562 67.5949 166.345 67.335C166.128 67.0749 165.955 66.9016 165.825 66.8149C165.738 66.6849 165.608 66.5983 165.435 66.555C165.262 66.4683 165.11 66.425 164.98 66.425C164.937 66.425 164.872 66.425 164.785 66.425C164.005 66.5983 163.615 67.1833 163.615 68.1799C163.615 68.2233 163.615 68.2666 163.615 68.3099C163.615 68.9599 163.767 69.5666 164.07 70.1299C164.547 71.1699 165.392 71.9933 166.605 72.6C167.862 73.2066 169.313 73.51 170.96 73.51V80.66C170.873 84.3433 169.812 87.225 167.775 89.305C165.738 91.385 163.095 92.425 159.845 92.425C156.508 92.425 153.952 91.5583 152.175 89.825C151.828 89.4783 151.46 89.305 151.07 89.305C151.027 89.305 150.962 89.305 150.875 89.305C150.225 89.305 149.51 89.7166 148.73 90.54C147.95 91.3633 147.56 92.2516 147.56 93.205C147.56 93.2483 147.56 93.3133 147.56 93.4C147.56 94.44 147.928 95.1983 148.665 95.675C149.402 96.1516 150.377 96.39 151.59 96.39C151.677 96.39 151.763 96.39 151.85 96.39C153.367 96.39 155.49 96.0216 158.22 95.285C160.95 94.505 163.138 94.115 164.785 94.115C164.872 94.115 164.958 94.115 165.045 94.115C167.862 94.115 169.942 94.895 171.285 96.455C172.628 98.015 173.3 100.052 173.3 102.565C173.3 102.695 173.3 102.847 173.3 103.02C173.213 106.573 171.783 109.607 169.01 112.12C166.237 114.677 162.683 115.955 158.35 115.955C155.533 115.955 152.868 115.218 150.355 113.745C147.885 112.272 146.628 110.3 146.585 107.83C146.585 107.743 146.585 107.678 146.585 107.635C146.585 106.378 146.975 105.382 147.755 104.645C148.535 103.908 149.553 103.54 150.81 103.54C150.853 103.54 150.918 103.54 151.005 103.54C152.132 103.583 152.955 103.952 153.475 104.645C154.038 105.382 154.32 106.162 154.32 106.985C154.32 107.115 154.32 107.245 154.32 107.375C154.233 108.242 153.778 109.065 152.955 109.845C152.175 110.625 151.763 111.297 151.72 111.86C151.72 111.903 151.72 111.925 151.72 111.925C151.72 112.748 152.37 113.55 153.67 114.33C154.97 115.153 156.508 115.565 158.285 115.565C160.582 115.565 162.575 114.893 164.265 113.55C165.998 112.25 166.952 110.647 167.125 108.74C167.255 108.263 167.32 107.808 167.32 107.375C167.32 106.162 166.8 105.1 165.76 104.19C164.763 103.323 163.225 102.89 161.145 102.89C160.755 102.89 160.343 102.912 159.91 102.955C159.477 102.955 159.043 102.955 158.61 102.955C150.593 102.955 146.542 100.572 146.455 95.805C146.455 95.6316 146.455 95.4583 146.455 95.285C146.455 93.2916 147.148 91.6016 148.535 90.215ZM156.725 88.265C157.115 89.955 157.527 90.995 157.96 91.385C158.437 91.7316 159.065 91.905 159.845 91.905C160.582 91.905 161.167 91.7316 161.6 91.385C162.077 90.995 162.51 89.955 162.9 88.265C163.29 86.575 163.485 84.1266 163.485 80.9199C163.485 77.7566 163.29 75.33 162.9 73.64C162.51 71.95 162.077 70.9316 161.6 70.5849C161.167 70.2383 160.582 70.0649 159.845 70.0649C159.065 70.0649 158.437 70.2383 157.96 70.5849C157.527 70.9316 157.115 71.95 156.725 73.64C156.335 75.2866 156.14 77.7133 156.14 80.9199C156.14 84.1266 156.335 86.575 156.725 88.265ZM177.036 96.39V74.225C177.036 73.4883 176.299 73.1199 174.826 73.1199V72.6C178.899 72.6 182.344 71.6033 185.161 69.6099V96.39C185.161 97.0833 185.876 97.43 187.306 97.43V97.95H174.826V97.43C176.299 97.43 177.036 97.0833 177.036 96.39ZM178.531 61.875C179.224 61.1816 180.069 60.8349 181.066 60.8349C182.019 60.8349 182.843 61.2033 183.536 61.9399C184.229 62.6333 184.576 63.4566 184.576 64.4099C184.576 65.4066 184.229 66.2516 183.536 66.9449C182.843 67.6383 182.019 67.9849 181.066 67.9849C180.069 67.9849 179.203 67.6383 178.466 66.9449C177.773 66.2516 177.426 65.4066 177.426 64.4099C177.426 63.4133 177.794 62.5683 178.531 61.875ZM199.618 69.6099V75.005C199.748 74.5716 199.922 74.1383 200.138 73.7049C200.398 73.2716 200.788 72.7083 201.308 72.0149C201.872 71.3216 202.587 70.7583 203.453 70.325C204.363 69.8483 205.36 69.6099 206.443 69.6099C210.82 69.6099 213.008 72.5566 213.008 78.45V96.39C213.008 97.0833 213.745 97.43 215.218 97.43V97.95H203.518V97.43C204.428 97.43 204.905 97.105 204.948 96.455V75.7849C204.948 74.4849 204.818 73.5749 204.558 73.055C204.298 72.535 203.908 72.275 203.388 72.275C203.345 72.275 203.302 72.275 203.258 72.275C202.305 72.3183 201.482 72.9033 200.788 74.0299C200.138 75.1133 199.748 76.1749 199.618 77.215V96.455C199.618 97.105 200.095 97.43 201.048 97.43V97.95H189.283V97.43C190.757 97.43 191.493 97.0833 191.493 96.39V74.225C191.493 73.4883 190.757 73.1199 189.283 73.1199V72.6C193.4 72.6 196.845 71.6033 199.618 69.6099ZM216.548 90.28C216.548 88.9366 216.981 87.8533 217.848 87.03C218.758 86.1633 219.754 85.73 220.838 85.73C220.924 85.73 220.989 85.73 221.033 85.73C222.073 85.7733 222.918 86.12 223.568 86.77C224.218 87.42 224.543 88.3083 224.543 89.435C224.543 89.4783 224.543 89.5433 224.543 89.63C224.499 90.4533 224.239 91.1683 223.763 91.775C223.329 92.3383 222.723 92.62 221.943 92.62C221.596 92.62 221.228 92.5333 220.838 92.36C220.448 92.1866 220.166 92.1 219.993 92.1C219.949 92.1 219.906 92.1 219.863 92.1C219.689 92.1 219.538 92.1866 219.408 92.36C219.278 92.49 219.213 92.7283 219.213 93.075C219.256 94.245 220.123 95.285 221.813 96.195C223.503 97.0616 225.409 97.495 227.533 97.495C229.309 97.495 230.804 97.1266 232.018 96.39C233.274 95.61 233.903 94.5916 233.903 93.335C233.903 91.255 231.259 88.8716 225.973 86.185C222.853 84.625 220.664 83.13 219.408 81.7C218.194 80.27 217.588 78.7533 217.588 77.1499C217.588 74.68 218.649 72.8166 220.773 71.5599C222.939 70.3033 225.323 69.6749 227.923 69.6749C228.009 69.6749 228.096 69.6749 228.183 69.6749C230.999 69.6749 233.231 70.3033 234.878 71.5599C236.568 72.8166 237.434 74.225 237.478 75.7849C237.478 75.8283 237.478 75.8933 237.478 75.9799C237.478 76.89 237.174 77.67 236.568 78.32C235.961 78.9266 235.181 79.23 234.228 79.23C233.058 79.1866 232.148 78.84 231.498 78.1899C230.891 77.54 230.588 76.8466 230.588 76.1099C230.588 75.8933 230.609 75.6766 230.653 75.46C230.739 74.8966 231.151 74.2899 231.888 73.64C232.668 72.9899 233.058 72.4483 233.058 72.0149C233.058 71.885 233.014 71.755 232.928 71.6249C231.974 70.6283 230.349 70.1299 228.053 70.1299C227.966 70.1299 227.879 70.1299 227.793 70.1299C226.406 70.1299 225.193 70.5199 224.153 71.2999C223.113 72.0799 222.593 73.0116 222.593 74.095C222.593 75.785 223.914 77.2583 226.558 78.5149C231.194 80.6383 234.249 82.2633 235.723 83.39C237.803 85.1233 238.864 87.03 238.908 89.11C238.908 91.84 237.954 94.0066 236.048 95.61C234.141 97.17 231.303 97.95 227.533 97.95C224.499 97.95 221.899 97.2783 219.733 95.935C217.609 94.5916 216.548 92.7066 216.548 90.28Z" fill="#005494"/>
</svg>
