<svg width="115" height="37" viewBox="0 0 115 37" fill="none" xmlns="http://www.w3.org/2000/svg">
<path d="M7.67999 1.83995V2.15995H7.56C6.99999 2.15995 6.71999 2.26662 6.71999 2.47995C6.71999 2.53328 6.73333 2.59995 6.75999 2.67995L10.8 16.12L12.6 10.08L10.36 2.75995C10.2267 2.35995 9.81333 2.15995 9.11999 2.15995V1.83995H16.6V2.15995C15.8267 2.15995 15.4133 2.21328 15.36 2.31995C15.3333 2.37328 15.32 2.42662 15.32 2.47995C15.32 2.53328 15.3333 2.59995 15.36 2.67995L19.4 16.12L23.4 2.67995C23.4267 2.59995 23.44 2.53328 23.44 2.47995C23.44 2.37328 23.36 2.29328 23.2 2.23995C23.0667 2.18662 22.7333 2.15995 22.2 2.15995V1.83995H25.72V2.15995C25.0533 2.15995 24.6 2.18662 24.36 2.23995C24.1467 2.29328 24.0133 2.43995 23.96 2.67995L17.16 25.2L12.84 11L8.55999 25.2L1.75999 2.75995C1.67999 2.49328 1.50666 2.33328 1.23999 2.27995C0.999995 2.19995 0.586661 2.15995 -5.31226e-06 2.15995V1.83995H7.67999ZM23.8803 12.48C24.3603 11.3333 24.9736 10.4266 25.7203 9.75995C26.4936 9.09328 27.2803 8.59995 28.0803 8.27995C28.907 7.93328 29.6936 7.75995 30.4403 7.75995C32.547 7.75995 34.187 8.47995 35.3603 9.91995C36.5336 11.36 37.1603 13.3333 37.2403 15.84L27.8803 15.88C27.8803 17.96 28.2536 19.6666 29.0003 21C29.7736 22.3333 30.947 23.0266 32.5203 23.08C32.8936 23.08 33.2403 23.0533 33.5603 23C33.907 22.92 34.1736 22.8533 34.3603 22.8C34.5736 22.72 34.827 22.5733 35.1203 22.36C35.4136 22.1466 35.6003 22.0133 35.6803 21.96C35.7603 21.88 35.9336 21.7066 36.2003 21.44C36.467 21.1466 36.6136 20.9866 36.6403 20.96C35.307 23.7866 33.387 25.2 30.8803 25.2C28.587 25.2 26.7203 24.3733 25.2803 22.72C23.8403 21.04 23.1203 18.9333 23.1203 16.4C23.1203 14.96 23.3736 13.6533 23.8803 12.48ZM33.2003 15.4C33.2003 10.52 32.387 8.07995 30.7603 8.07995C30.547 8.07995 30.3336 8.11995 30.1203 8.19995C29.9336 8.25328 29.6936 8.43995 29.4003 8.75995C29.107 9.05328 28.8536 9.45328 28.6403 9.95995C28.427 10.44 28.2403 11.16 28.0803 12.12C27.947 13.0533 27.8803 14.1466 27.8803 15.4H33.2003ZM38.8141 16.36C38.8407 13.7466 39.4407 11.6666 40.6141 10.12C41.8141 8.57328 43.1474 7.78662 44.6141 7.75995C46.2674 7.75995 47.3741 8.70662 47.9341 10.6V2.83995C47.9341 2.38662 47.4941 2.15995 46.6141 2.15995V1.83995C49.1207 1.83995 51.2274 1.22662 52.9341 -5.10216e-05V23.24C52.9341 24.1466 53.2807 24.6 53.9741 24.6H54.2541V24.92L50.6941 25.2C50.5341 25.2 50.3874 25.2 50.2541 25.2C49.5607 25.2 49.0007 25.08 48.5741 24.84C48.1474 24.6 47.9341 24.0666 47.9341 23.24V22.88C47.6407 23.5733 47.1607 24.1333 46.4941 24.56C45.8274 24.9866 45.0941 25.2 44.2941 25.2C42.8007 25.2 41.5074 24.4933 40.4141 23.08C39.3474 21.64 38.8141 19.4666 38.8141 16.56C38.8141 16.5066 38.8141 16.44 38.8141 16.36ZM44.3341 21.96C44.8141 23.3466 45.4141 24.04 46.1341 24.04C46.6674 24.04 47.0941 23.8 47.4141 23.32C47.7341 22.84 47.9074 22.3066 47.9341 21.72V13.56C47.8541 12.2266 47.6674 11.1733 47.3741 10.4C47.1074 9.62662 46.6141 9.23995 45.8941 9.23995C45.2541 9.23995 44.7074 9.77328 44.2541 10.84C43.8007 11.88 43.5741 13.5333 43.5741 15.8C43.5741 18.52 43.8274 20.5733 44.3341 21.96ZM55.25 16.36C55.2767 13.7466 55.8767 11.6666 57.05 10.12C58.25 8.57328 59.5833 7.78662 61.05 7.75995C62.7033 7.75995 63.81 8.70662 64.37 10.6V2.83995C64.37 2.38662 63.93 2.15995 63.05 2.15995V1.83995C65.5567 1.83995 67.6633 1.22662 69.37 -5.10216e-05V23.24C69.37 24.1466 69.7167 24.6 70.41 24.6H70.69V24.92L67.13 25.2C66.97 25.2 66.8233 25.2 66.69 25.2C65.9967 25.2 65.4367 25.08 65.01 24.84C64.5833 24.6 64.37 24.0666 64.37 23.24V22.88C64.0767 23.5733 63.5967 24.1333 62.93 24.56C62.2633 24.9866 61.53 25.2 60.73 25.2C59.2367 25.2 57.9433 24.4933 56.85 23.08C55.7833 21.64 55.25 19.4666 55.25 16.56C55.25 16.5066 55.25 16.44 55.25 16.36ZM60.77 21.96C61.25 23.3466 61.85 24.04 62.57 24.04C63.1033 24.04 63.53 23.8 63.85 23.32C64.17 22.84 64.3433 22.3066 64.37 21.72V13.56C64.29 12.2266 64.1033 11.1733 63.81 10.4C63.5433 9.62662 63.05 9.23995 62.33 9.23995C61.69 9.23995 61.1433 9.77328 60.69 10.84C60.2367 11.88 60.01 13.5333 60.01 15.8C60.01 18.52 60.2633 20.5733 60.77 21.96ZM73.2459 24.24V10.6C73.2459 10.1466 72.7926 9.91995 71.8859 9.91995V9.59995C74.3926 9.59995 76.5126 8.98662 78.2459 7.75995V24.24C78.2459 24.6666 78.6859 24.88 79.5659 24.88V25.2H71.8859V24.88C72.7926 24.88 73.2459 24.6666 73.2459 24.24ZM74.1659 2.99995C74.5926 2.57328 75.1126 2.35995 75.7259 2.35995C76.3126 2.35995 76.8193 2.58662 77.2459 3.03995C77.6726 3.46662 77.8859 3.97328 77.8859 4.55995C77.8859 5.17328 77.6726 5.69328 77.2459 6.11995C76.8193 6.54662 76.3126 6.75995 75.7259 6.75995C75.1126 6.75995 74.5793 6.54662 74.1259 6.11995C73.6993 5.69328 73.4859 5.17328 73.4859 4.55995C73.4859 3.94662 73.7126 3.42662 74.1659 2.99995ZM87.1428 7.75995V11.08C87.2228 10.8133 87.3295 10.5466 87.4628 10.28C87.6228 10.0133 87.8628 9.66662 88.1828 9.23995C88.5295 8.81328 88.9695 8.46662 89.5028 8.19995C90.0628 7.90662 90.6761 7.75995 91.3428 7.75995C94.0361 7.75995 95.3828 9.57328 95.3828 13.2V24.24C95.3828 24.6666 95.8361 24.88 96.7428 24.88V25.2H89.5428V24.88C90.1028 24.88 90.3961 24.68 90.4228 24.28V11.56C90.4228 10.76 90.3428 10.2 90.1828 9.87995C90.0228 9.55995 89.7828 9.39995 89.4628 9.39995C89.4361 9.39995 89.4095 9.39995 89.3828 9.39995C88.7961 9.42662 88.2895 9.78662 87.8628 10.4799C87.4628 11.1466 87.2228 11.8 87.1428 12.44V24.28C87.1428 24.68 87.4361 24.88 88.0228 24.88V25.2H80.7828V24.88C81.6895 24.88 82.1428 24.6666 82.1428 24.24V10.6C82.1428 10.1466 81.6895 9.91995 80.7828 9.91995V9.59995C83.3161 9.59995 85.4361 8.98662 87.1428 7.75995ZM98.9209 20.44C99.0276 20.3333 99.1743 20.2 99.3609 20.04C99.5743 19.8533 99.7209 19.72 99.8009 19.64C99.8809 19.5333 99.9476 19.4266 100.001 19.32C100.081 19.1866 100.121 19.0933 100.121 19.04C100.121 18.9333 100.081 18.8533 100.001 18.8C99.3343 17.68 99.0009 16.3066 99.0009 14.68C99.0276 12.44 99.6676 10.7333 100.921 9.55995C102.174 8.35995 103.828 7.75995 105.881 7.75995C106.761 7.75995 107.534 7.86662 108.201 8.07995C107.961 7.51995 107.841 6.90662 107.841 6.23995C107.841 5.22662 108.188 4.37328 108.881 3.67995C109.601 2.95995 110.428 2.59995 111.361 2.59995C112.214 2.59995 112.908 2.83995 113.441 3.31995C114.001 3.79995 114.281 4.41328 114.281 5.15995C114.281 5.18662 114.281 5.22662 114.281 5.27995C114.281 5.91995 114.041 6.46662 113.561 6.91995C113.081 7.34662 112.548 7.55995 111.961 7.55995C111.908 7.55995 111.868 7.55995 111.841 7.55995C111.254 7.53328 110.694 7.25328 110.161 6.71995C110.108 6.63995 110.014 6.51995 109.881 6.35995C109.748 6.19995 109.641 6.09328 109.561 6.03995C109.508 5.95995 109.428 5.90662 109.321 5.87995C109.214 5.82662 109.121 5.79995 109.041 5.79995C109.014 5.79995 108.974 5.79995 108.921 5.79995C108.441 5.90662 108.201 6.26662 108.201 6.87995C108.201 6.90662 108.201 6.93328 108.201 6.95995C108.201 7.35995 108.294 7.73328 108.481 8.07995C108.774 8.71995 109.294 9.22662 110.041 9.59995C110.814 9.97328 111.708 10.16 112.721 10.16V14.56C112.668 16.8266 112.014 18.6 110.761 19.88C109.508 21.16 107.881 21.8 105.881 21.8C103.828 21.8 102.254 21.2666 101.161 20.2C100.948 19.9866 100.721 19.88 100.481 19.88C100.454 19.88 100.414 19.88 100.361 19.88C99.9609 19.88 99.5209 20.1333 99.0409 20.64C98.5609 21.1466 98.3209 21.6933 98.3209 22.28C98.3209 22.3066 98.3209 22.3466 98.3209 22.4C98.3209 23.04 98.5476 23.5066 99.0009 23.8C99.4543 24.0933 100.054 24.24 100.801 24.24C100.854 24.24 100.908 24.24 100.961 24.24C101.894 24.24 103.201 24.0133 104.881 23.56C106.561 23.08 107.908 22.84 108.921 22.84C108.974 22.84 109.028 22.84 109.081 22.84C110.814 22.84 112.094 23.32 112.921 24.28C113.748 25.24 114.161 26.4933 114.161 28.04C114.161 28.12 114.161 28.2133 114.161 28.32C114.108 30.5066 113.228 32.3733 111.521 33.92C109.814 35.4933 107.628 36.28 104.961 36.28C103.228 36.28 101.588 35.8266 100.041 34.92C98.5209 34.0133 97.7476 32.8 97.7209 31.28C97.7209 31.2266 97.7209 31.1866 97.7209 31.16C97.7209 30.3866 97.9609 29.7733 98.4409 29.32C98.9209 28.8666 99.5476 28.64 100.321 28.64C100.348 28.64 100.388 28.64 100.441 28.64C101.134 28.6666 101.641 28.8933 101.961 29.32C102.308 29.7733 102.481 30.2533 102.481 30.76C102.481 30.84 102.481 30.92 102.481 31C102.428 31.5333 102.148 32.04 101.641 32.52C101.161 33 100.908 33.4133 100.881 33.76C100.881 33.7866 100.881 33.8 100.881 33.8C100.881 34.3066 101.281 34.8 102.081 35.28C102.881 35.7866 103.828 36.04 104.921 36.04C106.334 36.04 107.561 35.6266 108.601 34.8C109.668 34 110.254 33.0133 110.361 31.84C110.441 31.5466 110.481 31.2666 110.481 31C110.481 30.2533 110.161 29.6 109.521 29.04C108.908 28.5066 107.961 28.24 106.681 28.24C106.441 28.24 106.188 28.2533 105.921 28.28C105.654 28.28 105.388 28.28 105.121 28.28C100.188 28.28 97.6943 26.8133 97.6409 23.88C97.6409 23.7733 97.6409 23.6666 97.6409 23.56C97.6409 22.3333 98.0676 21.2933 98.9209 20.44ZM103.961 19.24C104.201 20.28 104.454 20.92 104.721 21.16C105.014 21.3733 105.401 21.48 105.881 21.48C106.334 21.48 106.694 21.3733 106.961 21.16C107.254 20.92 107.521 20.28 107.761 19.24C108.001 18.2 108.121 16.6933 108.121 14.72C108.121 12.7733 108.001 11.28 107.761 10.24C107.521 9.19995 107.254 8.57328 106.961 8.35995C106.694 8.14662 106.334 8.03995 105.881 8.03995C105.401 8.03995 105.014 8.14662 104.721 8.35995C104.454 8.57328 104.201 9.19995 103.961 10.24C103.721 11.2533 103.601 12.7466 103.601 14.72C103.601 16.6933 103.721 18.2 103.961 19.24Z" fill="#005594"/>
</svg>
