<svg width="320" height="125" viewBox="0 0 320 125" fill="none" xmlns="http://www.w3.org/2000/svg">
<path d="M41.1149 2.40004V2.64004H41.0249C40.6049 2.64004 40.3949 2.72004 40.3949 2.88004C40.3949 2.92004 40.4049 2.97004 40.4249 3.03004L43.4549 13.11L44.8049 8.58004L43.1249 3.09004C43.0249 2.79004 42.7149 2.64004 42.1949 2.64004V2.40004H47.8049V2.64004C47.2249 2.64004 46.9149 2.68004 46.8749 2.76004C46.8549 2.80004 46.8449 2.84004 46.8449 2.88004C46.8449 2.92004 46.8549 2.97004 46.8749 3.03004L49.9049 13.11L52.9049 3.03004C52.9249 2.97004 52.9349 2.92004 52.9349 2.88004C52.9349 2.80004 52.8749 2.74004 52.7549 2.70004C52.6549 2.66004 52.4049 2.64004 52.0049 2.64004V2.40004H54.6449V2.64004C54.1449 2.64004 53.8049 2.66004 53.6249 2.70004C53.4649 2.74004 53.3649 2.85004 53.3249 3.03004L48.2249 19.92L44.9849 9.27004L41.7749 19.92L36.6749 3.09004C36.6149 2.89004 36.4849 2.77004 36.2849 2.73004C36.1049 2.67004 35.7949 2.64004 35.3549 2.64004V2.40004H41.1149ZM54.1581 19.2V8.97004C54.1581 8.63004 53.8181 8.46004 53.1381 8.46004V8.22004C55.0181 8.22004 56.6081 7.76004 57.9081 6.84004V19.2C57.9081 19.52 58.2381 19.68 58.8981 19.68V19.92H53.1381V19.68C53.8181 19.68 54.1581 19.52 54.1581 19.2ZM54.8481 3.27004C55.1681 2.95004 55.5581 2.79004 56.0181 2.79004C56.4581 2.79004 56.8381 2.96004 57.1581 3.30004C57.4781 3.62004 57.6381 4.00004 57.6381 4.44004C57.6381 4.90004 57.4781 5.29004 57.1581 5.61004C56.8381 5.93004 56.4581 6.09004 56.0181 6.09004C55.5581 6.09004 55.1581 5.93004 54.8181 5.61004C54.4981 5.29004 54.3381 4.90004 54.3381 4.44004C54.3381 3.98004 54.5081 3.59004 54.8481 3.27004ZM60.5607 6.81004C62.2807 6.03004 63.2507 4.56004 63.4707 2.40004H64.3107V6.81004H66.4107V7.08004H64.3107V14.58C64.3107 16.28 64.4507 17.51 64.7307 18.27C65.0107 19.01 65.5707 19.56 66.4107 19.92C64.2307 19.92 62.7107 19.58 61.8507 18.9C60.9907 18.2 60.5607 17.07 60.5607 15.51V6.81004ZM66.4248 19.92V19.68C67.1048 19.68 67.4448 19.52 67.4448 19.2V3.15004C67.4448 2.81004 67.1048 2.64004 66.4248 2.64004V2.40004C68.3648 2.40004 69.9448 1.95004 71.1648 1.05004V9.33004C71.2048 9.19004 71.2748 9.03004 71.3748 8.85004C71.4748 8.65004 71.6448 8.38004 71.8848 8.04004C72.1248 7.70004 72.4548 7.42004 72.8748 7.20004C73.3148 6.96004 73.7948 6.84004 74.3148 6.84004C75.4348 6.84004 76.2248 7.21004 76.6848 7.95004C77.1448 8.69004 77.3748 9.79004 77.3748 11.25V19.2C77.3748 19.52 77.7348 19.68 78.4548 19.68V19.92H72.9948V19.68C73.4148 19.68 73.6348 19.53 73.6548 19.23V9.39004C73.6548 8.51004 73.4148 8.07004 72.9348 8.07004C72.9148 8.07004 72.8848 8.07004 72.8448 8.07004C72.4048 8.09004 72.0348 8.35004 71.7348 8.85004C71.4348 9.35004 71.2448 9.85004 71.1648 10.35V19.23C71.1848 19.53 71.4048 19.68 71.8248 19.68V19.92H66.4248ZM86.701 16.35C86.781 16.27 86.891 16.17 87.031 16.05C87.191 15.91 87.301 15.81 87.361 15.75C87.421 15.67 87.471 15.59 87.511 15.51C87.571 15.41 87.601 15.34 87.601 15.3C87.601 15.22 87.571 15.16 87.511 15.12C87.011 14.28 86.761 13.25 86.761 12.03C86.781 10.35 87.261 9.07004 88.201 8.19004C89.141 7.29004 90.381 6.84004 91.921 6.84004C92.581 6.84004 93.161 6.92004 93.661 7.08004C93.481 6.66004 93.391 6.20004 93.391 5.70004C93.391 4.94004 93.651 4.30004 94.171 3.78004C94.711 3.24004 95.331 2.97004 96.031 2.97004C96.671 2.97004 97.191 3.15004 97.591 3.51004C98.011 3.87004 98.221 4.33004 98.221 4.89004C98.221 4.91004 98.221 4.94004 98.221 4.98004C98.221 5.46004 98.041 5.87004 97.681 6.21004C97.321 6.53004 96.921 6.69004 96.481 6.69004C96.441 6.69004 96.411 6.69004 96.391 6.69004C95.951 6.67004 95.531 6.46004 95.131 6.06004C95.091 6.00004 95.021 5.91004 94.921 5.79004C94.821 5.67004 94.741 5.59004 94.681 5.55004C94.641 5.49004 94.581 5.45004 94.501 5.43004C94.421 5.39004 94.351 5.37004 94.291 5.37004C94.271 5.37004 94.241 5.37004 94.201 5.37004C93.841 5.45004 93.661 5.72004 93.661 6.18004C93.661 6.20004 93.661 6.22004 93.661 6.24004C93.661 6.54004 93.731 6.82004 93.871 7.08004C94.091 7.56004 94.481 7.94004 95.041 8.22004C95.621 8.50004 96.291 8.64004 97.051 8.64004V11.94C97.011 13.64 96.521 14.97 95.581 15.93C94.641 16.89 93.421 17.37 91.921 17.37C90.381 17.37 89.201 16.97 88.381 16.17C88.221 16.01 88.051 15.93 87.871 15.93C87.851 15.93 87.821 15.93 87.781 15.93C87.481 15.93 87.151 16.12 86.791 16.5C86.431 16.88 86.251 17.29 86.251 17.73C86.251 17.75 86.251 17.78 86.251 17.82C86.251 18.3 86.421 18.65 86.761 18.87C87.101 19.09 87.551 19.2 88.111 19.2C88.151 19.2 88.191 19.2 88.231 19.2C88.931 19.2 89.911 19.03 91.171 18.69C92.431 18.33 93.441 18.15 94.201 18.15C94.241 18.15 94.281 18.15 94.321 18.15C95.621 18.15 96.581 18.51 97.201 19.23C97.821 19.95 98.131 20.89 98.131 22.05C98.131 22.11 98.131 22.18 98.131 22.26C98.091 23.9 97.431 25.3 96.151 26.46C94.871 27.64 93.231 28.23 91.231 28.23C89.931 28.23 88.701 27.89 87.541 27.21C86.401 26.53 85.821 25.62 85.801 24.48C85.801 24.44 85.801 24.41 85.801 24.39C85.801 23.81 85.981 23.35 86.341 23.01C86.701 22.67 87.171 22.5 87.751 22.5C87.771 22.5 87.801 22.5 87.841 22.5C88.361 22.52 88.741 22.69 88.981 23.01C89.241 23.35 89.371 23.71 89.371 24.09C89.371 24.15 89.371 24.21 89.371 24.27C89.331 24.67 89.121 25.05 88.741 25.41C88.381 25.77 88.191 26.08 88.171 26.34C88.171 26.36 88.171 26.37 88.171 26.37C88.171 26.75 88.471 27.12 89.071 27.48C89.671 27.86 90.381 28.05 91.201 28.05C92.261 28.05 93.181 27.74 93.961 27.12C94.761 26.52 95.201 25.78 95.281 24.9C95.341 24.68 95.371 24.47 95.371 24.27C95.371 23.71 95.131 23.22 94.651 22.8C94.191 22.4 93.481 22.2 92.521 22.2C92.341 22.2 92.151 22.21 91.951 22.23C91.751 22.23 91.551 22.23 91.351 22.23C87.651 22.23 85.781 21.13 85.741 18.93C85.741 18.85 85.741 18.77 85.741 18.69C85.741 17.77 86.061 16.99 86.701 16.35ZM90.481 15.45C90.661 16.23 90.851 16.71 91.051 16.89C91.271 17.05 91.561 17.13 91.921 17.13C92.261 17.13 92.531 17.05 92.731 16.89C92.951 16.71 93.151 16.23 93.331 15.45C93.511 14.67 93.601 13.54 93.601 12.06C93.601 10.6 93.511 9.48004 93.331 8.70004C93.151 7.92004 92.951 7.45004 92.731 7.29004C92.531 7.13004 92.261 7.05004 91.921 7.05004C91.561 7.05004 91.271 7.13004 91.051 7.29004C90.851 7.45004 90.661 7.92004 90.481 8.70004C90.301 9.46004 90.211 10.58 90.211 12.06C90.211 13.54 90.301 14.67 90.481 15.45ZM98.8353 8.46004V8.22004C100.655 8.22004 102.235 7.76004 103.575 6.84004V9.15004C104.135 7.85004 105.085 7.20004 106.425 7.20004C107.245 7.20004 107.915 7.41004 108.435 7.83004C108.955 8.25004 109.215 8.83004 109.215 9.57004C109.215 9.61004 109.215 9.64004 109.215 9.66004C109.215 10.22 109.045 10.66 108.705 10.98C108.385 11.28 108.005 11.43 107.565 11.43C107.125 11.43 106.735 11.3 106.395 11.04C106.055 10.76 105.875 10.36 105.855 9.84004C105.855 9.56004 105.945 9.24004 106.125 8.88004C106.305 8.52004 106.395 8.29004 106.395 8.19004C106.395 8.05004 106.315 7.95004 106.155 7.89004C105.995 7.83004 105.845 7.80004 105.705 7.80004C105.665 7.80004 105.625 7.80004 105.585 7.80004C105.165 7.84004 104.765 8.05004 104.385 8.43004C104.025 8.79004 103.755 9.33004 103.575 10.05V19.2C103.575 19.52 103.915 19.68 104.595 19.68V19.92H98.8353V19.68C99.5153 19.68 99.8553 19.52 99.8553 19.2V8.97004C99.8553 8.63004 99.5153 8.46004 98.8353 8.46004ZM109.229 16.26C109.229 14.94 109.679 13.95 110.579 13.29C111.499 12.63 112.739 12.29 114.299 12.27C114.859 12.27 115.339 12.22 115.739 12.12C116.859 11.78 117.419 10.96 117.419 9.66004C117.419 8.92004 117.159 8.31004 116.639 7.83004C116.119 7.33004 115.429 7.08004 114.569 7.08004C113.869 7.08004 113.299 7.18004 112.859 7.38004C112.419 7.58004 112.179 7.83004 112.139 8.13004C112.139 8.19004 112.139 8.24004 112.139 8.28004C112.139 8.34004 112.129 8.38004 112.109 8.40004C112.109 8.40004 112.109 8.41004 112.109 8.43004C112.109 8.45004 112.139 8.50004 112.199 8.58004C112.259 8.66004 112.299 8.71004 112.319 8.73004C112.339 8.75004 112.399 8.81004 112.499 8.91004C112.619 9.01004 112.699 9.08004 112.739 9.12004C113.019 9.40004 113.159 9.75004 113.159 10.17C113.159 10.25 113.159 10.33 113.159 10.41C113.139 10.89 112.969 11.26 112.649 11.52C112.349 11.76 112.009 11.88 111.629 11.88C111.549 11.88 111.469 11.87 111.389 11.85C110.949 11.81 110.599 11.63 110.339 11.31C110.079 10.99 109.949 10.59 109.949 10.11C109.949 10.07 109.949 10.03 109.949 9.99004C109.969 9.01004 110.439 8.22004 111.359 7.62004C112.279 7.02004 113.319 6.72004 114.479 6.72004C115.859 6.74004 117.039 7.20004 118.019 8.10004C119.019 9.00004 119.519 10.49 119.519 12.57V18.42C119.519 18.82 119.589 19.09 119.729 19.23C119.889 19.37 120.139 19.44 120.479 19.44V19.68L117.359 19.92C117.319 19.92 117.269 19.92 117.209 19.92C116.389 19.92 115.919 19.58 115.799 18.9C115.179 19.6 114.329 19.95 113.249 19.95C113.209 19.95 113.179 19.95 113.159 19.95C112.139 19.95 111.229 19.63 110.429 18.99C109.629 18.33 109.229 17.45 109.229 16.35C109.229 16.31 109.229 16.28 109.229 16.26ZM113.009 18.48C113.369 19.06 113.799 19.35 114.299 19.35C114.319 19.35 114.349 19.35 114.389 19.35C114.729 19.33 115.039 19.21 115.319 18.99C115.599 18.75 115.739 18.48 115.739 18.18V12.6C115.739 12.5 115.639 12.45 115.439 12.45C115.379 12.45 115.309 12.45 115.229 12.45C114.169 12.47 113.429 12.77 113.009 13.35C112.589 13.93 112.379 14.82 112.379 16.02C112.399 17.06 112.609 17.88 113.009 18.48ZM122.13 6.81004C123.85 6.03004 124.82 4.56004 125.04 2.40004H125.88V6.81004H127.98V7.08004H125.88V14.58C125.88 16.28 126.02 17.51 126.3 18.27C126.58 19.01 127.14 19.56 127.98 19.92C125.8 19.92 124.28 19.58 123.42 18.9C122.56 18.2 122.13 17.07 122.13 15.51V6.81004ZM128.414 10.38C128.774 9.52004 129.234 8.84004 129.794 8.34004C130.374 7.84004 130.964 7.47004 131.564 7.23004C132.184 6.97004 132.774 6.84004 133.334 6.84004C134.914 6.84004 136.144 7.38004 137.024 8.46004C137.904 9.54004 138.374 11.02 138.434 12.9L131.414 12.93C131.414 14.49 131.694 15.77 132.254 16.77C132.834 17.77 133.714 18.29 134.894 18.33C135.174 18.33 135.434 18.31 135.674 18.27C135.934 18.21 136.134 18.16 136.274 18.12C136.434 18.06 136.624 17.95 136.844 17.79C137.064 17.63 137.204 17.53 137.264 17.49C137.324 17.43 137.454 17.3 137.654 17.1C137.854 16.88 137.964 16.76 137.984 16.74C136.984 18.86 135.544 19.92 133.664 19.92C131.944 19.92 130.544 19.3 129.464 18.06C128.384 16.8 127.844 15.22 127.844 13.32C127.844 12.24 128.034 11.26 128.414 10.38ZM135.404 12.57C135.404 8.91004 134.794 7.08004 133.574 7.08004C133.414 7.08004 133.254 7.11004 133.094 7.17004C132.954 7.21004 132.774 7.35004 132.554 7.59004C132.334 7.81004 132.144 8.11004 131.984 8.49004C131.824 8.85004 131.684 9.39004 131.564 10.11C131.464 10.81 131.414 11.63 131.414 12.57H135.404ZM140.198 10.26V9.93004C140.198 7.49004 140.208 6.10004 140.228 5.76004C140.268 4.72004 140.468 3.81004 140.828 3.03004C141.188 2.25004 141.648 1.65004 142.208 1.23004C142.768 0.810043 143.348 0.500042 143.948 0.300043C144.548 0.100043 145.158 4.29153e-05 145.778 4.29153e-05C147.078 4.29153e-05 148.148 0.420043 148.988 1.26004C149.848 2.08004 150.278 3.03004 150.278 4.11004C150.278 4.81004 150.098 5.37004 149.738 5.79004C149.378 6.21004 148.908 6.42004 148.328 6.42004C148.288 6.42004 148.258 6.42004 148.238 6.42004C147.718 6.40004 147.308 6.21004 147.008 5.85004C146.708 5.47004 146.558 5.07004 146.558 4.65004C146.558 4.61004 146.558 4.56004 146.558 4.50004C146.618 4.06004 146.918 3.60004 147.458 3.12004C147.998 2.64004 148.268 2.21004 148.268 1.83004C148.248 1.33004 147.988 0.940043 147.488 0.660043C146.988 0.380043 146.418 0.240043 145.778 0.240043C144.658 0.240043 143.768 0.550044 143.108 1.17004C142.468 1.77004 142.148 2.55004 142.148 3.51004C142.148 4.49004 142.438 5.51004 143.018 6.57004C143.618 7.63004 143.928 8.64004 143.948 9.60004V10.26H145.778V10.53H143.948V19.2C143.948 19.52 144.278 19.68 144.938 19.68V19.92H139.178V19.68C139.858 19.68 140.198 19.52 140.198 19.2V10.53H139.178V10.26H140.198ZM145.822 8.46004V8.22004C147.662 8.22004 149.242 7.76004 150.562 6.84004V17.4C150.562 18.3 150.832 18.75 151.372 18.75C151.392 18.75 151.422 18.75 151.462 18.75C151.882 18.73 152.232 18.47 152.512 17.97C152.792 17.45 152.962 16.92 153.022 16.38V8.97004C153.022 8.63004 152.692 8.46004 152.032 8.46004V8.22004C153.912 8.22004 155.492 7.76004 156.772 6.84004V18.45C156.772 19.13 157.032 19.47 157.552 19.47H157.762V19.71C157.062 19.77 156.452 19.82 155.932 19.86C155.432 19.9 155.102 19.92 154.942 19.92C154.802 19.94 154.692 19.95 154.612 19.95C153.552 19.95 153.022 19.45 153.022 18.45V17.58C153.002 17.64 152.962 17.75 152.902 17.91C152.842 18.05 152.732 18.24 152.572 18.48C152.412 18.72 152.222 18.95 152.002 19.17C151.802 19.37 151.522 19.55 151.162 19.71C150.802 19.85 150.412 19.92 149.992 19.92C147.892 19.92 146.842 18.54 146.842 15.78V8.97004C146.842 8.63004 146.502 8.46004 145.822 8.46004ZM158.676 19.68C159.356 19.68 159.696 19.52 159.696 19.2V3.21004C159.696 2.87004 159.356 2.70004 158.676 2.70004V2.46004C160.536 2.46004 162.126 2.00004 163.446 1.08004V19.2C163.446 19.52 163.776 19.68 164.436 19.68V19.92H158.676V19.68ZM171.963 19.92V19.68C172.643 19.68 172.983 19.52 172.983 19.2V3.15004C172.983 2.81004 172.643 2.64004 171.963 2.64004V2.40004C173.903 2.40004 175.483 1.95004 176.703 1.05004V9.33004C176.743 9.19004 176.813 9.03004 176.913 8.85004C177.013 8.65004 177.183 8.38004 177.423 8.04004C177.663 7.70004 177.993 7.42004 178.413 7.20004C178.853 6.96004 179.333 6.84004 179.853 6.84004C180.973 6.84004 181.763 7.21004 182.223 7.95004C182.683 8.69004 182.913 9.79004 182.913 11.25V19.2C182.913 19.52 183.273 19.68 183.993 19.68V19.92H178.533V19.68C178.953 19.68 179.173 19.53 179.193 19.23V9.39004C179.193 8.51004 178.953 8.07004 178.473 8.07004C178.453 8.07004 178.423 8.07004 178.383 8.07004C177.943 8.09004 177.573 8.35004 177.273 8.85004C176.973 9.35004 176.783 9.85004 176.703 10.35V19.23C176.723 19.53 176.943 19.68 177.363 19.68V19.92H171.963ZM185.325 10.38C185.685 9.52004 186.145 8.84004 186.705 8.34004C187.285 7.84004 187.875 7.47004 188.475 7.23004C189.095 6.97004 189.685 6.84004 190.245 6.84004C191.825 6.84004 193.055 7.38004 193.935 8.46004C194.815 9.54004 195.285 11.02 195.345 12.9L188.325 12.93C188.325 14.49 188.605 15.77 189.165 16.77C189.745 17.77 190.625 18.29 191.805 18.33C192.085 18.33 192.345 18.31 192.585 18.27C192.845 18.21 193.045 18.16 193.185 18.12C193.345 18.06 193.535 17.95 193.755 17.79C193.975 17.63 194.115 17.53 194.175 17.49C194.235 17.43 194.365 17.3 194.565 17.1C194.765 16.88 194.875 16.76 194.895 16.74C193.895 18.86 192.455 19.92 190.575 19.92C188.855 19.92 187.455 19.3 186.375 18.06C185.295 16.8 184.755 15.22 184.755 13.32C184.755 12.24 184.945 11.26 185.325 10.38ZM192.315 12.57C192.315 8.91004 191.705 7.08004 190.485 7.08004C190.325 7.08004 190.165 7.11004 190.005 7.17004C189.865 7.21004 189.685 7.35004 189.465 7.59004C189.245 7.81004 189.055 8.11004 188.895 8.49004C188.735 8.85004 188.595 9.39004 188.475 10.11C188.375 10.81 188.325 11.63 188.325 12.57H192.315ZM196.089 16.26C196.089 14.94 196.539 13.95 197.439 13.29C198.359 12.63 199.599 12.29 201.159 12.27C201.719 12.27 202.199 12.22 202.599 12.12C203.719 11.78 204.279 10.96 204.279 9.66004C204.279 8.92004 204.019 8.31004 203.499 7.83004C202.979 7.33004 202.289 7.08004 201.429 7.08004C200.729 7.08004 200.159 7.18004 199.719 7.38004C199.279 7.58004 199.039 7.83004 198.999 8.13004C198.999 8.19004 198.999 8.24004 198.999 8.28004C198.999 8.34004 198.989 8.38004 198.969 8.40004C198.969 8.40004 198.969 8.41004 198.969 8.43004C198.969 8.45004 198.999 8.50004 199.059 8.58004C199.119 8.66004 199.159 8.71004 199.179 8.73004C199.199 8.75004 199.259 8.81004 199.359 8.91004C199.479 9.01004 199.559 9.08004 199.599 9.12004C199.879 9.40004 200.019 9.75004 200.019 10.17C200.019 10.25 200.019 10.33 200.019 10.41C199.999 10.89 199.829 11.26 199.509 11.52C199.209 11.76 198.869 11.88 198.489 11.88C198.409 11.88 198.329 11.87 198.249 11.85C197.809 11.81 197.459 11.63 197.199 11.31C196.939 10.99 196.809 10.59 196.809 10.11C196.809 10.07 196.809 10.03 196.809 9.99004C196.829 9.01004 197.299 8.22004 198.219 7.62004C199.139 7.02004 200.179 6.72004 201.339 6.72004C202.719 6.74004 203.899 7.20004 204.879 8.10004C205.879 9.00004 206.379 10.49 206.379 12.57V18.42C206.379 18.82 206.449 19.09 206.589 19.23C206.749 19.37 206.999 19.44 207.339 19.44V19.68L204.219 19.92C204.179 19.92 204.129 19.92 204.069 19.92C203.249 19.92 202.779 19.58 202.659 18.9C202.039 19.6 201.189 19.95 200.109 19.95C200.069 19.95 200.039 19.95 200.019 19.95C198.999 19.95 198.089 19.63 197.289 18.99C196.489 18.33 196.089 17.45 196.089 16.35C196.089 16.31 196.089 16.28 196.089 16.26ZM199.869 18.48C200.229 19.06 200.659 19.35 201.159 19.35C201.179 19.35 201.209 19.35 201.249 19.35C201.589 19.33 201.899 19.21 202.179 18.99C202.459 18.75 202.599 18.48 202.599 18.18V12.6C202.599 12.5 202.499 12.45 202.299 12.45C202.239 12.45 202.169 12.45 202.089 12.45C201.029 12.47 200.289 12.77 199.869 13.35C199.449 13.93 199.239 14.82 199.239 16.02C199.259 17.06 199.469 17.88 199.869 18.48ZM208.24 8.46004V8.22004C210.06 8.22004 211.64 7.76004 212.98 6.84004V9.15004C213.54 7.85004 214.49 7.20004 215.83 7.20004C216.65 7.20004 217.32 7.41004 217.84 7.83004C218.36 8.25004 218.62 8.83004 218.62 9.57004C218.62 9.61004 218.62 9.64004 218.62 9.66004C218.62 10.22 218.45 10.66 218.11 10.98C217.79 11.28 217.41 11.43 216.97 11.43C216.53 11.43 216.14 11.3 215.8 11.04C215.46 10.76 215.28 10.36 215.26 9.84004C215.26 9.56004 215.35 9.24004 215.53 8.88004C215.71 8.52004 215.8 8.29004 215.8 8.19004C215.8 8.05004 215.72 7.95004 215.56 7.89004C215.4 7.83004 215.25 7.80004 215.11 7.80004C215.07 7.80004 215.03 7.80004 214.99 7.80004C214.57 7.84004 214.17 8.05004 213.79 8.43004C213.43 8.79004 213.16 9.33004 212.98 10.05V19.2C212.98 19.52 213.32 19.68 214 19.68V19.92H208.24V19.68C208.92 19.68 209.26 19.52 209.26 19.2V8.97004C209.26 8.63004 208.92 8.46004 208.24 8.46004ZM219.677 6.81004C221.397 6.03004 222.367 4.56004 222.587 2.40004H223.427V6.81004H225.527V7.08004H223.427V14.58C223.427 16.28 223.567 17.51 223.847 18.27C224.127 19.01 224.687 19.56 225.527 19.92C223.347 19.92 221.827 19.58 220.967 18.9C220.107 18.2 219.677 17.07 219.677 15.51V6.81004ZM225.241 16.38C225.241 15.76 225.441 15.26 225.841 14.88C226.261 14.48 226.721 14.28 227.221 14.28C227.261 14.28 227.291 14.28 227.311 14.28C227.791 14.3 228.181 14.46 228.481 14.76C228.781 15.06 228.931 15.47 228.931 15.99C228.931 16.01 228.931 16.04 228.931 16.08C228.911 16.46 228.791 16.79 228.571 17.07C228.371 17.33 228.091 17.46 227.731 17.46C227.571 17.46 227.401 17.42 227.221 17.34C227.041 17.26 226.911 17.22 226.831 17.22C226.811 17.22 226.791 17.22 226.771 17.22C226.691 17.22 226.621 17.26 226.561 17.34C226.501 17.4 226.471 17.51 226.471 17.67C226.491 18.21 226.891 18.69 227.671 19.11C228.451 19.51 229.331 19.71 230.311 19.71C231.131 19.71 231.821 19.54 232.381 19.2C232.961 18.84 233.251 18.37 233.251 17.79C233.251 16.83 232.031 15.73 229.591 14.49C228.151 13.77 227.141 13.08 226.561 12.42C226.001 11.76 225.721 11.06 225.721 10.32C225.721 9.18004 226.211 8.32004 227.191 7.74004C228.191 7.16004 229.291 6.87004 230.491 6.87004C230.531 6.87004 230.571 6.87004 230.611 6.87004C231.911 6.87004 232.941 7.16004 233.701 7.74004C234.481 8.32004 234.881 8.97004 234.901 9.69004C234.901 9.71004 234.901 9.74004 234.901 9.78004C234.901 10.2 234.761 10.56 234.481 10.86C234.201 11.14 233.841 11.28 233.401 11.28C232.861 11.26 232.441 11.1 232.141 10.8C231.861 10.5 231.721 10.18 231.721 9.84004C231.721 9.74004 231.731 9.64004 231.751 9.54004C231.791 9.28004 231.981 9.00004 232.321 8.70004C232.681 8.40004 232.861 8.15004 232.861 7.95004C232.861 7.89004 232.841 7.83004 232.801 7.77004C232.361 7.31004 231.611 7.08004 230.551 7.08004C230.511 7.08004 230.471 7.08004 230.431 7.08004C229.791 7.08004 229.231 7.26004 228.751 7.62004C228.271 7.98004 228.031 8.41004 228.031 8.91004C228.031 9.69004 228.641 10.37 229.861 10.95C232.001 11.93 233.411 12.68 234.091 13.2C235.051 14 235.541 14.88 235.561 15.84C235.561 17.1 235.121 18.1 234.241 18.84C233.361 19.56 232.051 19.92 230.311 19.92C228.911 19.92 227.711 19.61 226.711 18.99C225.731 18.37 225.241 17.5 225.241 16.38ZM236.462 18.15C236.482 17.67 236.652 17.26 236.972 16.92C237.312 16.58 237.732 16.41 238.232 16.41C239.552 16.41 240.212 17.24 240.212 18.9C240.212 19.86 239.972 20.71 239.492 21.45C239.032 22.21 238.342 22.59 237.422 22.59V22.35C238.182 22.35 238.732 21.95 239.072 21.15C239.212 20.85 239.282 20.59 239.282 20.37C239.282 20.13 239.202 19.94 239.042 19.8C238.962 19.76 238.882 19.73 238.802 19.71C238.742 19.71 238.632 19.75 238.472 19.83C238.332 19.89 238.182 19.92 238.022 19.92C237.602 19.92 237.232 19.76 236.912 19.44C236.612 19.1 236.462 18.7 236.462 18.24C236.462 18.2 236.462 18.17 236.462 18.15ZM246.827 6.84004H252.827V7.08004H252.407C252.307 7.08004 252.217 7.10004 252.137 7.14004C252.057 7.16004 252.007 7.19004 251.987 7.23004C251.987 7.27004 251.987 7.30004 251.987 7.32004C251.987 7.36004 251.987 7.40004 251.987 7.44004L253.727 13.89C253.867 14.45 253.937 14.85 253.937 15.09C253.937 15.13 253.937 15.18 253.937 15.24C253.937 15.84 253.707 16.44 253.247 17.04C252.787 17.62 252.557 18.12 252.557 18.54C252.557 18.56 252.557 18.58 252.557 18.6C252.657 19.28 253.007 19.62 253.607 19.62C254.347 19.62 254.857 19.12 255.137 18.12L256.697 12.27L255.437 7.59004C255.357 7.25004 255.117 7.08004 254.717 7.08004V6.84004H259.907V7.08004C259.487 7.08004 259.277 7.17004 259.277 7.35004C259.277 7.39004 259.277 7.42004 259.277 7.44004L261.017 13.89C261.117 14.31 261.187 14.71 261.227 15.09C261.227 15.11 261.227 15.14 261.227 15.18C261.227 15.8 260.987 16.41 260.507 17.01C260.047 17.61 259.817 18.12 259.817 18.54C259.817 18.56 259.817 18.58 259.817 18.6C259.917 19.28 260.267 19.62 260.867 19.62C261.607 19.62 262.117 19.12 262.397 18.12L265.307 7.29004C265.307 7.27004 265.307 7.26004 265.307 7.26004C265.307 7.18004 265.257 7.13004 265.157 7.11004C265.057 7.09004 264.817 7.08004 264.437 7.08004V6.84004H266.657V7.08004C266.397 7.08004 266.217 7.09004 266.117 7.11004C266.017 7.11004 265.917 7.14004 265.817 7.20004C265.737 7.24004 265.687 7.32004 265.667 7.44004L262.787 18.18C262.447 19.34 261.807 19.92 260.867 19.92C260.407 19.92 259.997 19.84 259.637 19.68C259.297 19.5 259.017 19.26 258.797 18.96C258.597 18.64 258.447 18.37 258.347 18.15C258.267 17.91 258.177 17.63 258.077 17.31L256.907 13.02L255.527 18.18C255.147 19.34 254.507 19.92 253.607 19.92C252.227 19.92 251.287 19.05 250.787 17.31L248.177 7.59004C248.097 7.25004 247.647 7.08004 246.827 7.08004V6.84004ZM266.714 10.38C267.074 9.52004 267.534 8.84004 268.094 8.34004C268.674 7.84004 269.264 7.47004 269.864 7.23004C270.484 6.97004 271.074 6.84004 271.634 6.84004C273.214 6.84004 274.444 7.38004 275.324 8.46004C276.204 9.54004 276.674 11.02 276.734 12.9L269.714 12.93C269.714 14.49 269.994 15.77 270.554 16.77C271.134 17.77 272.014 18.29 273.194 18.33C273.474 18.33 273.734 18.31 273.974 18.27C274.234 18.21 274.434 18.16 274.574 18.12C274.734 18.06 274.924 17.95 275.144 17.79C275.364 17.63 275.504 17.53 275.564 17.49C275.624 17.43 275.754 17.3 275.954 17.1C276.154 16.88 276.264 16.76 276.284 16.74C275.284 18.86 273.844 19.92 271.964 19.92C270.244 19.92 268.844 19.3 267.764 18.06C266.684 16.8 266.144 15.22 266.144 13.32C266.144 12.24 266.334 11.26 266.714 10.38ZM273.704 12.57C273.704 8.91004 273.094 7.08004 271.874 7.08004C271.714 7.08004 271.554 7.11004 271.394 7.17004C271.254 7.21004 271.074 7.35004 270.854 7.59004C270.634 7.81004 270.444 8.11004 270.284 8.49004C270.124 8.85004 269.984 9.39004 269.864 10.11C269.764 10.81 269.714 11.63 269.714 12.57H273.704ZM35.7116 51.2V40.97C35.7116 40.63 35.3716 40.46 34.6916 40.46V40.22C36.5716 40.22 38.1616 39.76 39.4616 38.84V51.2C39.4616 51.52 39.7916 51.68 40.4516 51.68V51.92H34.6916V51.68C35.3716 51.68 35.7116 51.52 35.7116 51.2ZM36.4016 35.27C36.7216 34.95 37.1116 34.79 37.5716 34.79C38.0116 34.79 38.3916 34.96 38.7116 35.3C39.0316 35.62 39.1916 36 39.1916 36.44C39.1916 36.9 39.0316 37.29 38.7116 37.61C38.3916 37.93 38.0116 38.09 37.5716 38.09C37.1116 38.09 36.7116 37.93 36.3716 37.61C36.0516 37.29 35.8916 36.9 35.8916 36.44C35.8916 35.98 36.0616 35.59 36.4016 35.27ZM46.1343 38.84V41.33C46.1943 41.13 46.2743 40.93 46.3743 40.73C46.4943 40.53 46.6743 40.27 46.9143 39.95C47.1743 39.63 47.5043 39.37 47.9043 39.17C48.3243 38.95 48.7843 38.84 49.2843 38.84C51.3043 38.84 52.3143 40.2 52.3143 42.92V51.2C52.3143 51.52 52.6543 51.68 53.3343 51.68V51.92H47.9343V51.68C48.3543 51.68 48.5743 51.53 48.5943 51.23V41.69C48.5943 41.09 48.5343 40.67 48.4143 40.43C48.2943 40.19 48.1143 40.07 47.8743 40.07C47.8543 40.07 47.8343 40.07 47.8143 40.07C47.3743 40.09 46.9943 40.36 46.6743 40.88C46.3743 41.38 46.1943 41.87 46.1343 42.35V51.23C46.1343 51.53 46.3543 51.68 46.7943 51.68V51.92H41.3643V51.68C42.0443 51.68 42.3843 51.52 42.3843 51.2V40.97C42.3843 40.63 42.0443 40.46 41.3643 40.46V40.22C43.2643 40.22 44.8543 39.76 46.1343 38.84ZM52.5275 39.08V38.84H58.4375V39.08H58.0475C57.9675 39.08 57.8875 39.1 57.8075 39.14C57.7275 39.16 57.6875 39.19 57.6875 39.23C57.6875 39.23 57.6875 39.24 57.6875 39.26C57.6875 39.28 57.6975 39.3 57.7175 39.32C57.6975 39.36 57.6875 39.4 57.6875 39.44L59.4275 45.89C59.5675 46.45 59.6375 46.85 59.6375 47.09C59.6375 47.13 59.6375 47.18 59.6375 47.24C59.6375 47.84 59.4075 48.44 58.9475 49.04C58.4875 49.62 58.2575 50.12 58.2575 50.54C58.2575 50.56 58.2575 50.58 58.2575 50.6C58.3575 51.28 58.7075 51.62 59.3075 51.62C60.0475 51.62 60.5575 51.12 60.8375 50.12L63.7475 39.29C63.7475 39.27 63.7475 39.26 63.7475 39.26C63.7475 39.18 63.6975 39.13 63.5975 39.11C63.4975 39.09 63.2475 39.08 62.8475 39.08V38.84H65.0975V39.08C64.8175 39.08 64.6275 39.09 64.5275 39.11C64.4275 39.11 64.3375 39.14 64.2575 39.2C64.1775 39.24 64.1275 39.32 64.1075 39.44L61.2275 50.18C60.8475 51.34 60.2075 51.92 59.3075 51.92C57.9275 51.92 56.9875 51.05 56.4875 49.31L53.8775 39.59C53.7975 39.25 53.3475 39.08 52.5275 39.08ZM66.13 51.2V40.97C66.13 40.63 65.79 40.46 65.11 40.46V40.22C66.99 40.22 68.58 39.76 69.88 38.84V51.2C69.88 51.52 70.21 51.68 70.87 51.68V51.92H65.11V51.68C65.79 51.68 66.13 51.52 66.13 51.2ZM66.82 35.27C67.14 34.95 67.53 34.79 67.99 34.79C68.43 34.79 68.81 34.96 69.13 35.3C69.45 35.62 69.61 36 69.61 36.44C69.61 36.9 69.45 37.29 69.13 37.61C68.81 37.93 68.43 38.09 67.99 38.09C67.53 38.09 67.13 37.93 66.79 37.61C66.47 37.29 66.31 36.9 66.31 36.44C66.31 35.98 66.48 35.59 66.82 35.27ZM72.5326 38.81C74.2526 38.03 75.2226 36.56 75.4426 34.4H76.2826V38.81H78.3826V39.08H76.2826V46.58C76.2826 48.28 76.4226 49.51 76.7026 50.27C76.9826 51.01 77.5426 51.56 78.3826 51.92C76.2026 51.92 74.6826 51.58 73.8226 50.9C72.9626 50.2 72.5326 49.07 72.5326 47.51V38.81ZM78.8167 42.38C79.1767 41.52 79.6367 40.84 80.1967 40.34C80.7767 39.84 81.3667 39.47 81.9667 39.23C82.5867 38.97 83.1767 38.84 83.7367 38.84C85.3167 38.84 86.5467 39.38 87.4267 40.46C88.3067 41.54 88.7767 43.02 88.8367 44.9L81.8167 44.93C81.8167 46.49 82.0967 47.77 82.6567 48.77C83.2367 49.77 84.1167 50.29 85.2967 50.33C85.5767 50.33 85.8367 50.31 86.0767 50.27C86.3367 50.21 86.5367 50.16 86.6767 50.12C86.8367 50.06 87.0267 49.95 87.2467 49.79C87.4667 49.63 87.6067 49.53 87.6667 49.49C87.7267 49.43 87.8567 49.3 88.0567 49.1C88.2567 48.88 88.3667 48.76 88.3867 48.74C87.3867 50.86 85.9467 51.92 84.0667 51.92C82.3467 51.92 80.9467 51.3 79.8667 50.06C78.7867 48.8 78.2467 47.22 78.2467 45.32C78.2467 44.24 78.4367 43.26 78.8167 42.38ZM85.8067 44.57C85.8067 40.91 85.1967 39.08 83.9767 39.08C83.8167 39.08 83.6567 39.11 83.4967 39.17C83.3567 39.21 83.1767 39.35 82.9567 39.59C82.7367 39.81 82.5467 40.11 82.3867 40.49C82.2267 40.85 82.0867 41.39 81.9667 42.11C81.8667 42.81 81.8167 43.63 81.8167 44.57H85.8067ZM95.2951 39.08V38.84H101.445V39.08H101.025C100.925 39.08 100.815 39.1 100.695 39.14C100.575 39.16 100.505 39.19 100.485 39.23C100.485 39.27 100.485 39.31 100.485 39.35C100.485 39.39 100.485 39.43 100.485 39.47L102.195 45.89C102.955 48.85 103.455 50.37 103.695 50.45C103.815 50.59 103.935 50.66 104.055 50.66C104.135 50.66 104.245 50.61 104.385 50.51C104.545 50.41 104.715 50.18 104.895 49.82L108.075 39.35C108.075 39.29 108.075 39.25 108.075 39.23C108.095 39.21 108.105 39.19 108.105 39.17C108.105 39.15 108.085 39.14 108.045 39.14C108.025 39.12 107.985 39.11 107.925 39.11C107.885 39.09 107.825 39.08 107.745 39.08H107.295V38.84H109.395V39.08H109.155C108.735 39.08 108.505 39.18 108.465 39.38L104.625 51.92C104.425 52.64 104.265 53.18 104.145 53.54C104.045 53.92 103.835 54.46 103.515 55.16C103.195 55.88 102.875 56.43 102.555 56.81C102.235 57.21 101.805 57.57 101.265 57.89C100.725 58.21 100.125 58.37 99.4651 58.37C98.7651 58.37 98.1651 58.14 97.6651 57.68C97.1651 57.22 96.9151 56.64 96.9151 55.94C96.9151 55.28 97.1151 54.73 97.5151 54.29C97.9351 53.87 98.4251 53.66 98.9851 53.66C99.0251 53.66 99.0751 53.66 99.1351 53.66C99.6351 53.68 100.045 53.81 100.365 54.05C100.685 54.29 100.895 54.55 100.995 54.83C101.095 55.11 101.215 55.36 101.355 55.58C101.515 55.8 101.705 55.91 101.925 55.91C102.605 55.91 103.215 55.09 103.755 53.45C103.815 53.25 103.975 52.74 104.235 51.92L104.595 50.72C103.995 51.52 103.195 51.92 102.195 51.92C101.355 51.92 100.705 51.72 100.245 51.32C99.8051 50.9 99.4651 50.23 99.2251 49.31L96.6151 39.59C96.5351 39.25 96.0951 39.08 95.2951 39.08ZM110.429 40.46C111.429 39.38 112.729 38.84 114.329 38.84C115.909 38.84 117.199 39.39 118.199 40.49C119.199 41.57 119.699 43.21 119.699 45.41C119.699 47.37 119.179 48.95 118.139 50.15C117.119 51.33 115.849 51.92 114.329 51.92C112.769 51.92 111.469 51.35 110.429 50.21C109.409 49.05 108.899 47.45 108.899 45.41C108.899 43.21 109.409 41.56 110.429 40.46ZM112.709 48.38C112.789 49.2 112.879 49.82 112.979 50.24C113.079 50.66 113.209 50.99 113.369 51.23C113.549 51.45 113.699 51.58 113.819 51.62C113.959 51.66 114.129 51.68 114.329 51.68C114.529 51.68 114.689 51.66 114.809 51.62C114.929 51.58 115.069 51.45 115.229 51.23C115.409 50.99 115.549 50.66 115.649 50.24C115.749 49.82 115.829 49.2 115.889 48.38C115.969 47.56 116.009 46.57 116.009 45.41C116.009 44.25 115.969 43.26 115.889 42.44C115.829 41.6 115.749 40.97 115.649 40.55C115.549 40.13 115.409 39.81 115.229 39.59C115.069 39.35 114.929 39.21 114.809 39.17C114.689 39.13 114.529 39.11 114.329 39.11C114.129 39.11 113.959 39.13 113.819 39.17C113.699 39.21 113.549 39.35 113.369 39.59C113.209 39.81 113.079 40.13 112.979 40.55C112.879 40.97 112.789 41.59 112.709 42.41C112.629 43.25 112.589 44.25 112.589 45.41C112.589 46.57 112.629 47.56 112.709 48.38ZM120.439 40.46V40.22C122.279 40.22 123.859 39.76 125.179 38.84V49.4C125.179 50.3 125.449 50.75 125.989 50.75C126.009 50.75 126.039 50.75 126.079 50.75C126.499 50.73 126.849 50.47 127.129 49.97C127.409 49.45 127.579 48.92 127.639 48.38V40.97C127.639 40.63 127.309 40.46 126.649 40.46V40.22C128.529 40.22 130.109 39.76 131.389 38.84V50.45C131.389 51.13 131.649 51.47 132.169 51.47H132.379V51.71C131.679 51.77 131.069 51.82 130.549 51.86C130.049 51.9 129.719 51.92 129.559 51.92C129.419 51.94 129.309 51.95 129.229 51.95C128.169 51.95 127.639 51.45 127.639 50.45V49.58C127.619 49.64 127.579 49.75 127.519 49.91C127.459 50.05 127.349 50.24 127.189 50.48C127.029 50.72 126.839 50.95 126.619 51.17C126.419 51.37 126.139 51.55 125.779 51.71C125.419 51.85 125.029 51.92 124.609 51.92C122.509 51.92 121.459 50.54 121.459 47.78V40.97C121.459 40.63 121.119 40.46 120.439 40.46ZM140.657 38.81C142.377 38.03 143.347 36.56 143.567 34.4H144.407V38.81H146.507V39.08H144.407V46.58C144.407 48.28 144.547 49.51 144.827 50.27C145.107 51.01 145.667 51.56 146.507 51.92C144.327 51.92 142.807 51.58 141.947 50.9C141.087 50.2 140.657 49.07 140.657 47.51V38.81ZM147.901 40.46C148.901 39.38 150.201 38.84 151.801 38.84C153.381 38.84 154.671 39.39 155.671 40.49C156.671 41.57 157.171 43.21 157.171 45.41C157.171 47.37 156.651 48.95 155.611 50.15C154.591 51.33 153.321 51.92 151.801 51.92C150.241 51.92 148.941 51.35 147.901 50.21C146.881 49.05 146.371 47.45 146.371 45.41C146.371 43.21 146.881 41.56 147.901 40.46ZM150.181 48.38C150.261 49.2 150.351 49.82 150.451 50.24C150.551 50.66 150.681 50.99 150.841 51.23C151.021 51.45 151.171 51.58 151.291 51.62C151.431 51.66 151.601 51.68 151.801 51.68C152.001 51.68 152.161 51.66 152.281 51.62C152.401 51.58 152.541 51.45 152.701 51.23C152.881 50.99 153.021 50.66 153.121 50.24C153.221 49.82 153.301 49.2 153.361 48.38C153.441 47.56 153.481 46.57 153.481 45.41C153.481 44.25 153.441 43.26 153.361 42.44C153.301 41.6 153.221 40.97 153.121 40.55C153.021 40.13 152.881 39.81 152.701 39.59C152.541 39.35 152.401 39.21 152.281 39.17C152.161 39.13 152.001 39.11 151.801 39.11C151.601 39.11 151.431 39.13 151.291 39.17C151.171 39.21 151.021 39.35 150.841 39.59C150.681 39.81 150.551 40.13 150.451 40.55C150.351 40.97 150.261 41.59 150.181 42.41C150.101 43.25 150.061 44.25 150.061 45.41C150.061 46.57 150.101 47.56 150.181 48.38ZM164.225 48.38C164.225 47.76 164.425 47.26 164.825 46.88C165.245 46.48 165.705 46.28 166.205 46.28C166.245 46.28 166.275 46.28 166.295 46.28C166.775 46.3 167.165 46.46 167.465 46.76C167.765 47.06 167.915 47.47 167.915 47.99C167.915 48.01 167.915 48.04 167.915 48.08C167.895 48.46 167.775 48.79 167.555 49.07C167.355 49.33 167.075 49.46 166.715 49.46C166.555 49.46 166.385 49.42 166.205 49.34C166.025 49.26 165.895 49.22 165.815 49.22C165.795 49.22 165.775 49.22 165.755 49.22C165.675 49.22 165.605 49.26 165.545 49.34C165.485 49.4 165.455 49.51 165.455 49.67C165.475 50.21 165.875 50.69 166.655 51.11C167.435 51.51 168.315 51.71 169.295 51.71C170.115 51.71 170.805 51.54 171.365 51.2C171.945 50.84 172.235 50.37 172.235 49.79C172.235 48.83 171.015 47.73 168.575 46.49C167.135 45.77 166.125 45.08 165.545 44.42C164.985 43.76 164.705 43.06 164.705 42.32C164.705 41.18 165.195 40.32 166.175 39.74C167.175 39.16 168.275 38.87 169.475 38.87C169.515 38.87 169.555 38.87 169.595 38.87C170.895 38.87 171.925 39.16 172.685 39.74C173.465 40.32 173.865 40.97 173.885 41.69C173.885 41.71 173.885 41.74 173.885 41.78C173.885 42.2 173.745 42.56 173.465 42.86C173.185 43.14 172.825 43.28 172.385 43.28C171.845 43.26 171.425 43.1 171.125 42.8C170.845 42.5 170.705 42.18 170.705 41.84C170.705 41.74 170.715 41.64 170.735 41.54C170.775 41.28 170.965 41 171.305 40.7C171.665 40.4 171.845 40.15 171.845 39.95C171.845 39.89 171.825 39.83 171.785 39.77C171.345 39.31 170.595 39.08 169.535 39.08C169.495 39.08 169.455 39.08 169.415 39.08C168.775 39.08 168.215 39.26 167.735 39.62C167.255 39.98 167.015 40.41 167.015 40.91C167.015 41.69 167.625 42.37 168.845 42.95C170.985 43.93 172.395 44.68 173.075 45.2C174.035 46 174.525 46.88 174.545 47.84C174.545 49.1 174.105 50.1 173.225 50.84C172.345 51.56 171.035 51.92 169.295 51.92C167.895 51.92 166.695 51.61 165.695 50.99C164.715 50.37 164.225 49.5 164.225 48.38ZM175.446 51.92V51.68C176.126 51.68 176.466 51.52 176.466 51.2V35.15C176.466 34.81 176.126 34.64 175.446 34.64V34.4C177.386 34.4 178.966 33.95 180.186 33.05V41.33C180.226 41.19 180.296 41.03 180.396 40.85C180.496 40.65 180.666 40.38 180.906 40.04C181.146 39.7 181.476 39.42 181.896 39.2C182.336 38.96 182.816 38.84 183.336 38.84C184.456 38.84 185.246 39.21 185.706 39.95C186.166 40.69 186.396 41.79 186.396 43.25V51.2C186.396 51.52 186.756 51.68 187.476 51.68V51.92H182.016V51.68C182.436 51.68 182.656 51.53 182.676 51.23V41.39C182.676 40.51 182.436 40.07 181.956 40.07C181.936 40.07 181.906 40.07 181.866 40.07C181.426 40.09 181.056 40.35 180.756 40.85C180.456 41.35 180.266 41.85 180.186 42.35V51.23C180.206 51.53 180.426 51.68 180.846 51.68V51.92H175.446ZM188.388 48.26C188.388 46.94 188.838 45.95 189.738 45.29C190.658 44.63 191.898 44.29 193.458 44.27C194.018 44.27 194.498 44.22 194.898 44.12C196.018 43.78 196.578 42.96 196.578 41.66C196.578 40.92 196.318 40.31 195.798 39.83C195.278 39.33 194.588 39.08 193.728 39.08C193.028 39.08 192.458 39.18 192.018 39.38C191.578 39.58 191.338 39.83 191.298 40.13C191.298 40.19 191.298 40.24 191.298 40.28C191.298 40.34 191.288 40.38 191.268 40.4C191.268 40.4 191.268 40.41 191.268 40.43C191.268 40.45 191.298 40.5 191.358 40.58C191.418 40.66 191.458 40.71 191.478 40.73C191.498 40.75 191.558 40.81 191.658 40.91C191.778 41.01 191.858 41.08 191.898 41.12C192.178 41.4 192.318 41.75 192.318 42.17C192.318 42.25 192.318 42.33 192.318 42.41C192.298 42.89 192.128 43.26 191.808 43.52C191.508 43.76 191.168 43.88 190.788 43.88C190.708 43.88 190.628 43.87 190.548 43.85C190.108 43.81 189.758 43.63 189.498 43.31C189.238 42.99 189.108 42.59 189.108 42.11C189.108 42.07 189.108 42.03 189.108 41.99C189.128 41.01 189.598 40.22 190.518 39.62C191.438 39.02 192.478 38.72 193.638 38.72C195.018 38.74 196.198 39.2 197.178 40.1C198.178 41 198.678 42.49 198.678 44.57V50.42C198.678 50.82 198.748 51.09 198.888 51.23C199.048 51.37 199.298 51.44 199.638 51.44V51.68L196.518 51.92C196.478 51.92 196.428 51.92 196.368 51.92C195.548 51.92 195.078 51.58 194.958 50.9C194.338 51.6 193.488 51.95 192.408 51.95C192.368 51.95 192.338 51.95 192.318 51.95C191.298 51.95 190.388 51.63 189.588 50.99C188.788 50.33 188.388 49.45 188.388 48.35C188.388 48.31 188.388 48.28 188.388 48.26ZM192.168 50.48C192.528 51.06 192.958 51.35 193.458 51.35C193.478 51.35 193.508 51.35 193.548 51.35C193.888 51.33 194.198 51.21 194.478 50.99C194.758 50.75 194.898 50.48 194.898 50.18V44.6C194.898 44.5 194.798 44.45 194.598 44.45C194.538 44.45 194.468 44.45 194.388 44.45C193.328 44.47 192.588 44.77 192.168 45.35C191.748 45.93 191.538 46.82 191.538 48.02C191.558 49.06 191.768 49.88 192.168 50.48ZM200.539 40.46V40.22C202.359 40.22 203.939 39.76 205.279 38.84V41.15C205.839 39.85 206.789 39.2 208.129 39.2C208.949 39.2 209.619 39.41 210.139 39.83C210.659 40.25 210.919 40.83 210.919 41.57C210.919 41.61 210.919 41.64 210.919 41.66C210.919 42.22 210.749 42.66 210.409 42.98C210.089 43.28 209.709 43.43 209.269 43.43C208.829 43.43 208.439 43.3 208.099 43.04C207.759 42.76 207.579 42.36 207.559 41.84C207.559 41.56 207.649 41.24 207.829 40.88C208.009 40.52 208.099 40.29 208.099 40.19C208.099 40.05 208.019 39.95 207.859 39.89C207.699 39.83 207.549 39.8 207.409 39.8C207.369 39.8 207.329 39.8 207.289 39.8C206.869 39.84 206.469 40.05 206.089 40.43C205.729 40.79 205.459 41.33 205.279 42.05V51.2C205.279 51.52 205.619 51.68 206.299 51.68V51.92H200.539V51.68C201.219 51.68 201.559 51.52 201.559 51.2V40.97C201.559 40.63 201.219 40.46 200.539 40.46ZM211.645 42.38C212.005 41.52 212.465 40.84 213.025 40.34C213.605 39.84 214.195 39.47 214.795 39.23C215.415 38.97 216.005 38.84 216.565 38.84C218.145 38.84 219.375 39.38 220.255 40.46C221.135 41.54 221.605 43.02 221.665 44.9L214.645 44.93C214.645 46.49 214.925 47.77 215.485 48.77C216.065 49.77 216.945 50.29 218.125 50.33C218.405 50.33 218.665 50.31 218.905 50.27C219.165 50.21 219.365 50.16 219.505 50.12C219.665 50.06 219.855 49.95 220.075 49.79C220.295 49.63 220.435 49.53 220.495 49.49C220.555 49.43 220.685 49.3 220.885 49.1C221.085 48.88 221.195 48.76 221.215 48.74C220.215 50.86 218.775 51.92 216.895 51.92C215.175 51.92 213.775 51.3 212.695 50.06C211.615 48.8 211.075 47.22 211.075 45.32C211.075 44.24 211.265 43.26 211.645 42.38ZM218.635 44.57C218.635 40.91 218.025 39.08 216.805 39.08C216.645 39.08 216.485 39.11 216.325 39.17C216.185 39.21 216.005 39.35 215.785 39.59C215.565 39.81 215.375 40.11 215.215 40.49C215.055 40.85 214.915 41.39 214.795 42.11C214.695 42.81 214.645 43.63 214.645 44.57H218.635ZM230.044 51.2V40.97C230.044 40.63 229.704 40.46 229.024 40.46V40.22C230.904 40.22 232.494 39.76 233.794 38.84V51.2C233.794 51.52 234.124 51.68 234.784 51.68V51.92H229.024V51.68C229.704 51.68 230.044 51.52 230.044 51.2ZM230.734 35.27C231.054 34.95 231.444 34.79 231.904 34.79C232.344 34.79 232.724 34.96 233.044 35.3C233.364 35.62 233.524 36 233.524 36.44C233.524 36.9 233.364 37.29 233.044 37.61C232.724 37.93 232.344 38.09 231.904 38.09C231.444 38.09 231.044 37.93 230.704 37.61C230.384 37.29 230.224 36.9 230.224 36.44C230.224 35.98 230.394 35.59 230.734 35.27ZM240.466 38.84V41.33C240.526 41.13 240.606 40.93 240.706 40.73C240.826 40.53 241.006 40.27 241.246 39.95C241.506 39.63 241.836 39.37 242.236 39.17C242.656 38.95 243.116 38.84 243.616 38.84C245.636 38.84 246.646 40.2 246.646 42.92V51.2C246.646 51.52 246.986 51.68 247.666 51.68V51.92H242.266V51.68C242.686 51.68 242.906 51.53 242.926 51.23V41.69C242.926 41.09 242.866 40.67 242.746 40.43C242.626 40.19 242.446 40.07 242.206 40.07C242.186 40.07 242.166 40.07 242.146 40.07C241.706 40.09 241.326 40.36 241.006 40.88C240.706 41.38 240.526 41.87 240.466 42.35V51.23C240.466 51.53 240.686 51.68 241.126 51.68V51.92H235.696V51.68C236.376 51.68 236.716 51.52 236.716 51.2V40.97C236.716 40.63 236.376 40.46 235.696 40.46V40.22C237.596 40.22 239.186 39.76 240.466 38.84ZM255.944 38.81C257.664 38.03 258.634 36.56 258.854 34.4H259.694V38.81H261.794V39.08H259.694V46.58C259.694 48.28 259.834 49.51 260.114 50.27C260.394 51.01 260.954 51.56 261.794 51.92C259.614 51.92 258.094 51.58 257.234 50.9C256.374 50.2 255.944 49.07 255.944 47.51V38.81ZM261.808 51.92V51.68C262.488 51.68 262.828 51.52 262.828 51.2V35.15C262.828 34.81 262.488 34.64 261.808 34.64V34.4C263.748 34.4 265.328 33.95 266.548 33.05V41.33C266.588 41.19 266.658 41.03 266.758 40.85C266.858 40.65 267.028 40.38 267.268 40.04C267.508 39.7 267.838 39.42 268.258 39.2C268.698 38.96 269.178 38.84 269.698 38.84C270.818 38.84 271.608 39.21 272.068 39.95C272.528 40.69 272.758 41.79 272.758 43.25V51.2C272.758 51.52 273.118 51.68 273.838 51.68V51.92H268.378V51.68C268.798 51.68 269.018 51.53 269.038 51.23V41.39C269.038 40.51 268.798 40.07 268.318 40.07C268.298 40.07 268.268 40.07 268.228 40.07C267.788 40.09 267.418 40.35 267.118 40.85C266.818 41.35 266.628 41.85 266.548 42.35V51.23C266.568 51.53 266.788 51.68 267.208 51.68V51.92H261.808ZM275.17 42.38C275.53 41.52 275.99 40.84 276.55 40.34C277.13 39.84 277.72 39.47 278.32 39.23C278.94 38.97 279.53 38.84 280.09 38.84C281.67 38.84 282.9 39.38 283.78 40.46C284.66 41.54 285.13 43.02 285.19 44.9L278.17 44.93C278.17 46.49 278.45 47.77 279.01 48.77C279.59 49.77 280.47 50.29 281.65 50.33C281.93 50.33 282.19 50.31 282.43 50.27C282.69 50.21 282.89 50.16 283.03 50.12C283.19 50.06 283.38 49.95 283.6 49.79C283.82 49.63 283.96 49.53 284.02 49.49C284.08 49.43 284.21 49.3 284.41 49.1C284.61 48.88 284.72 48.76 284.74 48.74C283.74 50.86 282.3 51.92 280.42 51.92C278.7 51.92 277.3 51.3 276.22 50.06C275.14 48.8 274.6 47.22 274.6 45.32C274.6 44.24 274.79 43.26 275.17 42.38ZM282.16 44.57C282.16 40.91 281.55 39.08 280.33 39.08C280.17 39.08 280.01 39.11 279.85 39.17C279.71 39.21 279.53 39.35 279.31 39.59C279.09 39.81 278.9 40.11 278.74 40.49C278.58 40.85 278.44 41.39 278.32 42.11C278.22 42.81 278.17 43.63 278.17 44.57H282.16ZM1.71 72.67C2.79 71.45 4.32 70.84 6.3 70.84C7.42 70.84 8.32 71.13 9 71.71C9.88 72.47 10.32 73.34 10.32 74.32C10.32 74.94 10.11 75.45 9.69 75.85C9.29 76.25 8.81 76.45 8.25 76.45C7.77 76.45 7.35 76.28 6.99 75.94C6.65 75.58 6.48 75.17 6.48 74.71C6.48 74.25 6.61 73.89 6.87 73.63C7.15 73.37 7.47 73.23 7.83 73.21C7.87 73.21 7.92 73.21 7.98 73.21C8.1 73.21 8.24 73.23 8.4 73.27C8.58 73.29 8.69 73.3 8.73 73.3C8.91 73.3 9 73.17 9 72.91C9 72.87 9 72.82 9 72.76C8.98 72.4 8.77 72.06 8.37 71.74C7.99 71.42 7.53 71.25 6.99 71.23C6.97 71.23 6.95 71.23 6.93 71.23C6.15 71.23 5.4 71.74 4.68 72.76C3.98 73.78 3.62 75.29 3.6 77.29C3.6 77.39 3.6 77.48 3.6 77.56C3.6 78.94 3.9 80.08 4.5 80.98C5.1 81.88 5.92 82.34 6.96 82.36C7.08 82.34 7.18 82.33 7.26 82.33C7.36 82.33 7.43 82.34 7.47 82.36C7.51 82.38 7.55 82.39 7.59 82.39C7.69 82.39 7.82 82.35 7.98 82.27C8.16 82.19 8.29 82.15 8.37 82.15C8.37 82.15 8.37 82.16 8.37 82.18C8.39 82.18 8.4 82.18 8.4 82.18C8.48 82.18 8.6 82.12 8.76 82C8.94 81.88 9.05 81.81 9.09 81.79C9.15 81.77 9.25 81.69 9.39 81.55C9.55 81.41 9.65 81.32 9.69 81.28L10.17 80.8C9.21 82.88 7.78 83.92 5.88 83.92C4.16 83.92 2.75 83.29 1.65 82.03C0.549999 80.77 -7.45058e-07 79.22 -7.45058e-07 77.38C0.0399993 75.48 0.609999 73.91 1.71 72.67ZM12.2524 74.38C12.6124 73.52 13.0724 72.84 13.6324 72.34C14.2124 71.84 14.8024 71.47 15.4024 71.23C16.0224 70.97 16.6124 70.84 17.1724 70.84C18.7524 70.84 19.9824 71.38 20.8624 72.46C21.7424 73.54 22.2124 75.02 22.2724 76.9L15.2524 76.93C15.2524 78.49 15.5324 79.77 16.0924 80.77C16.6724 81.77 17.5524 82.29 18.7324 82.33C19.0124 82.33 19.2724 82.31 19.5124 82.27C19.7724 82.21 19.9724 82.16 20.1124 82.12C20.2724 82.06 20.4624 81.95 20.6824 81.79C20.9024 81.63 21.0424 81.53 21.1024 81.49C21.1624 81.43 21.2924 81.3 21.4924 81.1C21.6924 80.88 21.8024 80.76 21.8224 80.74C20.8224 82.86 19.3824 83.92 17.5024 83.92C15.7824 83.92 14.3824 83.3 13.3024 82.06C12.2224 80.8 11.6824 79.22 11.6824 77.32C11.6824 76.24 11.8724 75.26 12.2524 74.38ZM19.2424 76.57C19.2424 72.91 18.6324 71.08 17.4124 71.08C17.2524 71.08 17.0924 71.11 16.9324 71.17C16.7924 71.21 16.6124 71.35 16.3924 71.59C16.1724 71.81 15.9824 72.11 15.8224 72.49C15.6624 72.85 15.5224 73.39 15.4024 74.11C15.3024 74.81 15.2524 75.63 15.2524 76.57H19.2424ZM23.0168 83.68C23.6968 83.68 24.0368 83.52 24.0368 83.2V67.21C24.0368 66.87 23.6968 66.7 23.0168 66.7V66.46C24.8768 66.46 26.4668 66 27.7868 65.08V83.2C27.7868 83.52 28.1168 83.68 28.7768 83.68V83.92H23.0168V83.68ZM30.1095 74.38C30.4695 73.52 30.9295 72.84 31.4895 72.34C32.0695 71.84 32.6595 71.47 33.2595 71.23C33.8795 70.97 34.4695 70.84 35.0295 70.84C36.6095 70.84 37.8395 71.38 38.7195 72.46C39.5995 73.54 40.0695 75.02 40.1295 76.9L33.1095 76.93C33.1095 78.49 33.3895 79.77 33.9495 80.77C34.5295 81.77 35.4095 82.29 36.5895 82.33C36.8695 82.33 37.1295 82.31 37.3695 82.27C37.6295 82.21 37.8295 82.16 37.9695 82.12C38.1295 82.06 38.3195 81.95 38.5395 81.79C38.7595 81.63 38.8995 81.53 38.9595 81.49C39.0195 81.43 39.1495 81.3 39.3495 81.1C39.5495 80.88 39.6595 80.76 39.6795 80.74C38.6795 82.86 37.2395 83.92 35.3595 83.92C33.6395 83.92 32.2395 83.3 31.1595 82.06C30.0795 80.8 29.5395 79.22 29.5395 77.32C29.5395 76.24 29.7295 75.26 30.1095 74.38ZM37.0995 76.57C37.0995 72.91 36.4895 71.08 35.2695 71.08C35.1095 71.08 34.9495 71.11 34.7895 71.17C34.6495 71.21 34.4695 71.35 34.2495 71.59C34.0295 71.81 33.8395 72.11 33.6795 72.49C33.5195 72.85 33.3795 73.39 33.2595 74.11C33.1595 74.81 33.1095 75.63 33.1095 76.57H37.0995ZM40.8738 66.64V66.4C42.6338 66.4 44.2238 65.94 45.6438 65.02V73.24C45.9438 72.58 46.4238 72.01 47.0838 71.53C47.7438 71.05 48.4138 70.81 49.0938 70.81C50.1338 70.81 50.9538 71.36 51.5538 72.46C52.1538 73.56 52.4538 75.15 52.4538 77.23C52.4538 77.31 52.4538 77.38 52.4538 77.44C52.4338 79.52 51.9338 81.13 50.9538 82.27C49.9938 83.39 48.9138 83.95 47.7138 83.95C46.7138 83.95 46.0238 83.64 45.6438 83.02V82.96C45.6438 83.4 45.3638 83.69 44.8038 83.83C44.5038 83.89 43.5338 83.92 41.8938 83.92V67.15C41.8938 66.81 41.5538 66.64 40.8738 66.64ZM45.6438 74.38V81.31C45.6438 82.05 45.7238 82.57 45.8838 82.87C46.0438 83.17 46.3638 83.32 46.8438 83.32C47.1438 83.32 47.4338 83.17 47.7138 82.87C47.9938 82.57 48.2438 82.01 48.4638 81.19C48.7038 80.35 48.8238 79.31 48.8238 78.07C48.8238 77.89 48.8238 77.71 48.8238 77.53C48.8238 76.41 48.7638 75.42 48.6438 74.56C48.5238 73.7 48.3538 73.08 48.1338 72.7C47.9138 72.3 47.6538 72.1 47.3538 72.1C46.9138 72.1 46.5138 72.33 46.1538 72.79C45.8138 73.23 45.6438 73.76 45.6438 74.38ZM53.2008 72.46V72.22C55.0208 72.22 56.6008 71.76 57.9408 70.84V73.15C58.5008 71.85 59.4508 71.2 60.7908 71.2C61.6108 71.2 62.2808 71.41 62.8008 71.83C63.3208 72.25 63.5808 72.83 63.5808 73.57C63.5808 73.61 63.5808 73.64 63.5808 73.66C63.5808 74.22 63.4108 74.66 63.0708 74.98C62.7508 75.28 62.3708 75.43 61.9308 75.43C61.4908 75.43 61.1008 75.3 60.7608 75.04C60.4208 74.76 60.2408 74.36 60.2208 73.84C60.2208 73.56 60.3108 73.24 60.4908 72.88C60.6708 72.52 60.7608 72.29 60.7608 72.19C60.7608 72.05 60.6808 71.95 60.5208 71.89C60.3608 71.83 60.2108 71.8 60.0708 71.8C60.0308 71.8 59.9908 71.8 59.9508 71.8C59.5308 71.84 59.1308 72.05 58.7508 72.43C58.3908 72.79 58.1208 73.33 57.9408 74.05V83.2C57.9408 83.52 58.2808 83.68 58.9608 83.68V83.92H53.2008V83.68C53.8808 83.68 54.2208 83.52 54.2208 83.2V72.97C54.2208 72.63 53.8808 72.46 53.2008 72.46ZM63.5941 80.26C63.5941 78.94 64.0441 77.95 64.9441 77.29C65.8641 76.63 67.1041 76.29 68.6641 76.27C69.2241 76.27 69.7041 76.22 70.1041 76.12C71.2241 75.78 71.7841 74.96 71.7841 73.66C71.7841 72.92 71.5241 72.31 71.0041 71.83C70.4841 71.33 69.7941 71.08 68.9341 71.08C68.2341 71.08 67.6641 71.18 67.2241 71.38C66.7841 71.58 66.5441 71.83 66.5041 72.13C66.5041 72.19 66.5041 72.24 66.5041 72.28C66.5041 72.34 66.4941 72.38 66.4741 72.4C66.4741 72.4 66.4741 72.41 66.4741 72.43C66.4741 72.45 66.5041 72.5 66.5641 72.58C66.6241 72.66 66.6641 72.71 66.6841 72.73C66.7041 72.75 66.7641 72.81 66.8641 72.91C66.9841 73.01 67.0641 73.08 67.1041 73.12C67.3841 73.4 67.5241 73.75 67.5241 74.17C67.5241 74.25 67.5241 74.33 67.5241 74.41C67.5041 74.89 67.3341 75.26 67.0141 75.52C66.7141 75.76 66.3741 75.88 65.9941 75.88C65.9141 75.88 65.8341 75.87 65.7541 75.85C65.3141 75.81 64.9641 75.63 64.7041 75.31C64.4441 74.99 64.3141 74.59 64.3141 74.11C64.3141 74.07 64.3141 74.03 64.3141 73.99C64.3341 73.01 64.8041 72.22 65.7241 71.62C66.6441 71.02 67.6841 70.72 68.8441 70.72C70.2241 70.74 71.4041 71.2 72.3841 72.1C73.3841 73 73.8841 74.49 73.8841 76.57V82.42C73.8841 82.82 73.9541 83.09 74.0941 83.23C74.2541 83.37 74.5041 83.44 74.8441 83.44V83.68L71.7241 83.92C71.6841 83.92 71.6341 83.92 71.5741 83.92C70.7541 83.92 70.2841 83.58 70.1641 82.9C69.5441 83.6 68.6941 83.95 67.6141 83.95C67.5741 83.95 67.5441 83.95 67.5241 83.95C66.5041 83.95 65.5941 83.63 64.7941 82.99C63.9941 82.33 63.5941 81.45 63.5941 80.35C63.5941 80.31 63.5941 80.28 63.5941 80.26ZM67.3741 82.48C67.7341 83.06 68.1641 83.35 68.6641 83.35C68.6841 83.35 68.7141 83.35 68.7541 83.35C69.0941 83.33 69.4041 83.21 69.6841 82.99C69.9641 82.75 70.1041 82.48 70.1041 82.18V76.6C70.1041 76.5 70.0041 76.45 69.8041 76.45C69.7441 76.45 69.6741 76.45 69.5941 76.45C68.5341 76.47 67.7941 76.77 67.3741 77.35C66.9541 77.93 66.7441 78.82 66.7441 80.02C66.7641 81.06 66.9741 81.88 67.3741 82.48ZM76.4953 70.81C78.2153 70.03 79.1853 68.56 79.4053 66.4H80.2453V70.81H82.3453V71.08H80.2453V78.58C80.2453 80.28 80.3853 81.51 80.6653 82.27C80.9453 83.01 81.5053 83.56 82.3453 83.92C80.1653 83.92 78.6453 83.58 77.7853 82.9C76.9253 82.2 76.4953 81.07 76.4953 79.51V70.81ZM83.3794 83.2V72.97C83.3794 72.63 83.0394 72.46 82.3594 72.46V72.22C84.2394 72.22 85.8294 71.76 87.1294 70.84V83.2C87.1294 83.52 87.4594 83.68 88.1194 83.68V83.92H82.3594V83.68C83.0394 83.68 83.3794 83.52 83.3794 83.2ZM84.0694 67.27C84.3894 66.95 84.7794 66.79 85.2394 66.79C85.6794 66.79 86.0594 66.96 86.3794 67.3C86.6994 67.62 86.8594 68 86.8594 68.44C86.8594 68.9 86.6994 69.29 86.3794 69.61C86.0594 69.93 85.6794 70.09 85.2394 70.09C84.7794 70.09 84.3794 69.93 84.0394 69.61C83.7194 69.29 83.5594 68.9 83.5594 68.44C83.5594 67.98 83.7294 67.59 84.0694 67.27ZM90.412 72.46C91.412 71.38 92.712 70.84 94.312 70.84C95.892 70.84 97.182 71.39 98.182 72.49C99.182 73.57 99.682 75.21 99.682 77.41C99.682 79.37 99.162 80.95 98.122 82.15C97.102 83.33 95.832 83.92 94.312 83.92C92.752 83.92 91.452 83.35 90.412 82.21C89.392 81.05 88.882 79.45 88.882 77.41C88.882 75.21 89.392 73.56 90.412 72.46ZM92.692 80.38C92.772 81.2 92.862 81.82 92.962 82.24C93.062 82.66 93.192 82.99 93.352 83.23C93.532 83.45 93.682 83.58 93.802 83.62C93.942 83.66 94.112 83.68 94.312 83.68C94.512 83.68 94.672 83.66 94.792 83.62C94.912 83.58 95.052 83.45 95.212 83.23C95.392 82.99 95.532 82.66 95.632 82.24C95.732 81.82 95.812 81.2 95.872 80.38C95.952 79.56 95.992 78.57 95.992 77.41C95.992 76.25 95.952 75.26 95.872 74.44C95.812 73.6 95.732 72.97 95.632 72.55C95.532 72.13 95.392 71.81 95.212 71.59C95.052 71.35 94.912 71.21 94.792 71.17C94.672 71.13 94.512 71.11 94.312 71.11C94.112 71.11 93.942 71.13 93.802 71.17C93.682 71.21 93.532 71.35 93.352 71.59C93.192 71.81 93.062 72.13 92.962 72.55C92.862 72.97 92.772 73.59 92.692 74.41C92.612 75.25 92.572 76.25 92.572 77.41C92.572 78.57 92.612 79.56 92.692 80.38ZM105.191 70.84V73.33C105.251 73.13 105.331 72.93 105.431 72.73C105.551 72.53 105.731 72.27 105.971 71.95C106.231 71.63 106.561 71.37 106.961 71.17C107.381 70.95 107.841 70.84 108.341 70.84C110.361 70.84 111.371 72.2 111.371 74.92V83.2C111.371 83.52 111.711 83.68 112.391 83.68V83.92H106.991V83.68C107.411 83.68 107.631 83.53 107.651 83.23V73.69C107.651 73.09 107.591 72.67 107.471 72.43C107.351 72.19 107.171 72.07 106.931 72.07C106.911 72.07 106.891 72.07 106.871 72.07C106.431 72.09 106.051 72.36 105.731 72.88C105.431 73.38 105.251 73.87 105.191 74.35V83.23C105.191 83.53 105.411 83.68 105.851 83.68V83.92H100.421V83.68C101.101 83.68 101.441 83.52 101.441 83.2V72.97C101.441 72.63 101.101 72.46 100.421 72.46V72.22C102.321 72.22 103.911 71.76 105.191 70.84ZM121.299 72.46C122.299 71.38 123.599 70.84 125.199 70.84C126.779 70.84 128.069 71.39 129.069 72.49C130.069 73.57 130.569 75.21 130.569 77.41C130.569 79.37 130.049 80.95 129.009 82.15C127.989 83.33 126.719 83.92 125.199 83.92C123.639 83.92 122.339 83.35 121.299 82.21C120.279 81.05 119.769 79.45 119.769 77.41C119.769 75.21 120.279 73.56 121.299 72.46ZM123.579 80.38C123.659 81.2 123.749 81.82 123.849 82.24C123.949 82.66 124.079 82.99 124.239 83.23C124.419 83.45 124.569 83.58 124.689 83.62C124.829 83.66 124.999 83.68 125.199 83.68C125.399 83.68 125.559 83.66 125.679 83.62C125.799 83.58 125.939 83.45 126.099 83.23C126.279 82.99 126.419 82.66 126.519 82.24C126.619 81.82 126.699 81.2 126.759 80.38C126.839 79.56 126.879 78.57 126.879 77.41C126.879 76.25 126.839 75.26 126.759 74.44C126.699 73.6 126.619 72.97 126.519 72.55C126.419 72.13 126.279 71.81 126.099 71.59C125.939 71.35 125.799 71.21 125.679 71.17C125.559 71.13 125.399 71.11 125.199 71.11C124.999 71.11 124.829 71.13 124.689 71.17C124.569 71.21 124.419 71.35 124.239 71.59C124.079 71.81 123.949 72.13 123.849 72.55C123.749 72.97 123.659 73.59 123.579 74.41C123.499 75.25 123.459 76.25 123.459 77.41C123.459 78.57 123.499 79.56 123.579 80.38ZM132.329 74.26V73.93C132.329 71.49 132.339 70.1 132.359 69.76C132.399 68.72 132.599 67.81 132.959 67.03C133.319 66.25 133.779 65.65 134.339 65.23C134.899 64.81 135.479 64.5 136.079 64.3C136.679 64.1 137.289 64 137.909 64C139.209 64 140.279 64.42 141.119 65.26C141.979 66.08 142.409 67.03 142.409 68.11C142.409 68.81 142.229 69.37 141.869 69.79C141.509 70.21 141.039 70.42 140.459 70.42C140.419 70.42 140.389 70.42 140.369 70.42C139.849 70.4 139.439 70.21 139.139 69.85C138.839 69.47 138.689 69.07 138.689 68.65C138.689 68.61 138.689 68.56 138.689 68.5C138.749 68.06 139.049 67.6 139.589 67.12C140.129 66.64 140.399 66.21 140.399 65.83C140.379 65.33 140.119 64.94 139.619 64.66C139.119 64.38 138.549 64.24 137.909 64.24C136.789 64.24 135.899 64.55 135.239 65.17C134.599 65.77 134.279 66.55 134.279 67.51C134.279 68.49 134.569 69.51 135.149 70.57C135.749 71.63 136.059 72.64 136.079 73.6V74.26H137.909V74.53H136.079V83.2C136.079 83.52 136.409 83.68 137.069 83.68V83.92H131.309V83.68C131.989 83.68 132.329 83.52 132.329 83.2V74.53H131.309V74.26H132.329ZM148.934 72.46C149.934 71.38 151.234 70.84 152.834 70.84C154.414 70.84 155.704 71.39 156.704 72.49C157.704 73.57 158.204 75.21 158.204 77.41C158.204 79.37 157.684 80.95 156.644 82.15C155.624 83.33 154.354 83.92 152.834 83.92C151.274 83.92 149.974 83.35 148.934 82.21C147.914 81.05 147.404 79.45 147.404 77.41C147.404 75.21 147.914 73.56 148.934 72.46ZM151.214 80.38C151.294 81.2 151.384 81.82 151.484 82.24C151.584 82.66 151.714 82.99 151.874 83.23C152.054 83.45 152.204 83.58 152.324 83.62C152.464 83.66 152.634 83.68 152.834 83.68C153.034 83.68 153.194 83.66 153.314 83.62C153.434 83.58 153.574 83.45 153.734 83.23C153.914 82.99 154.054 82.66 154.154 82.24C154.254 81.82 154.334 81.2 154.394 80.38C154.474 79.56 154.514 78.57 154.514 77.41C154.514 76.25 154.474 75.26 154.394 74.44C154.334 73.6 154.254 72.97 154.154 72.55C154.054 72.13 153.914 71.81 153.734 71.59C153.574 71.35 153.434 71.21 153.314 71.17C153.194 71.13 153.034 71.11 152.834 71.11C152.634 71.11 152.464 71.13 152.324 71.17C152.204 71.21 152.054 71.35 151.874 71.59C151.714 71.81 151.584 72.13 151.484 72.55C151.384 72.97 151.294 73.59 151.214 74.41C151.134 75.25 151.094 76.25 151.094 77.41C151.094 78.57 151.134 79.56 151.214 80.38ZM158.944 72.46V72.22C160.784 72.22 162.364 71.76 163.684 70.84V81.4C163.684 82.3 163.954 82.75 164.494 82.75C164.514 82.75 164.544 82.75 164.584 82.75C165.004 82.73 165.354 82.47 165.634 81.97C165.914 81.45 166.084 80.92 166.144 80.38V72.97C166.144 72.63 165.814 72.46 165.154 72.46V72.22C167.034 72.22 168.614 71.76 169.894 70.84V82.45C169.894 83.13 170.154 83.47 170.674 83.47H170.884V83.71C170.184 83.77 169.574 83.82 169.054 83.86C168.554 83.9 168.224 83.92 168.064 83.92C167.924 83.94 167.814 83.95 167.734 83.95C166.674 83.95 166.144 83.45 166.144 82.45V81.58C166.124 81.64 166.084 81.75 166.024 81.91C165.964 82.05 165.854 82.24 165.694 82.48C165.534 82.72 165.344 82.95 165.124 83.17C164.924 83.37 164.644 83.55 164.284 83.71C163.924 83.85 163.534 83.92 163.114 83.92C161.014 83.92 159.964 82.54 159.964 79.78V72.97C159.964 72.63 159.624 72.46 158.944 72.46ZM171.798 72.46V72.22C173.618 72.22 175.198 71.76 176.538 70.84V73.15C177.098 71.85 178.048 71.2 179.388 71.2C180.208 71.2 180.878 71.41 181.398 71.83C181.918 72.25 182.178 72.83 182.178 73.57C182.178 73.61 182.178 73.64 182.178 73.66C182.178 74.22 182.008 74.66 181.668 74.98C181.348 75.28 180.968 75.43 180.528 75.43C180.088 75.43 179.698 75.3 179.358 75.04C179.018 74.76 178.838 74.36 178.818 73.84C178.818 73.56 178.908 73.24 179.088 72.88C179.268 72.52 179.358 72.29 179.358 72.19C179.358 72.05 179.278 71.95 179.118 71.89C178.958 71.83 178.808 71.8 178.668 71.8C178.628 71.8 178.588 71.8 178.548 71.8C178.128 71.84 177.728 72.05 177.348 72.43C176.988 72.79 176.718 73.33 176.538 74.05V83.2C176.538 83.52 176.878 83.68 177.558 83.68V83.92H171.798V83.68C172.478 83.68 172.818 83.52 172.818 83.2V72.97C172.818 72.63 172.478 72.46 171.798 72.46ZM188.198 70.84H194.198V71.08H193.778C193.678 71.08 193.588 71.1 193.508 71.14C193.428 71.16 193.378 71.19 193.358 71.23C193.358 71.27 193.358 71.3 193.358 71.32C193.358 71.36 193.358 71.4 193.358 71.44L195.098 77.89C195.238 78.45 195.308 78.85 195.308 79.09C195.308 79.13 195.308 79.18 195.308 79.24C195.308 79.84 195.078 80.44 194.618 81.04C194.158 81.62 193.928 82.12 193.928 82.54C193.928 82.56 193.928 82.58 193.928 82.6C194.028 83.28 194.378 83.62 194.978 83.62C195.718 83.62 196.228 83.12 196.508 82.12L198.068 76.27L196.808 71.59C196.728 71.25 196.488 71.08 196.088 71.08V70.84H201.278V71.08C200.858 71.08 200.648 71.17 200.648 71.35C200.648 71.39 200.648 71.42 200.648 71.44L202.388 77.89C202.488 78.31 202.558 78.71 202.598 79.09C202.598 79.11 202.598 79.14 202.598 79.18C202.598 79.8 202.358 80.41 201.878 81.01C201.418 81.61 201.188 82.12 201.188 82.54C201.188 82.56 201.188 82.58 201.188 82.6C201.288 83.28 201.638 83.62 202.238 83.62C202.978 83.62 203.488 83.12 203.768 82.12L206.678 71.29C206.678 71.27 206.678 71.26 206.678 71.26C206.678 71.18 206.628 71.13 206.528 71.11C206.428 71.09 206.188 71.08 205.808 71.08V70.84H208.028V71.08C207.768 71.08 207.588 71.09 207.488 71.11C207.388 71.11 207.288 71.14 207.188 71.2C207.108 71.24 207.058 71.32 207.038 71.44L204.158 82.18C203.818 83.34 203.178 83.92 202.238 83.92C201.778 83.92 201.368 83.84 201.008 83.68C200.668 83.5 200.388 83.26 200.168 82.96C199.968 82.64 199.818 82.37 199.718 82.15C199.638 81.91 199.548 81.63 199.448 81.31L198.278 77.02L196.898 82.18C196.518 83.34 195.878 83.92 194.978 83.92C193.598 83.92 192.658 83.05 192.158 81.31L189.548 71.59C189.468 71.25 189.018 71.08 188.198 71.08V70.84ZM208.086 74.38C208.446 73.52 208.906 72.84 209.466 72.34C210.046 71.84 210.636 71.47 211.236 71.23C211.856 70.97 212.446 70.84 213.006 70.84C214.586 70.84 215.816 71.38 216.696 72.46C217.576 73.54 218.046 75.02 218.106 76.9L211.086 76.93C211.086 78.49 211.366 79.77 211.926 80.77C212.506 81.77 213.386 82.29 214.566 82.33C214.846 82.33 215.106 82.31 215.346 82.27C215.606 82.21 215.806 82.16 215.946 82.12C216.106 82.06 216.296 81.95 216.516 81.79C216.736 81.63 216.876 81.53 216.936 81.49C216.996 81.43 217.126 81.3 217.326 81.1C217.526 80.88 217.636 80.76 217.656 80.74C216.656 82.86 215.216 83.92 213.336 83.92C211.616 83.92 210.216 83.3 209.136 82.06C208.056 80.8 207.516 79.22 207.516 77.32C207.516 76.24 207.706 75.26 208.086 74.38ZM215.076 76.57C215.076 72.91 214.466 71.08 213.246 71.08C213.086 71.08 212.926 71.11 212.766 71.17C212.626 71.21 212.446 71.35 212.226 71.59C212.006 71.81 211.816 72.11 211.656 72.49C211.496 72.85 211.356 73.39 211.236 74.11C211.136 74.81 211.086 75.63 211.086 76.57H215.076ZM219.286 77.29C219.306 75.33 219.756 73.77 220.636 72.61C221.536 71.45 222.536 70.86 223.636 70.84C224.876 70.84 225.706 71.55 226.126 72.97V67.15C226.126 66.81 225.796 66.64 225.136 66.64V66.4C227.016 66.4 228.596 65.94 229.876 65.02V82.45C229.876 83.13 230.136 83.47 230.656 83.47H230.866V83.71L228.196 83.92C228.076 83.92 227.966 83.92 227.866 83.92C227.346 83.92 226.926 83.83 226.606 83.65C226.286 83.47 226.126 83.07 226.126 82.45V82.18C225.906 82.7 225.546 83.12 225.046 83.44C224.546 83.76 223.996 83.92 223.396 83.92C222.276 83.92 221.306 83.39 220.486 82.33C219.686 81.25 219.286 79.62 219.286 77.44C219.286 77.4 219.286 77.35 219.286 77.29ZM223.426 81.49C223.786 82.53 224.236 83.05 224.776 83.05C225.176 83.05 225.496 82.87 225.736 82.51C225.976 82.15 226.106 81.75 226.126 81.31V75.19C226.066 74.19 225.926 73.4 225.706 72.82C225.506 72.24 225.136 71.95 224.596 71.95C224.116 71.95 223.706 72.35 223.366 73.15C223.026 73.93 222.856 75.17 222.856 76.87C222.856 78.91 223.046 80.45 223.426 81.49ZM231.613 77.29C231.633 75.33 232.083 73.77 232.963 72.61C233.863 71.45 234.863 70.86 235.963 70.84C237.203 70.84 238.033 71.55 238.453 72.97V67.15C238.453 66.81 238.123 66.64 237.463 66.64V66.4C239.343 66.4 240.923 65.94 242.203 65.02V82.45C242.203 83.13 242.463 83.47 242.983 83.47H243.193V83.71L240.523 83.92C240.403 83.92 240.293 83.92 240.193 83.92C239.673 83.92 239.253 83.83 238.933 83.65C238.613 83.47 238.453 83.07 238.453 82.45V82.18C238.233 82.7 237.873 83.12 237.373 83.44C236.873 83.76 236.323 83.92 235.723 83.92C234.603 83.92 233.633 83.39 232.813 82.33C232.013 81.25 231.613 79.62 231.613 77.44C231.613 77.4 231.613 77.35 231.613 77.29ZM235.753 81.49C236.113 82.53 236.563 83.05 237.103 83.05C237.503 83.05 237.823 82.87 238.063 82.51C238.303 82.15 238.433 81.75 238.453 81.31V75.19C238.393 74.19 238.253 73.4 238.033 72.82C237.833 72.24 237.463 71.95 236.923 71.95C236.443 71.95 236.033 72.35 235.693 73.15C235.353 73.93 235.183 75.17 235.183 76.87C235.183 78.91 235.373 80.45 235.753 81.49ZM245.11 83.2V72.97C245.11 72.63 244.77 72.46 244.09 72.46V72.22C245.97 72.22 247.56 71.76 248.86 70.84V83.2C248.86 83.52 249.19 83.68 249.85 83.68V83.92H244.09V83.68C244.77 83.68 245.11 83.52 245.11 83.2ZM245.8 67.27C246.12 66.95 246.51 66.79 246.97 66.79C247.41 66.79 247.79 66.96 248.11 67.3C248.43 67.62 248.59 68 248.59 68.44C248.59 68.9 248.43 69.29 248.11 69.61C247.79 69.93 247.41 70.09 246.97 70.09C246.51 70.09 246.11 69.93 245.77 69.61C245.45 69.29 245.29 68.9 245.29 68.44C245.29 67.98 245.46 67.59 245.8 67.27ZM255.533 70.84V73.33C255.593 73.13 255.673 72.93 255.773 72.73C255.893 72.53 256.073 72.27 256.313 71.95C256.573 71.63 256.903 71.37 257.303 71.17C257.723 70.95 258.183 70.84 258.683 70.84C260.703 70.84 261.713 72.2 261.713 74.92V83.2C261.713 83.52 262.053 83.68 262.733 83.68V83.92H257.333V83.68C257.753 83.68 257.973 83.53 257.993 83.23V73.69C257.993 73.09 257.933 72.67 257.813 72.43C257.693 72.19 257.513 72.07 257.273 72.07C257.253 72.07 257.233 72.07 257.213 72.07C256.773 72.09 256.393 72.36 256.073 72.88C255.773 73.38 255.593 73.87 255.533 74.35V83.23C255.533 83.53 255.753 83.68 256.193 83.68V83.92H250.763V83.68C251.443 83.68 251.783 83.52 251.783 83.2V72.97C251.783 72.63 251.443 72.46 250.763 72.46V72.22C252.663 72.22 254.253 71.76 255.533 70.84ZM264.366 80.35C264.446 80.27 264.556 80.17 264.696 80.05C264.856 79.91 264.966 79.81 265.026 79.75C265.086 79.67 265.136 79.59 265.176 79.51C265.236 79.41 265.266 79.34 265.266 79.3C265.266 79.22 265.236 79.16 265.176 79.12C264.676 78.28 264.426 77.25 264.426 76.03C264.446 74.35 264.926 73.07 265.866 72.19C266.806 71.29 268.046 70.84 269.586 70.84C270.246 70.84 270.826 70.92 271.326 71.08C271.146 70.66 271.056 70.2 271.056 69.7C271.056 68.94 271.316 68.3 271.836 67.78C272.376 67.24 272.996 66.97 273.696 66.97C274.336 66.97 274.856 67.15 275.256 67.51C275.676 67.87 275.886 68.33 275.886 68.89C275.886 68.91 275.886 68.94 275.886 68.98C275.886 69.46 275.706 69.87 275.346 70.21C274.986 70.53 274.586 70.69 274.146 70.69C274.106 70.69 274.076 70.69 274.056 70.69C273.616 70.67 273.196 70.46 272.796 70.06C272.756 70 272.686 69.91 272.586 69.79C272.486 69.67 272.406 69.59 272.346 69.55C272.306 69.49 272.246 69.45 272.166 69.43C272.086 69.39 272.016 69.37 271.956 69.37C271.936 69.37 271.906 69.37 271.866 69.37C271.506 69.45 271.326 69.72 271.326 70.18C271.326 70.2 271.326 70.22 271.326 70.24C271.326 70.54 271.396 70.82 271.536 71.08C271.756 71.56 272.146 71.94 272.706 72.22C273.286 72.5 273.956 72.64 274.716 72.64V75.94C274.676 77.64 274.186 78.97 273.246 79.93C272.306 80.89 271.086 81.37 269.586 81.37C268.046 81.37 266.866 80.97 266.046 80.17C265.886 80.01 265.716 79.93 265.536 79.93C265.516 79.93 265.486 79.93 265.446 79.93C265.146 79.93 264.816 80.12 264.456 80.5C264.096 80.88 263.916 81.29 263.916 81.73C263.916 81.75 263.916 81.78 263.916 81.82C263.916 82.3 264.086 82.65 264.426 82.87C264.766 83.09 265.216 83.2 265.776 83.2C265.816 83.2 265.856 83.2 265.896 83.2C266.596 83.2 267.576 83.03 268.836 82.69C270.096 82.33 271.106 82.15 271.866 82.15C271.906 82.15 271.946 82.15 271.986 82.15C273.286 82.15 274.246 82.51 274.866 83.23C275.486 83.95 275.796 84.89 275.796 86.05C275.796 86.11 275.796 86.18 275.796 86.26C275.756 87.9 275.096 89.3 273.816 90.46C272.536 91.64 270.896 92.23 268.896 92.23C267.596 92.23 266.366 91.89 265.206 91.21C264.066 90.53 263.486 89.62 263.466 88.48C263.466 88.44 263.466 88.41 263.466 88.39C263.466 87.81 263.646 87.35 264.006 87.01C264.366 86.67 264.836 86.5 265.416 86.5C265.436 86.5 265.466 86.5 265.506 86.5C266.026 86.52 266.406 86.69 266.646 87.01C266.906 87.35 267.036 87.71 267.036 88.09C267.036 88.15 267.036 88.21 267.036 88.27C266.996 88.67 266.786 89.05 266.406 89.41C266.046 89.77 265.856 90.08 265.836 90.34C265.836 90.36 265.836 90.37 265.836 90.37C265.836 90.75 266.136 91.12 266.736 91.48C267.336 91.86 268.046 92.05 268.866 92.05C269.926 92.05 270.846 91.74 271.626 91.12C272.426 90.52 272.866 89.78 272.946 88.9C273.006 88.68 273.036 88.47 273.036 88.27C273.036 87.71 272.796 87.22 272.316 86.8C271.856 86.4 271.146 86.2 270.186 86.2C270.006 86.2 269.816 86.21 269.616 86.23C269.416 86.23 269.216 86.23 269.016 86.23C265.316 86.23 263.446 85.13 263.406 82.93C263.406 82.85 263.406 82.77 263.406 82.69C263.406 81.77 263.726 80.99 264.366 80.35ZM268.146 79.45C268.326 80.23 268.516 80.71 268.716 80.89C268.936 81.05 269.226 81.13 269.586 81.13C269.926 81.13 270.196 81.05 270.396 80.89C270.616 80.71 270.816 80.23 270.996 79.45C271.176 78.67 271.266 77.54 271.266 76.06C271.266 74.6 271.176 73.48 270.996 72.7C270.816 71.92 270.616 71.45 270.396 71.29C270.196 71.13 269.926 71.05 269.586 71.05C269.226 71.05 268.936 71.13 268.716 71.29C268.516 71.45 268.326 71.92 268.146 72.7C267.966 73.46 267.876 74.58 267.876 76.06C267.876 77.54 267.966 78.67 268.146 79.45ZM283.114 80.26C283.114 78.94 283.564 77.95 284.464 77.29C285.384 76.63 286.624 76.29 288.184 76.27C288.744 76.27 289.224 76.22 289.624 76.12C290.744 75.78 291.304 74.96 291.304 73.66C291.304 72.92 291.044 72.31 290.524 71.83C290.004 71.33 289.314 71.08 288.454 71.08C287.754 71.08 287.184 71.18 286.744 71.38C286.304 71.58 286.064 71.83 286.024 72.13C286.024 72.19 286.024 72.24 286.024 72.28C286.024 72.34 286.014 72.38 285.994 72.4C285.994 72.4 285.994 72.41 285.994 72.43C285.994 72.45 286.024 72.5 286.084 72.58C286.144 72.66 286.184 72.71 286.204 72.73C286.224 72.75 286.284 72.81 286.384 72.91C286.504 73.01 286.584 73.08 286.624 73.12C286.904 73.4 287.044 73.75 287.044 74.17C287.044 74.25 287.044 74.33 287.044 74.41C287.024 74.89 286.854 75.26 286.534 75.52C286.234 75.76 285.894 75.88 285.514 75.88C285.434 75.88 285.354 75.87 285.274 75.85C284.834 75.81 284.484 75.63 284.224 75.31C283.964 74.99 283.834 74.59 283.834 74.11C283.834 74.07 283.834 74.03 283.834 73.99C283.854 73.01 284.324 72.22 285.244 71.62C286.164 71.02 287.204 70.72 288.364 70.72C289.744 70.74 290.924 71.2 291.904 72.1C292.904 73 293.404 74.49 293.404 76.57V82.42C293.404 82.82 293.474 83.09 293.614 83.23C293.774 83.37 294.024 83.44 294.364 83.44V83.68L291.244 83.92C291.204 83.92 291.154 83.92 291.094 83.92C290.274 83.92 289.804 83.58 289.684 82.9C289.064 83.6 288.214 83.95 287.134 83.95C287.094 83.95 287.064 83.95 287.044 83.95C286.024 83.95 285.114 83.63 284.314 82.99C283.514 82.33 283.114 81.45 283.114 80.35C283.114 80.31 283.114 80.28 283.114 80.26ZM286.894 82.48C287.254 83.06 287.684 83.35 288.184 83.35C288.204 83.35 288.234 83.35 288.274 83.35C288.614 83.33 288.924 83.21 289.204 82.99C289.484 82.75 289.624 82.48 289.624 82.18V76.6C289.624 76.5 289.524 76.45 289.324 76.45C289.264 76.45 289.194 76.45 289.114 76.45C288.054 76.47 287.314 76.77 286.894 77.35C286.474 77.93 286.264 78.82 286.264 80.02C286.284 81.06 286.494 81.88 286.894 82.48ZM300.036 70.84V73.33C300.096 73.13 300.176 72.93 300.276 72.73C300.396 72.53 300.576 72.27 300.816 71.95C301.076 71.63 301.406 71.37 301.806 71.17C302.226 70.95 302.686 70.84 303.186 70.84C305.206 70.84 306.216 72.2 306.216 74.92V83.2C306.216 83.52 306.556 83.68 307.236 83.68V83.92H301.836V83.68C302.256 83.68 302.476 83.53 302.496 83.23V73.69C302.496 73.09 302.436 72.67 302.316 72.43C302.196 72.19 302.016 72.07 301.776 72.07C301.756 72.07 301.736 72.07 301.716 72.07C301.276 72.09 300.896 72.36 300.576 72.88C300.276 73.38 300.096 73.87 300.036 74.35V83.23C300.036 83.53 300.256 83.68 300.696 83.68V83.92H295.266V83.68C295.946 83.68 296.286 83.52 296.286 83.2V72.97C296.286 72.63 295.946 72.46 295.266 72.46V72.22C297.166 72.22 298.756 71.76 300.036 70.84ZM307.999 77.29C308.019 75.33 308.469 73.77 309.349 72.61C310.249 71.45 311.249 70.86 312.349 70.84C313.589 70.84 314.419 71.55 314.839 72.97V67.15C314.839 66.81 314.509 66.64 313.849 66.64V66.4C315.729 66.4 317.309 65.94 318.589 65.02V82.45C318.589 83.13 318.849 83.47 319.369 83.47H319.579V83.71L316.909 83.92C316.789 83.92 316.679 83.92 316.579 83.92C316.059 83.92 315.639 83.83 315.319 83.65C314.999 83.47 314.839 83.07 314.839 82.45V82.18C314.619 82.7 314.259 83.12 313.759 83.44C313.259 83.76 312.709 83.92 312.109 83.92C310.989 83.92 310.019 83.39 309.199 82.33C308.399 81.25 307.999 79.62 307.999 77.44C307.999 77.4 307.999 77.35 307.999 77.29ZM312.139 81.49C312.499 82.53 312.949 83.05 313.489 83.05C313.889 83.05 314.209 82.87 314.449 82.51C314.689 82.15 314.819 81.75 314.839 81.31V75.19C314.779 74.19 314.639 73.4 314.419 72.82C314.219 72.24 313.849 71.95 313.309 71.95C312.829 71.95 312.419 72.35 312.079 73.15C311.739 73.93 311.569 75.17 311.569 76.87C311.569 78.91 311.759 80.45 312.139 81.49ZM16.3652 102.81C18.0852 102.03 19.0552 100.56 19.2752 98.4H20.1152V102.81H22.2152V103.08H20.1152V110.58C20.1152 112.28 20.2552 113.51 20.5352 114.27C20.8152 115.01 21.3752 115.56 22.2152 115.92C20.0352 115.92 18.5152 115.58 17.6552 114.9C16.7952 114.2 16.3652 113.07 16.3652 111.51V102.81ZM22.2293 115.92V115.68C22.9093 115.68 23.2493 115.52 23.2493 115.2V99.15C23.2493 98.81 22.9093 98.64 22.2293 98.64V98.4C24.1693 98.4 25.7493 97.95 26.9693 97.05V105.33C27.0093 105.19 27.0793 105.03 27.1793 104.85C27.2793 104.65 27.4493 104.38 27.6893 104.04C27.9293 103.7 28.2593 103.42 28.6793 103.2C29.1193 102.96 29.5993 102.84 30.1193 102.84C31.2393 102.84 32.0293 103.21 32.4893 103.95C32.9493 104.69 33.1793 105.79 33.1793 107.25V115.2C33.1793 115.52 33.5393 115.68 34.2593 115.68V115.92H28.7993V115.68C29.2193 115.68 29.4393 115.53 29.4593 115.23V105.39C29.4593 104.51 29.2193 104.07 28.7393 104.07C28.7193 104.07 28.6893 104.07 28.6493 104.07C28.2093 104.09 27.8393 104.35 27.5393 104.85C27.2393 105.35 27.0493 105.85 26.9693 106.35V115.23C26.9893 115.53 27.2093 115.68 27.6293 115.68V115.92H22.2293ZM35.5915 106.38C35.9515 105.52 36.4115 104.84 36.9715 104.34C37.5515 103.84 38.1415 103.47 38.7415 103.23C39.3615 102.97 39.9515 102.84 40.5115 102.84C42.0915 102.84 43.3215 103.38 44.2015 104.46C45.0815 105.54 45.5515 107.02 45.6115 108.9L38.5915 108.93C38.5915 110.49 38.8715 111.77 39.4315 112.77C40.0115 113.77 40.8915 114.29 42.0715 114.33C42.3515 114.33 42.6115 114.31 42.8515 114.27C43.1115 114.21 43.3115 114.16 43.4515 114.12C43.6115 114.06 43.8015 113.95 44.0215 113.79C44.2415 113.63 44.3815 113.53 44.4415 113.49C44.5015 113.43 44.6315 113.3 44.8315 113.1C45.0315 112.88 45.1415 112.76 45.1615 112.74C44.1615 114.86 42.7215 115.92 40.8415 115.92C39.1215 115.92 37.7215 115.3 36.6415 114.06C35.5615 112.8 35.0215 111.22 35.0215 109.32C35.0215 108.24 35.2115 107.26 35.5915 106.38ZM42.5815 108.57C42.5815 104.91 41.9715 103.08 40.7515 103.08C40.5915 103.08 40.4315 103.11 40.2715 103.17C40.1315 103.21 39.9515 103.35 39.7315 103.59C39.5115 103.81 39.3215 104.11 39.1615 104.49C39.0015 104.85 38.8615 105.39 38.7415 106.11C38.6415 106.81 38.5915 107.63 38.5915 108.57H42.5815ZM52.9699 98.64V98.4C54.7299 98.4 56.3199 97.94 57.7399 97.02V105.24C58.0399 104.58 58.5199 104.01 59.1799 103.53C59.8399 103.05 60.5099 102.81 61.1899 102.81C62.2299 102.81 63.0499 103.36 63.6499 104.46C64.2499 105.56 64.5499 107.15 64.5499 109.23C64.5499 109.31 64.5499 109.38 64.5499 109.44C64.5299 111.52 64.0299 113.13 63.0499 114.27C62.0899 115.39 61.0099 115.95 59.8099 115.95C58.8099 115.95 58.1199 115.64 57.7399 115.02V114.96C57.7399 115.4 57.4599 115.69 56.8999 115.83C56.5999 115.89 55.6299 115.92 53.9899 115.92V99.15C53.9899 98.81 53.6499 98.64 52.9699 98.64ZM57.7399 106.38V113.31C57.7399 114.05 57.8199 114.57 57.9799 114.87C58.1399 115.17 58.4599 115.32 58.9399 115.32C59.2399 115.32 59.5299 115.17 59.8099 114.87C60.0899 114.57 60.3399 114.01 60.5599 113.19C60.7999 112.35 60.9199 111.31 60.9199 110.07C60.9199 109.89 60.9199 109.71 60.9199 109.53C60.9199 108.41 60.8599 107.42 60.7399 106.56C60.6199 105.7 60.4499 105.08 60.2299 104.7C60.0099 104.3 59.7499 104.1 59.4499 104.1C59.0099 104.1 58.6099 104.33 58.2499 104.79C57.9099 105.23 57.7399 105.76 57.7399 106.38ZM66.7716 106.38C67.1316 105.52 67.5916 104.84 68.1516 104.34C68.7316 103.84 69.3216 103.47 69.9216 103.23C70.5416 102.97 71.1316 102.84 71.6916 102.84C73.2716 102.84 74.5016 103.38 75.3816 104.46C76.2616 105.54 76.7316 107.02 76.7916 108.9L69.7716 108.93C69.7716 110.49 70.0516 111.77 70.6116 112.77C71.1916 113.77 72.0716 114.29 73.2516 114.33C73.5316 114.33 73.7916 114.31 74.0316 114.27C74.2916 114.21 74.4916 114.16 74.6316 114.12C74.7916 114.06 74.9816 113.95 75.2016 113.79C75.4216 113.63 75.5616 113.53 75.6216 113.49C75.6816 113.43 75.8116 113.3 76.0116 113.1C76.2116 112.88 76.3216 112.76 76.3416 112.74C75.3416 114.86 73.9016 115.92 72.0216 115.92C70.3016 115.92 68.9016 115.3 67.8216 114.06C66.7416 112.8 66.2016 111.22 66.2016 109.32C66.2016 108.24 66.3916 107.26 66.7716 106.38ZM73.7616 108.57C73.7616 104.91 73.1516 103.08 71.9316 103.08C71.7716 103.08 71.6116 103.11 71.4516 103.17C71.3116 103.21 71.1316 103.35 70.9116 103.59C70.6916 103.81 70.5016 104.11 70.3416 104.49C70.1816 104.85 70.0416 105.39 69.9216 106.11C69.8216 106.81 69.7716 107.63 69.7716 108.57H73.7616ZM78.2559 112.35C78.3359 112.27 78.4459 112.17 78.5859 112.05C78.7459 111.91 78.8559 111.81 78.9159 111.75C78.9759 111.67 79.0259 111.59 79.0659 111.51C79.1259 111.41 79.1559 111.34 79.1559 111.3C79.1559 111.22 79.1259 111.16 79.0659 111.12C78.5659 110.28 78.3159 109.25 78.3159 108.03C78.3359 106.35 78.8159 105.07 79.7559 104.19C80.6959 103.29 81.9359 102.84 83.4759 102.84C84.1359 102.84 84.7159 102.92 85.2159 103.08C85.0359 102.66 84.9459 102.2 84.9459 101.7C84.9459 100.94 85.2059 100.3 85.7259 99.78C86.2659 99.24 86.8859 98.97 87.5859 98.97C88.2259 98.97 88.7459 99.15 89.1459 99.51C89.5659 99.87 89.7759 100.33 89.7759 100.89C89.7759 100.91 89.7759 100.94 89.7759 100.98C89.7759 101.46 89.5959 101.87 89.2359 102.21C88.8759 102.53 88.4759 102.69 88.0359 102.69C87.9959 102.69 87.9659 102.69 87.9459 102.69C87.5059 102.67 87.0859 102.46 86.6859 102.06C86.6459 102 86.5759 101.91 86.4759 101.79C86.3759 101.67 86.2959 101.59 86.2359 101.55C86.1959 101.49 86.1359 101.45 86.0559 101.43C85.9759 101.39 85.9059 101.37 85.8459 101.37C85.8259 101.37 85.7959 101.37 85.7559 101.37C85.3959 101.45 85.2159 101.72 85.2159 102.18C85.2159 102.2 85.2159 102.22 85.2159 102.24C85.2159 102.54 85.2859 102.82 85.4259 103.08C85.6459 103.56 86.0359 103.94 86.5959 104.22C87.1759 104.5 87.8459 104.64 88.6059 104.64V107.94C88.5659 109.64 88.0759 110.97 87.1359 111.93C86.1959 112.89 84.9759 113.37 83.4759 113.37C81.9359 113.37 80.7559 112.97 79.9359 112.17C79.7759 112.01 79.6059 111.93 79.4259 111.93C79.4059 111.93 79.3759 111.93 79.3359 111.93C79.0359 111.93 78.7059 112.12 78.3459 112.5C77.9859 112.88 77.8059 113.29 77.8059 113.73C77.8059 113.75 77.8059 113.78 77.8059 113.82C77.8059 114.3 77.9759 114.65 78.3159 114.87C78.6559 115.09 79.1059 115.2 79.6659 115.2C79.7059 115.2 79.7459 115.2 79.7859 115.2C80.4859 115.2 81.4659 115.03 82.7259 114.69C83.9859 114.33 84.9959 114.15 85.7559 114.15C85.7959 114.15 85.8359 114.15 85.8759 114.15C87.1759 114.15 88.1359 114.51 88.7559 115.23C89.3759 115.95 89.6859 116.89 89.6859 118.05C89.6859 118.11 89.6859 118.18 89.6859 118.26C89.6459 119.9 88.9859 121.3 87.7059 122.46C86.4259 123.64 84.7859 124.23 82.7859 124.23C81.4859 124.23 80.2559 123.89 79.0959 123.21C77.9559 122.53 77.3759 121.62 77.3559 120.48C77.3559 120.44 77.3559 120.41 77.3559 120.39C77.3559 119.81 77.5359 119.35 77.8959 119.01C78.2559 118.67 78.7259 118.5 79.3059 118.5C79.3259 118.5 79.3559 118.5 79.3959 118.5C79.9159 118.52 80.2959 118.69 80.5359 119.01C80.7959 119.35 80.9259 119.71 80.9259 120.09C80.9259 120.15 80.9259 120.21 80.9259 120.27C80.8859 120.67 80.6759 121.05 80.2959 121.41C79.9359 121.77 79.7459 122.08 79.7259 122.34C79.7259 122.36 79.7259 122.37 79.7259 122.37C79.7259 122.75 80.0259 123.12 80.6259 123.48C81.2259 123.86 81.9359 124.05 82.7559 124.05C83.8159 124.05 84.7359 123.74 85.5159 123.12C86.3159 122.52 86.7559 121.78 86.8359 120.9C86.8959 120.68 86.9259 120.47 86.9259 120.27C86.9259 119.71 86.6859 119.22 86.2059 118.8C85.7459 118.4 85.0359 118.2 84.0759 118.2C83.8959 118.2 83.7059 118.21 83.5059 118.23C83.3059 118.23 83.1059 118.23 82.9059 118.23C79.2059 118.23 77.3359 117.13 77.2959 114.93C77.2959 114.85 77.2959 114.77 77.2959 114.69C77.2959 113.77 77.6159 112.99 78.2559 112.35ZM82.0359 111.45C82.2159 112.23 82.4059 112.71 82.6059 112.89C82.8259 113.05 83.1159 113.13 83.4759 113.13C83.8159 113.13 84.0859 113.05 84.2859 112.89C84.5059 112.71 84.7059 112.23 84.8859 111.45C85.0659 110.67 85.1559 109.54 85.1559 108.06C85.1559 106.6 85.0659 105.48 84.8859 104.7C84.7059 103.92 84.5059 103.45 84.2859 103.29C84.0859 103.13 83.8159 103.05 83.4759 103.05C83.1159 103.05 82.8259 103.13 82.6059 103.29C82.4059 103.45 82.2159 103.92 82.0359 104.7C81.8559 105.46 81.7659 106.58 81.7659 108.06C81.7659 109.54 81.8559 110.67 82.0359 111.45ZM91.4102 115.2V104.97C91.4102 104.63 91.0702 104.46 90.3902 104.46V104.22C92.2702 104.22 93.8602 103.76 95.1602 102.84V115.2C95.1602 115.52 95.4902 115.68 96.1502 115.68V115.92H90.3902V115.68C91.0702 115.68 91.4102 115.52 91.4102 115.2ZM92.1002 99.27C92.4202 98.95 92.8102 98.79 93.2702 98.79C93.7102 98.79 94.0902 98.96 94.4102 99.3C94.7302 99.62 94.8902 100 94.8902 100.44C94.8902 100.9 94.7302 101.29 94.4102 101.61C94.0902 101.93 93.7102 102.09 93.2702 102.09C92.8102 102.09 92.4102 101.93 92.0702 101.61C91.7502 101.29 91.5902 100.9 91.5902 100.44C91.5902 99.98 91.7602 99.59 92.1002 99.27ZM101.833 102.84V105.33C101.893 105.13 101.973 104.93 102.073 104.73C102.193 104.53 102.373 104.27 102.613 103.95C102.873 103.63 103.203 103.37 103.603 103.17C104.023 102.95 104.483 102.84 104.983 102.84C107.003 102.84 108.013 104.2 108.013 106.92V115.2C108.013 115.52 108.353 115.68 109.033 115.68V115.92H103.633V115.68C104.053 115.68 104.273 115.53 104.293 115.23V105.69C104.293 105.09 104.233 104.67 104.113 104.43C103.993 104.19 103.813 104.07 103.573 104.07C103.553 104.07 103.533 104.07 103.513 104.07C103.073 104.09 102.693 104.36 102.373 104.88C102.073 105.38 101.893 105.87 101.833 106.35V115.23C101.833 115.53 102.053 115.68 102.493 115.68V115.92H97.0629V115.68C97.7429 115.68 98.0829 115.52 98.0829 115.2V104.97C98.0829 104.63 97.7429 104.46 97.0629 104.46V104.22C98.9629 104.22 100.553 103.76 101.833 102.84ZM114.716 102.84V105.33C114.776 105.13 114.856 104.93 114.956 104.73C115.076 104.53 115.256 104.27 115.496 103.95C115.756 103.63 116.086 103.37 116.486 103.17C116.906 102.95 117.366 102.84 117.866 102.84C119.886 102.84 120.896 104.2 120.896 106.92V115.2C120.896 115.52 121.236 115.68 121.916 115.68V115.92H116.516V115.68C116.936 115.68 117.156 115.53 117.176 115.23V105.69C117.176 105.09 117.116 104.67 116.996 104.43C116.876 104.19 116.696 104.07 116.456 104.07C116.436 104.07 116.416 104.07 116.396 104.07C115.956 104.09 115.576 104.36 115.256 104.88C114.956 105.38 114.776 105.87 114.716 106.35V115.23C114.716 115.53 114.936 115.68 115.376 115.68V115.92H109.946V115.68C110.626 115.68 110.966 115.52 110.966 115.2V104.97C110.966 104.63 110.626 104.46 109.946 104.46V104.22C111.846 104.22 113.436 103.76 114.716 102.84ZM123.85 115.2V104.97C123.85 104.63 123.51 104.46 122.83 104.46V104.22C124.71 104.22 126.3 103.76 127.6 102.84V115.2C127.6 115.52 127.93 115.68 128.59 115.68V115.92H122.83V115.68C123.51 115.68 123.85 115.52 123.85 115.2ZM124.54 99.27C124.86 98.95 125.25 98.79 125.71 98.79C126.15 98.79 126.53 98.96 126.85 99.3C127.17 99.62 127.33 100 127.33 100.44C127.33 100.9 127.17 101.29 126.85 101.61C126.53 101.93 126.15 102.09 125.71 102.09C125.25 102.09 124.85 101.93 124.51 101.61C124.19 101.29 124.03 100.9 124.03 100.44C124.03 99.98 124.2 99.59 124.54 99.27ZM134.273 102.84V105.33C134.333 105.13 134.413 104.93 134.513 104.73C134.633 104.53 134.813 104.27 135.053 103.95C135.313 103.63 135.643 103.37 136.043 103.17C136.463 102.95 136.923 102.84 137.423 102.84C139.443 102.84 140.453 104.2 140.453 106.92V115.2C140.453 115.52 140.793 115.68 141.473 115.68V115.92H136.073V115.68C136.493 115.68 136.713 115.53 136.733 115.23V105.69C136.733 105.09 136.673 104.67 136.553 104.43C136.433 104.19 136.253 104.07 136.013 104.07C135.993 104.07 135.973 104.07 135.953 104.07C135.513 104.09 135.133 104.36 134.813 104.88C134.513 105.38 134.333 105.87 134.273 106.35V115.23C134.273 115.53 134.493 115.68 134.933 115.68V115.92H129.503V115.68C130.183 115.68 130.523 115.52 130.523 115.2V104.97C130.523 104.63 130.183 104.46 129.503 104.46V104.22C131.403 104.22 132.993 103.76 134.273 102.84ZM143.106 112.35C143.186 112.27 143.296 112.17 143.436 112.05C143.596 111.91 143.706 111.81 143.766 111.75C143.826 111.67 143.876 111.59 143.916 111.51C143.976 111.41 144.006 111.34 144.006 111.3C144.006 111.22 143.976 111.16 143.916 111.12C143.416 110.28 143.166 109.25 143.166 108.03C143.186 106.35 143.666 105.07 144.606 104.19C145.546 103.29 146.786 102.84 148.326 102.84C148.986 102.84 149.566 102.92 150.066 103.08C149.886 102.66 149.796 102.2 149.796 101.7C149.796 100.94 150.056 100.3 150.576 99.78C151.116 99.24 151.736 98.97 152.436 98.97C153.076 98.97 153.596 99.15 153.996 99.51C154.416 99.87 154.626 100.33 154.626 100.89C154.626 100.91 154.626 100.94 154.626 100.98C154.626 101.46 154.446 101.87 154.086 102.21C153.726 102.53 153.326 102.69 152.886 102.69C152.846 102.69 152.816 102.69 152.796 102.69C152.356 102.67 151.936 102.46 151.536 102.06C151.496 102 151.426 101.91 151.326 101.79C151.226 101.67 151.146 101.59 151.086 101.55C151.046 101.49 150.986 101.45 150.906 101.43C150.826 101.39 150.756 101.37 150.696 101.37C150.676 101.37 150.646 101.37 150.606 101.37C150.246 101.45 150.066 101.72 150.066 102.18C150.066 102.2 150.066 102.22 150.066 102.24C150.066 102.54 150.136 102.82 150.276 103.08C150.496 103.56 150.886 103.94 151.446 104.22C152.026 104.5 152.696 104.64 153.456 104.64V107.94C153.416 109.64 152.926 110.97 151.986 111.93C151.046 112.89 149.826 113.37 148.326 113.37C146.786 113.37 145.606 112.97 144.786 112.17C144.626 112.01 144.456 111.93 144.276 111.93C144.256 111.93 144.226 111.93 144.186 111.93C143.886 111.93 143.556 112.12 143.196 112.5C142.836 112.88 142.656 113.29 142.656 113.73C142.656 113.75 142.656 113.78 142.656 113.82C142.656 114.3 142.826 114.65 143.166 114.87C143.506 115.09 143.956 115.2 144.516 115.2C144.556 115.2 144.596 115.2 144.636 115.2C145.336 115.2 146.316 115.03 147.576 114.69C148.836 114.33 149.846 114.15 150.606 114.15C150.646 114.15 150.686 114.15 150.726 114.15C152.026 114.15 152.986 114.51 153.606 115.23C154.226 115.95 154.536 116.89 154.536 118.05C154.536 118.11 154.536 118.18 154.536 118.26C154.496 119.9 153.836 121.3 152.556 122.46C151.276 123.64 149.636 124.23 147.636 124.23C146.336 124.23 145.106 123.89 143.946 123.21C142.806 122.53 142.226 121.62 142.206 120.48C142.206 120.44 142.206 120.41 142.206 120.39C142.206 119.81 142.386 119.35 142.746 119.01C143.106 118.67 143.576 118.5 144.156 118.5C144.176 118.5 144.206 118.5 144.246 118.5C144.766 118.52 145.146 118.69 145.386 119.01C145.646 119.35 145.776 119.71 145.776 120.09C145.776 120.15 145.776 120.21 145.776 120.27C145.736 120.67 145.526 121.05 145.146 121.41C144.786 121.77 144.596 122.08 144.576 122.34C144.576 122.36 144.576 122.37 144.576 122.37C144.576 122.75 144.876 123.12 145.476 123.48C146.076 123.86 146.786 124.05 147.606 124.05C148.666 124.05 149.586 123.74 150.366 123.12C151.166 122.52 151.606 121.78 151.686 120.9C151.746 120.68 151.776 120.47 151.776 120.27C151.776 119.71 151.536 119.22 151.056 118.8C150.596 118.4 149.886 118.2 148.926 118.2C148.746 118.2 148.556 118.21 148.356 118.23C148.156 118.23 147.956 118.23 147.756 118.23C144.056 118.23 142.186 117.13 142.146 114.93C142.146 114.85 142.146 114.77 142.146 114.69C142.146 113.77 142.466 112.99 143.106 112.35ZM146.886 111.45C147.066 112.23 147.256 112.71 147.456 112.89C147.676 113.05 147.966 113.13 148.326 113.13C148.666 113.13 148.936 113.05 149.136 112.89C149.356 112.71 149.556 112.23 149.736 111.45C149.916 110.67 150.006 109.54 150.006 108.06C150.006 106.6 149.916 105.48 149.736 104.7C149.556 103.92 149.356 103.45 149.136 103.29C148.936 103.13 148.666 103.05 148.326 103.05C147.966 103.05 147.676 103.13 147.456 103.29C147.256 103.45 147.066 103.92 146.886 104.7C146.706 105.46 146.616 106.58 146.616 108.06C146.616 109.54 146.706 110.67 146.886 111.45ZM163.235 104.46C164.235 103.38 165.535 102.84 167.135 102.84C168.715 102.84 170.005 103.39 171.005 104.49C172.005 105.57 172.505 107.21 172.505 109.41C172.505 111.37 171.985 112.95 170.945 114.15C169.925 115.33 168.655 115.92 167.135 115.92C165.575 115.92 164.275 115.35 163.235 114.21C162.215 113.05 161.705 111.45 161.705 109.41C161.705 107.21 162.215 105.56 163.235 104.46ZM165.515 112.38C165.595 113.2 165.685 113.82 165.785 114.24C165.885 114.66 166.015 114.99 166.175 115.23C166.355 115.45 166.505 115.58 166.625 115.62C166.765 115.66 166.935 115.68 167.135 115.68C167.335 115.68 167.495 115.66 167.615 115.62C167.735 115.58 167.875 115.45 168.035 115.23C168.215 114.99 168.355 114.66 168.455 114.24C168.555 113.82 168.635 113.2 168.695 112.38C168.775 111.56 168.815 110.57 168.815 109.41C168.815 108.25 168.775 107.26 168.695 106.44C168.635 105.6 168.555 104.97 168.455 104.55C168.355 104.13 168.215 103.81 168.035 103.59C167.875 103.35 167.735 103.21 167.615 103.17C167.495 103.13 167.335 103.11 167.135 103.11C166.935 103.11 166.765 103.13 166.625 103.17C166.505 103.21 166.355 103.35 166.175 103.59C166.015 103.81 165.885 104.13 165.785 104.55C165.685 104.97 165.595 105.59 165.515 106.41C165.435 107.25 165.395 108.25 165.395 109.41C165.395 110.57 165.435 111.56 165.515 112.38ZM174.264 106.26V105.93C174.264 103.49 174.274 102.1 174.294 101.76C174.334 100.72 174.534 99.81 174.894 99.03C175.254 98.25 175.714 97.65 176.274 97.23C176.834 96.81 177.414 96.5 178.014 96.3C178.614 96.1 179.224 96 179.844 96C181.144 96 182.214 96.42 183.054 97.26C183.914 98.08 184.344 99.03 184.344 100.11C184.344 100.81 184.164 101.37 183.804 101.79C183.444 102.21 182.974 102.42 182.394 102.42C182.354 102.42 182.324 102.42 182.304 102.42C181.784 102.4 181.374 102.21 181.074 101.85C180.774 101.47 180.624 101.07 180.624 100.65C180.624 100.61 180.624 100.56 180.624 100.5C180.684 100.06 180.984 99.6 181.524 99.12C182.064 98.64 182.334 98.21 182.334 97.83C182.314 97.33 182.054 96.94 181.554 96.66C181.054 96.38 180.484 96.24 179.844 96.24C178.724 96.24 177.834 96.55 177.174 97.17C176.534 97.77 176.214 98.55 176.214 99.51C176.214 100.49 176.504 101.51 177.084 102.57C177.684 103.63 177.994 104.64 178.014 105.6V106.26H179.844V106.53H178.014V115.2C178.014 115.52 178.344 115.68 179.004 115.68V115.92H173.244V115.68C173.924 115.68 174.264 115.52 174.264 115.2V106.53H173.244V106.26H174.264ZM190.87 104.46C191.87 103.38 193.17 102.84 194.77 102.84C196.35 102.84 197.64 103.39 198.64 104.49C199.64 105.57 200.14 107.21 200.14 109.41C200.14 111.37 199.62 112.95 198.58 114.15C197.56 115.33 196.29 115.92 194.77 115.92C193.21 115.92 191.91 115.35 190.87 114.21C189.85 113.05 189.34 111.45 189.34 109.41C189.34 107.21 189.85 105.56 190.87 104.46ZM193.15 112.38C193.23 113.2 193.32 113.82 193.42 114.24C193.52 114.66 193.65 114.99 193.81 115.23C193.99 115.45 194.14 115.58 194.26 115.62C194.4 115.66 194.57 115.68 194.77 115.68C194.97 115.68 195.13 115.66 195.25 115.62C195.37 115.58 195.51 115.45 195.67 115.23C195.85 114.99 195.99 114.66 196.09 114.24C196.19 113.82 196.27 113.2 196.33 112.38C196.41 111.56 196.45 110.57 196.45 109.41C196.45 108.25 196.41 107.26 196.33 106.44C196.27 105.6 196.19 104.97 196.09 104.55C195.99 104.13 195.85 103.81 195.67 103.59C195.51 103.35 195.37 103.21 195.25 103.17C195.13 103.13 194.97 103.11 194.77 103.11C194.57 103.11 194.4 103.13 194.26 103.17C194.14 103.21 193.99 103.35 193.81 103.59C193.65 103.81 193.52 104.13 193.42 104.55C193.32 104.97 193.23 105.59 193.15 106.41C193.07 107.25 193.03 108.25 193.03 109.41C193.03 110.57 193.07 111.56 193.15 112.38ZM200.879 104.46V104.22C202.719 104.22 204.299 103.76 205.619 102.84V113.4C205.619 114.3 205.889 114.75 206.429 114.75C206.449 114.75 206.479 114.75 206.519 114.75C206.939 114.73 207.289 114.47 207.569 113.97C207.849 113.45 208.019 112.92 208.079 112.38V104.97C208.079 104.63 207.749 104.46 207.089 104.46V104.22C208.969 104.22 210.549 103.76 211.829 102.84V114.45C211.829 115.13 212.089 115.47 212.609 115.47H212.819V115.71C212.119 115.77 211.509 115.82 210.989 115.86C210.489 115.9 210.159 115.92 209.999 115.92C209.859 115.94 209.749 115.95 209.669 115.95C208.609 115.95 208.079 115.45 208.079 114.45V113.58C208.059 113.64 208.019 113.75 207.959 113.91C207.899 114.05 207.789 114.24 207.629 114.48C207.469 114.72 207.279 114.95 207.059 115.17C206.859 115.37 206.579 115.55 206.219 115.71C205.859 115.85 205.469 115.92 205.049 115.92C202.949 115.92 201.899 114.54 201.899 111.78V104.97C201.899 104.63 201.559 104.46 200.879 104.46ZM213.734 104.46V104.22C215.554 104.22 217.134 103.76 218.474 102.84V105.15C219.034 103.85 219.984 103.2 221.324 103.2C222.144 103.2 222.814 103.41 223.334 103.83C223.854 104.25 224.114 104.83 224.114 105.57C224.114 105.61 224.114 105.64 224.114 105.66C224.114 106.22 223.944 106.66 223.604 106.98C223.284 107.28 222.904 107.43 222.464 107.43C222.024 107.43 221.634 107.3 221.294 107.04C220.954 106.76 220.774 106.36 220.754 105.84C220.754 105.56 220.844 105.24 221.024 104.88C221.204 104.52 221.294 104.29 221.294 104.19C221.294 104.05 221.214 103.95 221.054 103.89C220.894 103.83 220.744 103.8 220.604 103.8C220.564 103.8 220.524 103.8 220.484 103.8C220.064 103.84 219.664 104.05 219.284 104.43C218.924 104.79 218.654 105.33 218.474 106.05V115.2C218.474 115.52 218.814 115.68 219.494 115.68V115.92H213.734V115.68C214.414 115.68 214.754 115.52 214.754 115.2V104.97C214.754 104.63 214.414 104.46 213.734 104.46ZM232.054 106.26V105.93C232.054 103.49 232.064 102.1 232.084 101.76C232.124 100.72 232.324 99.81 232.684 99.03C233.044 98.25 233.504 97.65 234.064 97.23C234.624 96.81 235.204 96.5 235.804 96.3C236.404 96.1 237.014 96 237.634 96C238.934 96 240.004 96.42 240.844 97.26C241.704 98.08 242.134 99.03 242.134 100.11C242.134 100.81 241.954 101.37 241.594 101.79C241.234 102.21 240.764 102.42 240.184 102.42C240.144 102.42 240.114 102.42 240.094 102.42C239.574 102.4 239.164 102.21 238.864 101.85C238.564 101.47 238.414 101.07 238.414 100.65C238.414 100.61 238.414 100.56 238.414 100.5C238.474 100.06 238.774 99.6 239.314 99.12C239.854 98.64 240.124 98.21 240.124 97.83C240.104 97.33 239.844 96.94 239.344 96.66C238.844 96.38 238.274 96.24 237.634 96.24C236.514 96.24 235.624 96.55 234.964 97.17C234.324 97.77 234.004 98.55 234.004 99.51C234.004 100.49 234.294 101.51 234.874 102.57C235.474 103.63 235.784 104.64 235.804 105.6V106.26H237.634V106.53H235.804V115.2C235.804 115.52 236.134 115.68 236.794 115.68V115.92H231.034V115.68C231.714 115.68 232.054 115.52 232.054 115.2V106.53H231.034V106.26H232.054ZM239.409 104.46C240.409 103.38 241.709 102.84 243.309 102.84C244.889 102.84 246.179 103.39 247.179 104.49C248.179 105.57 248.679 107.21 248.679 109.41C248.679 111.37 248.159 112.95 247.119 114.15C246.099 115.33 244.829 115.92 243.309 115.92C241.749 115.92 240.449 115.35 239.409 114.21C238.389 113.05 237.879 111.45 237.879 109.41C237.879 107.21 238.389 105.56 239.409 104.46ZM241.689 112.38C241.769 113.2 241.859 113.82 241.959 114.24C242.059 114.66 242.189 114.99 242.349 115.23C242.529 115.45 242.679 115.58 242.799 115.62C242.939 115.66 243.109 115.68 243.309 115.68C243.509 115.68 243.669 115.66 243.789 115.62C243.909 115.58 244.049 115.45 244.209 115.23C244.389 114.99 244.529 114.66 244.629 114.24C244.729 113.82 244.809 113.2 244.869 112.38C244.949 111.56 244.989 110.57 244.989 109.41C244.989 108.25 244.949 107.26 244.869 106.44C244.809 105.6 244.729 104.97 244.629 104.55C244.529 104.13 244.389 103.81 244.209 103.59C244.049 103.35 243.909 103.21 243.789 103.17C243.669 103.13 243.509 103.11 243.309 103.11C243.109 103.11 242.939 103.13 242.799 103.17C242.679 103.21 242.529 103.35 242.349 103.59C242.189 103.81 242.059 104.13 241.959 104.55C241.859 104.97 241.769 105.59 241.689 106.41C241.609 107.25 241.569 108.25 241.569 109.41C241.569 110.57 241.609 111.56 241.689 112.38ZM249.418 104.46V104.22C251.238 104.22 252.818 103.76 254.158 102.84V105.15C254.718 103.85 255.668 103.2 257.008 103.2C257.828 103.2 258.498 103.41 259.018 103.83C259.538 104.25 259.798 104.83 259.798 105.57C259.798 105.61 259.798 105.64 259.798 105.66C259.798 106.22 259.628 106.66 259.288 106.98C258.968 107.28 258.588 107.43 258.148 107.43C257.708 107.43 257.318 107.3 256.978 107.04C256.638 106.76 256.458 106.36 256.438 105.84C256.438 105.56 256.528 105.24 256.708 104.88C256.888 104.52 256.978 104.29 256.978 104.19C256.978 104.05 256.898 103.95 256.738 103.89C256.578 103.83 256.428 103.8 256.288 103.8C256.248 103.8 256.208 103.8 256.168 103.8C255.748 103.84 255.348 104.05 254.968 104.43C254.608 104.79 254.338 105.33 254.158 106.05V115.2C254.158 115.52 254.498 115.68 255.178 115.68V115.92H249.418V115.68C250.098 115.68 250.438 115.52 250.438 115.2V104.97C250.438 104.63 250.098 104.46 249.418 104.46ZM260.525 106.38C260.885 105.52 261.345 104.84 261.905 104.34C262.485 103.84 263.075 103.47 263.675 103.23C264.295 102.97 264.885 102.84 265.445 102.84C267.025 102.84 268.255 103.38 269.135 104.46C270.015 105.54 270.485 107.02 270.545 108.9L263.525 108.93C263.525 110.49 263.805 111.77 264.365 112.77C264.945 113.77 265.825 114.29 267.005 114.33C267.285 114.33 267.545 114.31 267.785 114.27C268.045 114.21 268.245 114.16 268.385 114.12C268.545 114.06 268.735 113.95 268.955 113.79C269.175 113.63 269.315 113.53 269.375 113.49C269.435 113.43 269.565 113.3 269.765 113.1C269.965 112.88 270.075 112.76 270.095 112.74C269.095 114.86 267.655 115.92 265.775 115.92C264.055 115.92 262.655 115.3 261.575 114.06C260.495 112.8 259.955 111.22 259.955 109.32C259.955 108.24 260.145 107.26 260.525 106.38ZM267.515 108.57C267.515 104.91 266.905 103.08 265.685 103.08C265.525 103.08 265.365 103.11 265.205 103.17C265.065 103.21 264.885 103.35 264.665 103.59C264.445 103.81 264.255 104.11 264.095 104.49C263.935 104.85 263.795 105.39 263.675 106.11C263.575 106.81 263.525 107.63 263.525 108.57H267.515ZM269.803 103.08V102.84H275.713V103.08H275.323C275.243 103.08 275.163 103.1 275.083 103.14C275.003 103.16 274.963 103.19 274.963 103.23C274.963 103.23 274.963 103.24 274.963 103.26C274.963 103.28 274.973 103.3 274.993 103.32C274.973 103.36 274.963 103.4 274.963 103.44L276.703 109.89C276.843 110.45 276.913 110.85 276.913 111.09C276.913 111.13 276.913 111.18 276.913 111.24C276.913 111.84 276.683 112.44 276.223 113.04C275.763 113.62 275.533 114.12 275.533 114.54C275.533 114.56 275.533 114.58 275.533 114.6C275.633 115.28 275.983 115.62 276.583 115.62C277.323 115.62 277.833 115.12 278.113 114.12L281.023 103.29C281.023 103.27 281.023 103.26 281.023 103.26C281.023 103.18 280.973 103.13 280.873 103.11C280.773 103.09 280.523 103.08 280.123 103.08V102.84H282.373V103.08C282.093 103.08 281.903 103.09 281.803 103.11C281.703 103.11 281.613 103.14 281.533 103.2C281.453 103.24 281.403 103.32 281.383 103.44L278.503 114.18C278.123 115.34 277.483 115.92 276.583 115.92C275.203 115.92 274.263 115.05 273.763 113.31L271.153 103.59C271.073 103.25 270.623 103.08 269.803 103.08ZM282.454 106.38C282.814 105.52 283.274 104.84 283.834 104.34C284.414 103.84 285.004 103.47 285.604 103.23C286.224 102.97 286.814 102.84 287.374 102.84C288.954 102.84 290.184 103.38 291.064 104.46C291.944 105.54 292.414 107.02 292.474 108.9L285.454 108.93C285.454 110.49 285.734 111.77 286.294 112.77C286.874 113.77 287.754 114.29 288.934 114.33C289.214 114.33 289.474 114.31 289.714 114.27C289.974 114.21 290.174 114.16 290.314 114.12C290.474 114.06 290.664 113.95 290.884 113.79C291.104 113.63 291.244 113.53 291.304 113.49C291.364 113.43 291.494 113.3 291.694 113.1C291.894 112.88 292.004 112.76 292.024 112.74C291.024 114.86 289.584 115.92 287.704 115.92C285.984 115.92 284.584 115.3 283.504 114.06C282.424 112.8 281.884 111.22 281.884 109.32C281.884 108.24 282.074 107.26 282.454 106.38ZM289.444 108.57C289.444 104.91 288.834 103.08 287.614 103.08C287.454 103.08 287.294 103.11 287.134 103.17C286.994 103.21 286.814 103.35 286.594 103.59C286.374 103.81 286.184 104.11 286.024 104.49C285.864 104.85 285.724 105.39 285.604 106.11C285.504 106.81 285.454 107.63 285.454 108.57H289.444ZM293.218 104.46V104.22C295.038 104.22 296.618 103.76 297.958 102.84V105.15C298.518 103.85 299.468 103.2 300.808 103.2C301.628 103.2 302.298 103.41 302.818 103.83C303.338 104.25 303.598 104.83 303.598 105.57C303.598 105.61 303.598 105.64 303.598 105.66C303.598 106.22 303.428 106.66 303.088 106.98C302.768 107.28 302.388 107.43 301.948 107.43C301.508 107.43 301.118 107.3 300.778 107.04C300.438 106.76 300.258 106.36 300.238 105.84C300.238 105.56 300.328 105.24 300.508 104.88C300.688 104.52 300.778 104.29 300.778 104.19C300.778 104.05 300.698 103.95 300.538 103.89C300.378 103.83 300.228 103.8 300.088 103.8C300.048 103.8 300.008 103.8 299.968 103.8C299.548 103.84 299.148 104.05 298.768 104.43C298.408 104.79 298.138 105.33 297.958 106.05V115.2C297.958 115.52 298.298 115.68 298.978 115.68V115.92H293.218V115.68C293.898 115.68 294.238 115.52 294.238 115.2V104.97C294.238 104.63 293.898 104.46 293.218 104.46ZM301.104 112.98C301.444 112.64 301.864 112.47 302.364 112.47C302.844 112.47 303.254 112.64 303.594 112.98C303.934 113.32 304.104 113.73 304.104 114.21C304.104 114.71 303.934 115.13 303.594 115.47C303.254 115.81 302.844 115.98 302.364 115.98C301.864 115.98 301.444 115.81 301.104 115.47C300.764 115.13 300.594 114.71 300.594 114.21C300.594 113.73 300.764 113.32 301.104 112.98Z" fill="#275A84"/>
</svg>
